<svg width="160.837601" height="116.113281" viewBox="0 0 160.838 116.113" fill="none" xmlns="http://www.w3.org/2000/svg" xmlns:xlink="http://www.w3.org/1999/xlink">
	<desc>
			Created with Pixso.
	</desc>
	<defs/>
	<path id="Vector" d="M114.4 17.91C114.39 17.92 114.38 17.92 114.36 17.93C113.49 18.31 112.32 19.05 114.4 19.12C116.52 19.2 116.3 18.12 115.93 17.57L114.36 17.93M39.32 26.56C39.81 26.94 39.29 27.03 38.97 27.03L38.38 27.2C38.28 27.25 38.08 27.23 38.03 26.78C37.98 26.22 37.98 25.73 38.18 25.64C38.38 25.55 38.32 25.15 38.18 24.95C38.03 24.75 37.76 24.67 37.8 24.37C37.83 24.06 38.38 23.79 38.38 23.75C38.38 23.71 38.96 23.73 38.81 23.28C38.7 22.92 39.45 22.97 39.84 23.04C40.06 23.03 40.49 22.88 40.55 22.42C40.61 21.98 40.74 21.33 40.8 21.07C40.82 20.89 40.76 20.55 40.35 20.63C39.84 20.74 39.37 19.22 38.97 18.36C38.66 17.68 38.31 18.42 38.18 18.87C38.04 18.97 37.68 19.13 37.31 19.02C36.93 18.9 35.97 19.61 35.53 19.98C35.39 20 35.2 20.2 35.53 20.89C35.87 21.57 34.93 21.29 34.43 21.07C34.26 20.99 33.88 20.99 33.67 21.63C33.45 22.27 33.32 23 33.28 23.28C32.79 23.55 31.44 23.94 30.01 23.41C28.21 22.73 28.07 22.44 27.25 22.66C26.44 22.88 27.14 24.93 27.2 24.98C27.25 25.04 27.32 25.4 27.09 25.55C26.85 25.69 26.74 24.55 26.67 24.46C26.6 24.37 26 23.59 25.77 23.62C25.53 23.66 25.51 23.44 24.86 23.93C24.34 24.32 23.7 24.21 23.45 24.1C23.07 24.21 22.32 24.53 22.36 24.98C22.4 25.43 21.75 25.28 21.42 25.15C21.2 25.15 20.8 25.25 20.96 25.67C21.12 26.09 20.45 26.41 20.09 26.51C19.68 26.86 18.83 27.66 18.77 27.96C18.71 28.26 18.96 28.57 19.1 28.68C19.16 28.74 19.26 28.88 19.1 28.99C18.9 29.14 18.61 29.37 19.1 29.84C19.59 30.32 19.62 30.17 19.57 30.77C19.63 30.97 19.61 31.35 19.04 31.3C18.48 31.24 17.91 31.66 17.7 31.87C17.64 31.91 17.58 32.01 17.9 32.13C18.22 32.25 17.78 32.43 17.52 32.51C17.33 32.62 17.02 32.98 17.32 33.47C17.5 33.59 17.73 33.82 17.27 33.78C16.69 33.73 16.69 34.03 16.81 34.36C16.94 34.69 17.1 35.19 16.52 35.52C16.06 35.78 15.78 35.01 15.69 34.6C15.61 34.4 15.35 34.13 15 34.6C14.65 35.06 14.33 35.3 14.21 35.36L13.68 35.9C13.48 36.01 13.22 36.25 13.75 36.43C14.29 36.6 14.56 36.9 14.62 37.03C14.69 37.15 14.92 37.37 15.31 37.32C15.58 37.53 15.95 38.08 15.31 38.58L15.31 39.22L14.51 39.29C14.28 39.25 13.85 39.28 14.01 39.82C14.17 40.36 14.45 40.62 14.57 40.69C14.66 40.72 14.79 40.84 14.57 41.07C14.35 41.3 13.92 41.69 13.73 41.85L13.15 41.91C13.06 41.94 12.93 42.06 13.21 42.23C13.48 42.41 13.75 42.6 13.84 42.67C13.73 43.04 13.8 43.85 14.91 44.1C15.16 44.19 15.51 44.44 14.91 44.81C14.71 44.9 14.35 45.19 14.5 45.66C14.64 46.12 14.24 45.85 14.02 45.66C13.87 45.56 13.44 45.43 13.01 45.66C12.75 45.37 12.14 45.01 11.8 45.8C11.45 46.6 10.59 46.33 10.2 46.1C10.1 46.02 9.97 45.78 10.2 45.37C10.43 44.96 9.78 44.35 9.42 44.1C9.24 44.04 8.89 44.01 8.91 44.39C8.74 44.48 8.48 44.72 8.86 45.01C9.24 45.3 8.7 45.28 8.39 45.24C8.35 44.93 8.1 44.3 7.47 44.21C7.51 44.05 7.49 43.64 7.08 43.25C7.08 43.01 6.93 42.64 6.36 43.12C6.11 43.19 5.62 43.37 5.64 43.52C5.47 43.58 5.06 43.57 4.69 42.98C4.33 42.38 4.18 42.78 4.15 43.05C4.16 43.16 4.1 43.31 3.81 42.98C3.52 42.64 3.37 43.2 3.33 43.52C3.33 43.77 3.53 44.39 4.38 44.83L4.49 45.73L4.15 45.73C3.91 45.53 3.24 45.12 2.43 45.13C2.31 45.15 2.14 45.24 2.43 45.51C2.79 45.86 3.08 47.24 2.23 47.27C1.55 47.3 1.94 48.02 2.23 48.38C2.71 48.36 3.73 48.46 3.99 49L4.89 49.16C5.19 49.75 5.64 50.98 5.07 51.16C4.94 51.33 4.82 51.79 5.4 52.23L5.4 53.13C5.59 53.35 5.84 53.83 5.35 53.97L5.49 55.67C5.15 55.89 4.71 56.34 5.73 56.4C5.86 56.66 6.17 57.23 6.36 57.34C6.28 57.61 6.23 58.23 6.72 58.54C6.76 58.77 6.92 59.26 7.28 59.35L7.75 60.32L7.83 60.97C8.15 61.17 8.67 61.64 8.14 61.96L8.03 62.47L9.59 63.51C9.51 63.69 9.53 64.12 10.27 64.38C10.41 64.43 10.61 64.58 10.27 64.72C9.86 64.9 8.93 65.26 9.78 65.92L10.04 67.66C9.97 67.99 9.85 68.69 9.98 68.87C10.11 69.06 10.91 69.04 11.29 69C11.34 68.95 11.48 68.87 11.61 68.93C11.74 68.99 12.12 69.27 12.28 69.4C12.44 69.45 12.71 69.41 12.52 68.87C12.33 68.34 12.6 67.84 12.76 67.66C12.68 67.41 12.57 66.87 12.76 66.72L12.9 65.92C13.12 65.91 13.56 65.76 13.53 65.25C14.04 64.84 14.92 63.82 14.35 62.96C14.25 62.79 14.17 62.51 14.68 62.8C15.31 63.16 16.78 62.56 16.98 62.04C17.21 62.28 17.79 62.74 18.3 62.66C18.55 62.8 19.18 63.02 19.75 62.66C20.32 62.29 19.84 61.89 19.53 61.73C19.88 61.83 20.57 61.8 20.49 60.91C20.48 60.68 20.53 60.18 20.82 60.1C21.18 59.99 20.58 58.48 19.95 58.35C19.44 58.25 20.05 58 20.42 57.88C20.43 57.54 20.41 56.76 20.2 56.41C20 56.07 20.89 56.09 21.36 56.14C21.56 56.19 21.95 56.15 21.89 55.67C21.82 55.07 22.99 55 23.1 55.04C23.21 55.07 24.13 54.96 24.06 55.8C23.99 56.63 24.26 56.6 24.33 56.63C24.41 56.67 25.02 56.76 24.75 56L26.65 55.89C26.68 55.68 26.87 55.43 27.45 56.05C28.04 55.92 29.2 55.89 29.15 56.76C29.2 56.87 29.55 57.06 30.55 56.87C30.65 57.17 30.9 57.86 31.13 58.12C31.09 58.48 31.13 59.27 31.55 59.51L31.55 60.1C31.09 60.5 30.57 61.25 32.18 60.98C32.29 61.55 32.74 62.51 33.67 61.76C34.03 61.77 34.8 61.9 34.93 62.36C34.82 62.58 34.77 62.97 35.5 62.87C35.75 62.8 36.26 62.87 36.27 63.69C36.29 64.5 36.56 64.73 36.69 64.74C36.76 65 37.07 65.43 37.71 65.08C38.04 65.67 38.97 66.61 39.95 65.68C40.07 65.03 40.11 63.69 39.35 63.58C39.14 63.12 38.97 62.41 39.95 63.25C40.3 63.19 41.06 62.8 41.28 61.76C41.58 61.8 42.21 61.93 42.25 62.22C42.31 62.58 43.05 62.6 42.8 62.15C42.59 61.78 42.24 61.45 42.09 61.33C42.03 61.17 42.04 60.87 42.56 60.98C43.08 61.1 42.94 60.64 42.8 60.39L44.25 61.06C44.47 61.08 44.96 61.12 45.13 61.06C45.31 61 46.57 61.62 47.18 61.95L48.89 61.87C49.01 61.9 49.27 62 49.37 62.22C49.48 62.44 50.23 62.31 50.59 62.22C50.77 62.47 51.24 62.92 51.69 62.75C52.14 62.57 52 62.41 51.87 62.35C52.3 62.28 53.22 62.41 53.52 63.36C54 63.21 54.84 63.19 54.47 64.23C53.99 65.54 54.86 64.78 53.76 65.43C53.81 65.66 54.06 66.11 54.59 66.03C54.68 65.89 54.87 65.87 54.96 66.86C55.04 67.85 55.54 67.13 55.77 66.64C56.11 66.74 56.6 67.1 55.77 67.75C54.94 68.4 57.06 68.31 58.22 68.19C58.83 67.88 60.03 67.44 59.94 68.19C59.83 69.11 60.92 71.1 61.04 71.07C61.17 71.03 61.48 72.5 61.48 72.72C61.48 72.94 61.88 74.5 61.8 74.9C61.73 75.3 61.8 76.37 62.47 76.4C63.14 76.44 62.71 75.64 63.27 75.71C63.83 75.78 63.42 76.69 63.87 76.96C64.32 77.24 64.18 77.69 64.72 77.42C65.26 77.14 65.23 77.82 65.61 77.62C65.99 77.42 65.99 76.83 66.42 77.62C66.86 78.4 67.35 77.42 67.31 78.41C67.28 79.41 67.8 79.37 68.06 79.88C68.31 80.39 68.42 80.75 68.94 81.01C69.47 81.26 69 81.59 69.78 81.3C70.56 81.01 69.18 81.93 70.66 81.79C71 82.48 71.83 83.53 72.42 82.13C73.06 82.15 74.44 82.04 74.92 81.44C75.21 81.59 75.8 81.67 75.81 80.83C76.39 80.89 77.64 80.8 78 79.99C78.37 79.18 79.08 79.99 79.4 80.5C79.9 80.45 81 80.57 81.39 81.44C81.78 82.32 82.8 82.19 83.26 82.02C84.01 82.37 85.73 82.85 86.56 81.95C86.66 81.59 86.73 80.75 86.12 80.23C85.47 79.55 87.2 78.8 88.15 78.51C88.57 78.41 89.55 78.34 90.09 78.85C90.41 78.6 91.12 78.44 91.36 79.78C91.63 80.38 92.33 81.58 92.97 81.53C93.61 81.49 94 81.71 94.11 81.82C94.26 81.89 94.6 81.92 94.8 81.6C95.05 81.21 95.56 81.84 95.69 81.06C95.81 80.28 98.46 81.21 100.05 82.71C101.33 83.92 105.51 82.03 107.45 80.94C107.43 80.19 107.96 78.91 110.25 79.81C110.48 79.48 111.26 79.04 112.61 79.88C113.96 80.73 114.77 78.7 115 77.58L114.91 76.35C115.14 76.27 115.53 75.88 115.26 74.88C114.91 73.63 116.42 74.95 115 72C115.13 71.32 115.64 70.05 116.69 70.31C117.06 69.96 117.95 69.31 118.57 69.44C119.13 69.82 119.5 69.87 119.71 69.66C119.93 69.44 121.72 69.49 122.05 70.07C122.31 70.53 123.36 71.8 123.84 72.37C124.25 72.54 125.07 73.1 125.09 74.06C125.8 74.45 126.12 74.95 126.18 75.15C126.59 75.2 127.4 75.21 127.34 74.84C127.69 74.73 128.25 74.92 128.48 75.04L128.59 74.66C129.44 74.8 131.06 75.24 130.78 75.8C131.4 76.6 131.8 76.96 132.07 76.78C132.29 76.64 132.23 77.01 132.18 77.22C132.43 77.26 132.92 77.23 132.92 76.78C134.06 76.78 134.75 75.75 134.73 75.04C134.72 74.48 135.21 74.44 135.46 74.5C135.48 74.43 135.54 74.2 135.66 73.81C136.17 73.3 135.82 72.96 136.4 73.81C136.78 73.94 137.4 74.37 136.71 75.28C137.11 76.27 137.43 76.73 137.23 77.29C137.54 77.64 137.65 80.34 137.23 80.97C137.51 81.51 137.81 82.48 136.91 81.48C136 80.48 135.46 80.5 135.57 81.81C135.35 82.04 135.08 82.95 135.89 83.22C135.89 84 136.38 84.66 136.73 85.16C137.07 85.67 136.93 86.39 136.15 86.41C136.04 86.52 136 87.32 136.62 87.26C136.91 87.7 137.49 88.12 137.52 87.26C137.55 86.58 138 85.63 138.21 85.23C138.42 85.62 139.04 86.13 139.9 85.16C140.97 83.94 142.16 84.85 142.34 80.14C142.34 79.7 142.42 79.58 142.62 79.52C142.78 79.48 142.63 78.95 142.54 78.69C142.62 78.38 142.82 77.83 142.98 78.09C143.14 77.68 143.09 75.98 143.05 75.19C143.49 75.04 144.09 74.69 142.98 74.46C143.05 73.94 143.49 72.99 142.62 72.72C141.92 72.5 142.62 72.17 143.05 72.03C143.33 71.85 143.67 71.39 142.72 70.92C142.98 70.43 143.59 68.75 142.72 67.62C142.47 66.55 141.49 65.12 140.59 64.12C140.27 63.3 140.17 62.73 140.17 62.55C140.37 62.36 140.5 61.69 139.34 60.51C138.85 60.01 138.67 59.77 138.83 59.55C138.96 59.38 138.05 59.31 137.58 59.3C137.17 58.94 136.15 58.39 135.37 59.05C134.79 59.05 134.21 58.85 134.68 60.02C135.15 61.2 134.05 61.76 133.86 60.26C133.36 59.86 133.16 59.5 132.92 61.28C132.41 60.69 132.56 58.85 131.22 60.64C130.51 60.8 129.42 61.02 130.84 59.75C130.84 58.3 131.65 56.78 131.8 56.76C131.94 56.74 131.33 56.14 131.56 55.76C131.8 55.38 131.6 53.91 132.2 52.03C131.56 51.37 131.62 49.81 132.36 49.96C132.36 48.62 132.61 46.08 135.11 46.2C135.59 45.66 135.55 45.51 135.33 45.32C135.16 45.16 136.67 44.49 137.45 44.17C137.74 44.01 138.12 43.53 137.31 42.9C136.5 42.28 138.5 41.81 139.61 41.65C139.83 41.71 140.11 41.93 139.5 42.41C138.89 42.89 139.61 42.94 140.04 42.9C140.17 42.39 140.65 41.43 141.55 41.65C141.65 41.32 141.32 41.17 141.15 41.14C141.03 40.82 141.08 40.08 142.27 39.73C142.27 38.82 142.49 38.02 141.75 39.22C141.15 40.18 140.45 36.92 140.17 35.17L140.17 34.4C139.75 34.19 139.2 33.75 140.41 33.65C140.7 32.44 141.09 30.53 142.43 32.67C143.51 34.39 143.67 31.91 143.61 30.46C144.04 29.86 144.57 28.73 143.23 28.98C142.71 27.87 141.73 26.67 142.67 26.8C143.42 26.9 143.2 27.08 143 27.16C142.96 27.5 143.05 28.17 143.7 28.14C144.36 28.11 145.01 29.6 145.26 30.35L145.46 33.65L146.31 37.21C146.31 37.83 146.31 39.21 146.31 39.73C146.31 40.38 146.64 42.19 147.54 43.08C148.45 43.97 149.19 46.06 152.38 47.17C152.94 47.91 156.57 49.96 156.98 49.96C157.4 49.96 157.58 46.46 155.57 45.32C155.35 44.17 155.37 43.81 155.81 43.35C156.15 43 155.44 42.76 155.05 42.69C154.67 42.1 154.2 40.75 155.32 40.02C156.43 39.29 154.7 38.6 153.69 38.35C153.09 37.9 152.27 36.93 153.69 36.7C152.98 35.76 152.6 34.94 151.44 35.23C150.51 35.46 150.59 34.36 150.75 33.78C150.18 34.39 148.94 35.18 148.52 33.55C148 31.5 147.38 31.33 147.11 31.04C146.84 30.75 147.54 30.35 147.92 30.48C148.3 30.6 148.07 28.76 147.76 28.78C147.45 28.79 149.43 29.28 149.14 28.63C148.85 27.98 147.8 24.91 151.11 25.13C151 24.58 149.9 24.02 150.32 22.59C149.92 21.26 150.37 21.5 149.25 20.56C149.32 19.94 149.57 18.96 149.68 18.55C149.54 18.57 149.25 18.57 149.25 18.44C149.25 18.31 149.15 18.17 149.1 18.13C149.03 17.48 149.12 16.01 150.06 15.39C151.24 14.61 149.39 12.92 148.21 13.72C147.27 14.36 147.3 13.88 147.44 13.56C147.02 13.48 146.21 13.42 146.26 13.72C146.31 14.1 145.91 14.35 145.62 14.12C145.22 14.07 144.19 14.23 145.7 13.65C145.8 12.71 145.95 12.52 144.95 11.2C144.16 10.14 145.08 9.49 145.64 9.3C145.25 8.88 144.82 8.08 146.18 8.23C147.55 8.37 147.86 7.6 147.85 7.19C148.26 7.18 149.04 6.93 148.88 6.01C149.17 4.98 148.59 4.8 148.11 5.56C147.71 6.17 147.66 5.32 147.69 4.82C147.48 4.82 147.04 4.8 146.98 4.73C146.91 4.64 147.36 4.07 146.66 3.13C146.26 2.98 145.42 2.95 146.35 2.31C146.35 2 146.57 1.37 145.37 2.48C144.17 3.58 144.37 3.13 143.81 3.18C143.25 3.24 143.14 4.34 143.14 4.45C143.14 4.56 141.6 5.43 143.49 5.56C144.14 5.89 144.5 6.3 143.3 6.01C142.35 5.78 141.59 5.71 141.33 5.71C141.09 5.73 140.61 5.94 140.62 6.54C140.33 6.67 139.28 6.9 139.17 7.48C138.65 7.48 137.34 7.74 137.29 8.32C136.75 8.44 135.39 8.99 135.31 9.77C134.68 10.13 133.52 10.67 133.72 12.25C133.66 12.45 133.85 12.54 133.21 12.63C132.7 12.71 132.48 13.14 132.43 13.34C131.97 13.49 131.33 13.84 132.43 14.03C132.55 14.16 132.84 14.55 132.98 14.74C134.26 14.79 136.1 15.03 133.21 15.57C133.05 15.81 132.47 16.75 132.34 15.3C132.24 14.14 131.74 14.82 131.51 15.3L130.91 17.62C130.26 17.7 129.05 18.33 129.44 20.25C128.81 20.25 128.75 20.21 128.25 20.5C127.84 20.74 127.08 19.82 126.74 19.33C126.36 19.41 125.47 19.61 125 19.8C124.42 20.03 123.57 21.79 123.54 21.88C123.5 21.97 123.08 22.75 122.78 22.84C122.47 22.93 122.2 23.3 122.01 22.93C121.83 22.57 121.71 22.88 121.56 22.93C121.42 22.99 119.77 23.15 119.73 22.63C119.69 22.1 117.79 22.63 118.14 23.03C117.36 23.03 116.76 23.03 116.6 23.5C116.47 23.87 115.23 24.41 114.62 24.62L113.5 24.78L114.01 26.02C113.76 26.07 113.27 26.24 113.28 26.53C113.3 26.89 114.95 27.4 114.98 27.69C113.95 27.83 113.21 27.85 114.24 28.9C113.28 28.81 112.16 28.32 111.52 29.92C110.67 29.48 109.48 28.63 110.78 31.22C109.8 31.98 109.77 32.6 108.71 31.22C107.87 30.12 107.53 28.98 107.46 28.54C106.84 27.95 105.48 27.08 105.09 28.28C104.84 28.59 104.2 28.27 104.35 27.87C104.49 27.47 101.63 28.43 103.57 29.41C103.73 29.63 103.66 30.17 102.75 29.99C101.97 30.39 100.63 30.7 100.29 29.55C99.64 29.66 98.29 29.74 97.7 29.77C97.7 29.91 97.66 30.15 97.43 30.08C97.14 29.99 97.1 29.08 96.52 30.08C96.06 30.88 95.42 31.31 95.16 31.42C94.45 31.59 93.34 31.66 94.51 30.55C94.73 29.83 95.94 28.32 96.52 27.65C96.82 27.42 97.25 26.78 96.52 26C96.43 25.22 96.39 24.08 94.49 23.91C93.93 23.8 92.28 25.46 93.3 23.12C92.79 22.53 90.87 21.7 90.14 23.04C89.42 24.39 89.87 23.41 89.54 24.66C89 24.73 88.26 24.11 88.11 25.93C87.81 25.93 87.19 26.33 87.24 24.75C86.87 24.44 86.66 24.45 86.61 24.5C86.74 24.64 86.97 24.97 86.81 25.07C86.61 25.2 85.76 24.84 85.5 25.57C85.25 26.29 85.2 25.93 85.07 26.36C84.42 26.36 82.68 26.44 82.22 27.47C81.41 27.16 81.28 27.32 80.94 27.6C80.59 27.87 79.14 27.43 80.54 29.08C80.74 29.43 80.81 29.61 80.29 29.59C79.87 29.58 78.64 29.58 78.08 29.59C77.68 29.33 76.83 29.08 76.57 30.19C76.01 30.19 74.09 30.12 76.08 31.04L76.77 33.25C77.02 33.23 77.48 33.24 77.3 33.53C77.06 33.89 76.73 33.71 76.57 33.75C76.44 33.77 76.07 32.5 75.9 31.86C75.65 31.89 75.13 31.89 75.09 31.67C75.03 31.41 75.5 31.04 74.83 31.04C74.16 31.04 74.09 30.95 73.8 31.26C73.51 31.57 74.22 31.5 73.8 31.77C73.38 32.04 72.73 31.48 72.73 32.11C72.73 32.75 73.51 32.66 72.88 33.09C72.24 33.53 72.19 33.8 72.15 33.25C72.11 32.71 72.88 31.37 72.88 31.26C72.88 31.15 73.31 29.37 73.02 29.23C72.73 29.08 72.62 28.17 72.39 30.08C72.15 31.98 70.77 31.5 71.52 29.95C71.39 29.39 70.14 28.87 71.26 28.16C72.39 27.45 70.21 26.91 70.3 28C69.7 28.16 69 27.98 69.14 29.08C68.75 29.01 67.99 29.08 68.09 29.95C66.74 30.37 64.44 31.51 65.97 32.71C65.08 33.17 63.73 34.17 65.5 34.42C65.3 34.8 64.99 35.72 65.43 36.37L64.58 36.37L63.56 34.05L63.07 34.05C63.31 34.57 63.61 35.64 62.86 35.74C62.1 35.84 62.15 34.48 62.28 33.78L63.07 33.58C63.28 33.15 63.5 32.28 62.67 32.2C62.19 31.67 61.2 30.67 61.08 30.91L60.84 29.41C60.63 29.12 60.19 28.87 60.12 30.21C60.34 30.57 60.7 31.39 60.32 31.75C60.53 32.12 60.7 32.83 59.68 32.71C58.92 33.14 57.75 33.68 59.21 32.33C59.39 32.14 59.5 31.75 58.45 31.75C58.28 31.45 57.79 31.01 57.17 31.66C57.12 31.28 56.69 30.64 55.39 31.13C54.94 31.06 54.28 30.81 55.23 30.39C55.66 30.1 56.12 29.45 54.56 29.19L53.02 28.67L50.95 28.78C50.69 28.65 49.96 28.55 49.12 29.19C48.53 28.99 47.5 28.41 48.14 27.76C48.94 26.94 48.16 26.67 49.77 27.27C51.06 27.75 50.31 25.63 49.77 24.51C49.67 24.13 49.4 23.7 49.12 25.04C48.87 25.49 48.2 26.4 47.49 26.42L47.22 27.49C46.8 28.01 45.84 28.59 45.41 26.78C44.38 26.4 42.2 25.96 41.71 27.27C41.52 27.69 41.03 28.22 40.55 27.03C40.07 25.84 40.25 25.21 40.41 25.04C40.12 24.7 39.46 24.28 39.17 25.29C39.02 25.56 38.83 26.19 39.32 26.56ZM5.49 47.62C5.06 47.7 4.46 48.08 5.58 48.94C5.86 49.04 6.39 49.43 6.2 50.23C6.38 50.53 7.02 50.99 8.15 50.48C8.29 50.44 8.57 50.19 8.55 49.52L11.16 50.68L9.93 49.16L10.38 48.83L7.94 47.47L6.2 46.71L5.49 47.62ZM12.21 23.17C12.52 23.53 13.72 23.26 13.77 23.04C13.82 22.83 13.88 22.42 13.77 21.52C13.66 20.61 13.3 20.74 12.96 21L12.21 19.53C11.87 19.66 11.2 19.96 11.2 20.1C11.2 20.25 11.2 20.38 11.2 20.43C11.43 21.23 11.97 22.88 12.21 23.17ZM39.84 18.06C39.45 17.95 38.97 16.69 40.35 16.8C41.73 16.91 42.29 14.99 42.27 14.86C42.25 14.74 43.18 14.25 44.43 14.86C45.43 15.36 46 15.33 46.17 15.26C46.43 15.52 46.9 16.14 46.66 16.62C46.41 17.1 46.47 16.88 46.53 16.71C46.09 16.77 45.4 17.05 46.17 17.73C47.13 18.58 46.78 21.63 46.66 21.63C46.56 21.63 46.72 22.42 46.82 22.83C46.8 23.65 46.49 25.29 45.41 25.29C44.05 25.29 43.72 25.93 43 25.29C42.27 24.66 42.02 23.8 42.15 23.19C42.25 22.69 41.79 22.48 41.55 22.42C41.49 22.21 41.42 21.65 41.55 21.07C41.71 20.34 40.66 20.96 41.31 19.74C41.83 18.77 41.12 18.9 40.7 19.09C40.54 18.78 40.16 18.14 39.84 18.06ZM53.22 26.02C53.54 26 54.18 26.09 54.18 26.62C54.18 27.27 54.1 27.49 53.87 27.49C53.63 27.49 52.38 27.27 52.44 27.27C52.48 27.27 52.32 26.94 52.24 26.78L53.22 26.02ZM58.45 25.78C58.23 26.34 58.08 27.41 59.21 27.27C59.49 28.01 60.1 29.05 60.32 27.27C60.54 25.48 62.1 24.05 62.86 23.55L66.39 21.88L69.58 21.88L72.73 21.34C73.47 20.61 74.26 19.36 71.52 20.14C70.87 20.35 69.58 20.57 69.58 19.76C68.24 19.39 65.49 19 65.14 20.39C64.12 20.48 62.09 20.94 62.06 22.1L60.32 22.46C60.26 22.66 60.06 23.14 59.68 23.55C59.21 24.06 58.94 21.7 58.05 24.06C58.75 24.42 59.81 25.27 58.45 25.78ZM68.6 8.19C69.58 8.42 70.14 8.32 69.58 7.92C69.13 7.6 68.44 7.52 68.15 7.52C67.97 7.66 67.82 8 68.6 8.19ZM69.9 8.82C70.61 9.04 70.81 8.81 70.36 9.21C69.99 9.52 69.31 9.47 69.02 9.41L68.78 9.21C68.92 9.01 69.34 8.65 69.9 8.82ZM73.04 12.23C73.38 13.3 73.53 12.6 73.65 12.42C73.78 12.23 74.56 11.4 74.2 11.11C73.91 10.88 73.94 11.01 74 11.11C73.56 11.13 72.76 11.38 73.04 12.23ZM74.45 12.23C74.45 12.38 75.07 12.3 75.38 12.23C75.55 12.09 75.73 11.76 75.09 11.6C74.87 11.75 74.45 12.09 74.45 12.23ZM72.15 10.98C72.69 11.48 72.57 10.74 72.44 10.31C72.44 10.12 72.33 9.76 71.88 9.88C71.75 10.04 71.61 10.49 72.15 10.98ZM73.17 10.31C73.5 10.19 73.52 9.88 73.49 9.73L72.84 9.41C72.81 9.76 72.83 10.43 73.17 10.31ZM70.03 10.85C70.19 11.11 70.86 10.91 70.81 10.69C70.77 10.52 70.38 10.48 70.19 10.48C70.08 10.52 69.9 10.65 70.03 10.85ZM71.41 11.71C71.41 11.91 71.75 12.21 72.15 12.16C72.55 12.11 72.66 11.55 71.99 11.71C71.79 11.64 71.41 11.55 71.41 11.71ZM89.91 21.43C90.48 21.4 91.63 21.25 91.63 20.89C91.63 20.43 92.12 19.49 90.32 19.36C90.46 18.67 90.5 17.71 89.54 19.36C89.38 20.05 88.98 21.51 88.68 21.92C89.01 21.92 89.72 21.82 89.91 21.43ZM88.35 20.1C88.84 20.25 89.6 19.8 88.68 19.23C89.39 18.24 90.33 16.64 88.35 18.18C88.02 18.25 87.52 18.16 88.11 17.3C88.71 16.42 87.64 17.19 87.03 17.67C86.99 17.41 87.04 16.83 87.52 16.62C88.11 16.37 88.69 14.23 87.03 15.25C86.8 15.12 86.29 15.11 86.12 16.08C85.46 16.78 84.5 18.15 85.9 18L86.61 19.36C87.03 19.56 87.96 19.99 88.35 20.1ZM113.05 20.05C112.47 20.23 110.98 19.74 111.67 18.96C112.22 18.34 112.5 18.64 112.57 18.87C112.92 19.21 113.51 19.91 113.05 20.05ZM112.97 24.55C113.12 24.98 113.59 24.38 113.81 24.02C113.96 23.92 114.33 23.73 114.55 23.77C114.82 23.82 115.23 23.06 114.36 22.9C113.5 22.73 113.72 22.23 113.28 22.63C113.12 23.08 112.83 24.11 112.97 24.55ZM108.88 21.32C109.63 23.8 111.05 22.35 111.67 21.32C112.4 21.05 113.44 20.51 111.76 20.49C111.41 20.3 110.77 19.76 110.93 19.12C111.12 18.33 109.35 18.92 110.64 20.23L110.25 20.23C109.48 19.56 108.12 18.84 108.88 21.32ZM133.9 5.47C134.55 6.78 133.81 7.03 133.36 6.99C133.6 7.45 133.77 8.21 132.47 7.59L132.38 5.6L132.94 5.31C132.99 4.82 133.25 4.16 133.9 5.47ZM138.56 56.32C138.83 56.28 139.39 56.36 139.48 57.1L141.66 59.42L144.57 62.16C145.55 62.91 147.64 64.39 148.18 64.27C148.85 64.12 147.31 65.12 146.46 64.27C145.78 63.58 145.74 64.76 145.8 65.43C145.99 66.3 146.66 68.12 147.92 68.42C148.06 68.74 148.51 69.27 149.25 68.89C149.83 69.26 150.81 70.04 150.12 70.29C149.42 70.53 149.25 70.16 149.25 69.94L148.09 69.85L148.65 71.4C148.34 71.5 147.65 71.56 147.44 70.92C147.16 70.12 146.29 70.25 146.76 69.69C147.14 69.24 146.84 69.5 146.64 69.69C146.23 68.69 145.3 66.85 144.86 67.46L142.27 62.71C141.5 62.26 139.87 60.94 139.48 59.3C138.92 59.21 138.08 58.88 139.19 58.3L138.99 57.25C138.37 57.13 137.41 56.77 138.56 56.32ZM156.73 52.35L157.2 52.35C157.06 52.15 156.85 51.62 157.2 51.16C157.12 50.58 156.85 49.71 156.44 50.83C156.59 51.15 156.85 51.9 156.73 52.35ZM157.78 54.31C158.11 54.09 157.64 53.58 157.36 53.35L156.98 53.78C157.11 54.05 157.45 54.53 157.78 54.31ZM157.78 55.49C158.09 55.2 157.63 55 157.36 54.93L157.2 55.13C157.27 55.37 157.48 55.78 157.78 55.49ZM158.85 59.39C159.15 58.98 158.49 59.1 158.13 59.21C158.24 59.44 158.55 59.8 158.85 59.39ZM158.6 60.97C159.13 61.24 158.99 60.44 158.85 60.01C158.68 59.87 158.32 59.71 158.23 60.22C158.13 60.36 158.06 60.69 158.6 60.97ZM157.64 63.98C157.61 63.55 157.66 62.81 158.13 63.27C158.2 63.7 158.29 64.64 158 64.98C157.95 65.37 157.8 66.01 157.64 65.39C157.47 65.23 157.24 64.73 157.64 63.98ZM156.57 67.75C156.48 67.41 156.43 66.57 156.97 65.97C157.37 65.28 157.13 66.76 156.97 67.59C157.01 67.73 156.99 68.06 156.57 68.3L156.69 69.69L156.57 69.69C156.28 69.46 155.87 68.75 156.57 67.75ZM155.53 72.19C155.13 72.03 155.17 71.26 155.24 70.89C155.25 70.4 155.39 69.51 155.92 69.85C156.57 70.29 156.04 70.82 155.95 70.82C155.86 70.82 155.44 70.92 155.68 71.3C155.8 71.67 155.94 72.35 155.53 72.19Z" stroke="#FFFFFF" stroke-opacity="0.400000" stroke-width="3.707460"/>
	<path id="Vector" d="M139.22 20.85C140.55 20.85 141.63 19.78 141.63 18.44C141.63 17.11 140.55 16.03 139.22 16.03C137.89 16.03 136.81 17.11 136.81 18.44C136.81 18.91 136.95 19.35 137.18 19.72C135.07 22.21 132.37 26.61 131.26 32.39C129.9 32.42 128.76 33.35 128.43 34.62C122.14 34.5 114.01 35.47 105.71 38.4C105.27 37.85 104.6 37.5 103.85 37.5C103.35 37.5 102.88 37.66 102.5 37.93C102.4 37.85 102.31 37.77 102.22 37.69C95.57 32.15 88.19 29.74 82.76 29.14C82.64 28.09 81.74 27.28 80.66 27.28C79.49 27.28 78.54 28.23 78.54 29.4C78.54 30.02 78.81 30.58 79.24 30.98C78.16 34.49 76.83 39.64 75.89 45.32C71.14 46.1 66.84 47.33 63.04 48.8C53.38 40.19 44.74 36.38 37.44 35.43C36.77 35.35 36.1 35.28 35.45 35.25C35.16 34.38 34.47 33.7 33.61 33.41C35.49 31.35 37.69 29.54 40.27 28.18L39.87 27.42C37.09 28.89 34.73 30.86 32.75 33.1C31.92 30.31 30.25 28.16 28.7 26.73C29.16 26.21 29.44 25.53 29.44 24.79C29.44 23.17 28.14 21.87 26.52 21.87C24.91 21.87 23.61 23.17 23.61 24.79C23.61 26.4 24.91 27.71 26.52 27.71C27.08 27.71 27.6 27.55 28.04 27.28C29.52 28.63 31.14 30.69 31.93 33.36C30.91 33.63 30.11 34.44 29.85 35.47C24.68 36.24 20.55 38.48 17.66 41.05C17.3 40.76 16.84 40.59 16.34 40.59C15.14 40.59 14.18 41.56 14.18 42.75C14.18 43.94 15.14 44.91 16.34 44.91C17.53 44.91 18.49 43.94 18.49 42.75C18.49 42.37 18.39 42.01 18.22 41.7C20.95 39.26 24.86 37.12 29.77 36.35C29.78 36.55 29.81 36.74 29.86 36.92C28.96 38.3 28.18 39.73 27.49 41.16C25.36 45.62 24.18 50.12 23.66 53.46C22.86 53.59 22.21 54.17 21.97 54.93C18.82 54.19 15.9 54.75 13.46 55.79C11.7 56.55 10.18 57.57 9.01 58.57C8.76 58.46 8.48 58.4 8.18 58.4C6.99 58.4 6.03 59.37 6.03 60.56C6.03 61.75 6.99 62.72 8.18 62.72C9.38 62.72 10.34 61.75 10.34 60.56C10.34 59.98 10.11 59.46 9.75 59.07C10.83 58.17 12.21 57.26 13.8 56.58C16.13 55.58 18.9 55.07 21.87 55.78C21.98 56.89 22.9 57.75 24.02 57.75C25.21 57.75 26.18 56.78 26.18 55.58C26.18 54.57 25.47 53.71 24.52 53.49C25.03 50.24 26.19 45.86 28.26 41.53C28.86 40.29 29.53 39.05 30.29 37.84C30.81 38.6 31.69 39.1 32.68 39.1C33.63 39.1 34.48 38.65 35.01 37.94C37.34 39.18 40.05 41.11 42.34 43.75C45.09 46.92 47.21 51.12 47.27 56.35C46.45 56.66 45.86 57.45 45.86 58.38C45.86 59.57 46.83 60.54 48.02 60.54C49.03 60.54 49.88 59.84 50.11 58.89C51.42 59.07 52.92 59.52 54.33 60.43C56.03 61.53 57.61 63.3 58.55 66.08C57.54 66.56 56.84 67.59 56.84 68.79C56.84 70.44 58.17 71.78 59.83 71.78C61.48 71.78 62.82 70.44 62.82 68.79C62.82 68.3 62.7 67.84 62.5 67.44C65.14 65.95 68.57 64.49 72.65 63.42C72.83 64.14 73.27 64.76 73.87 65.17C71.38 69.77 69.33 75.01 67.87 80.98L68.7 81.19C70.15 75.28 72.18 70.09 74.64 65.55C74.93 65.64 75.23 65.69 75.55 65.69C77.2 65.69 78.54 64.35 78.54 62.69C78.54 62.54 78.53 62.39 78.51 62.25C83.71 61.52 89.65 61.48 96.12 62.64L96.12 62.66L96.12 62.66C96.12 62.68 96.12 62.7 96.12 62.71C96.12 63.46 96.71 64.07 97.44 64.09C98 69.16 98.09 74.79 97.51 81L97.5 81C96.73 81 96.12 81.61 96.12 82.37C96.12 83.14 96.73 83.75 97.5 83.75C98.26 83.75 98.87 83.14 98.87 82.37C98.87 81.93 98.66 81.54 98.34 81.29C98.95 74.88 98.86 69.08 98.27 63.85C98.51 63.69 98.69 63.46 98.79 63.19C104.11 64.39 109.75 66.42 115.62 69.54C115.54 69.77 115.5 70.02 115.5 70.28C115.5 71.59 116.56 72.65 117.88 72.65C119.19 72.65 120.25 71.59 120.25 70.28C120.25 68.96 119.19 67.9 117.88 67.9C117.82 67.9 117.77 67.9 117.72 67.91C116.64 60.33 114.46 54.14 111.62 49.09C116.97 50.77 122.55 53.08 128.34 56.12C128.34 56.13 128.33 56.15 128.33 56.16C128.33 56.17 128.33 56.18 128.33 56.19L128.33 56.21C128.33 57.04 129.01 57.71 129.84 57.71C130.67 57.71 131.34 57.04 131.34 56.21C131.34 55.37 130.67 54.7 129.84 54.7C129.34 54.7 128.91 54.94 128.63 55.31C122.52 52.1 116.62 49.71 110.98 48C109.43 45.4 107.7 43.13 105.86 41.15C106.09 40.78 106.23 40.35 106.23 39.88C106.23 39.63 106.19 39.39 106.11 39.16C114.24 36.32 122.18 35.37 128.34 35.48C128.38 37.08 129.7 38.37 131.32 38.37C132.97 38.37 134.31 37.03 134.31 35.38C134.31 34 133.38 32.84 132.11 32.5C133.18 26.96 135.76 22.75 137.76 20.36C138.17 20.67 138.67 20.85 139.22 20.85ZM75.74 46.21C71.34 46.96 67.33 48.09 63.75 49.45C67.04 52.44 70.44 55.99 73.94 60.17C74.18 60.02 74.43 59.9 74.71 59.82C74.6 55.35 75.05 50.64 75.74 46.21ZM75.56 59.7C75.46 55.23 75.92 50.5 76.63 46.06C81.23 45.34 86.25 45.04 91.63 45.34C91.63 45.38 91.63 45.41 91.64 45.45C86.24 49.12 81.18 53.9 76.98 60.06C76.56 59.83 76.07 59.7 75.56 59.7ZM76.78 45.17C77.69 39.76 78.95 34.84 80 31.41C80.21 31.48 80.43 31.52 80.66 31.52C81.27 31.52 81.82 31.26 82.21 30.84C85.25 33.4 88.96 37.84 92.01 44.27C91.95 44.34 91.89 44.42 91.83 44.5C86.44 44.18 81.41 44.47 76.78 45.17ZM54.79 59.71C53.24 58.71 51.59 58.21 50.14 58.03C50.1 57.73 49.98 57.44 49.82 57.19C52.95 54.66 57.36 51.97 62.86 49.79C66.21 52.82 69.69 56.44 73.29 60.73C72.86 61.23 72.59 61.86 72.56 62.56C68.32 63.66 64.75 65.18 62 66.73C61.46 66.16 60.68 65.79 59.83 65.79C59.67 65.79 59.52 65.8 59.37 65.83C58.37 62.86 56.67 60.92 54.79 59.71ZM48.12 56.23C48.52 56.25 48.9 56.37 49.21 56.58C52.34 54.04 56.71 51.35 62.15 49.16C52.72 40.83 44.34 37.19 37.33 36.28C36.75 36.21 36.17 36.15 35.6 36.11C35.6 36.14 35.6 36.16 35.6 36.18C35.6 36.54 35.54 36.88 35.42 37.19C37.83 38.48 40.63 40.47 42.98 43.18C45.83 46.46 48.03 50.81 48.12 56.23ZM101.48 39.88C101.48 39.94 101.48 40 101.48 40.05C99.98 40.7 98.48 41.42 96.99 42.22C95.9 42.8 94.82 43.42 93.75 44.08C93.53 43.94 93.28 43.85 93 43.85C92.92 43.85 92.85 43.86 92.77 43.87C89.64 37.29 85.82 32.73 82.66 30.1C82.67 30.07 82.68 30.03 82.69 30C87.96 30.58 95.17 32.93 101.67 38.35C101.74 38.41 101.82 38.48 101.89 38.54C101.63 38.92 101.48 39.38 101.48 39.88ZM77.66 60.58C81.79 54.52 86.74 49.82 92.03 46.21C92.28 46.46 92.62 46.61 93 46.61C93.01 46.61 93.01 46.61 93.02 46.61C93.02 46.61 93.03 46.61 93.04 46.61L93.05 46.61C94.8 50.8 96.25 55.72 97.09 61.4C96.83 61.48 96.61 61.63 96.44 61.83C89.76 60.61 83.62 60.65 78.25 61.42C78.11 61.1 77.91 60.82 77.66 60.58ZM97.39 42.97C96.38 43.51 95.38 44.08 94.39 44.69C99.25 45.14 104.38 46.08 109.75 47.63C108.37 45.44 106.86 43.5 105.28 41.78C104.88 42.08 104.39 42.26 103.85 42.26C102.9 42.26 102.08 41.7 101.7 40.89C100.26 41.52 98.82 42.21 97.39 42.97ZM116.03 68.78C116.26 68.5 116.55 68.27 116.89 68.12C115.77 60.21 113.43 53.83 110.42 48.72C104.78 47.03 99.41 46.02 94.34 45.55C94.27 45.85 94.1 46.12 93.86 46.31C95.64 50.59 97.11 55.62 97.96 61.42C98.37 61.56 98.69 61.9 98.81 62.32C104.25 63.53 110.03 65.6 116.03 68.78Z" fill="#FFFFFF" fill-opacity="0.400000" fill-rule="evenodd"/>
	<path id="Vector" d="M15.97 110.87L17.28 110.87L17.28 116.11L15.29 116.11L14.98 113.1L7.12 113.1L7.12 100.47L10.03 100.47L10.03 110.82L13.05 110.82L13.05 100.47L15.97 100.47L15.97 110.87ZM27.35 113.1L24.56 113.1L24.56 108.29C24.56 106.65 24.68 105 24.93 103.35L21.9 113.1L18.44 113.1L18.44 100.47L21.21 100.47L21.21 105.35C21.21 106.34 21.18 107.19 21.12 107.93C21.06 108.65 20.97 109.42 20.87 110.22L23.92 100.47L27.35 100.47L27.35 113.1ZM42.05 106.7C42.05 108.54 41.58 109.92 40.63 110.84C39.7 111.75 38.41 112.24 36.77 112.32L36.77 113.81L33.93 113.81L33.93 112.32C32.29 112.23 31 111.74 30.05 110.84C29.12 109.93 28.65 108.58 28.65 106.79C28.65 104.96 29.12 103.59 30.05 102.68C31 101.75 32.29 101.25 33.93 101.18L33.93 99.78L36.77 99.78L36.77 101.18C38.41 101.27 39.7 101.77 40.63 102.68C41.58 103.57 42.05 104.92 42.05 106.7ZM36.63 110.51C37.51 110.43 38.15 110.09 38.54 109.51C38.93 108.91 39.12 107.98 39.12 106.7C39.12 105.45 38.92 104.54 38.52 103.97C38.12 103.39 37.49 103.06 36.63 102.98L36.63 110.51ZM31.6 106.79C31.6 108.05 31.8 108.96 32.18 109.55C32.59 110.12 33.22 110.44 34.08 110.51L34.08 102.98C33.19 103.07 32.56 103.4 32.17 103.99C31.79 104.57 31.6 105.51 31.6 106.79ZM46.96 100.47C48.58 100.47 49.81 100.82 50.68 101.51C51.55 102.2 51.99 103.22 51.99 104.57C51.99 105.99 51.56 107.07 50.71 107.8C49.88 108.52 48.72 108.87 47.24 108.87L46.27 108.87L46.27 113.1L43.36 113.1L43.36 100.47L46.96 100.47ZM47 106.76C47.68 106.76 48.18 106.59 48.51 106.27C48.84 105.93 49 105.37 49 104.59C49 103.9 48.84 103.39 48.51 103.06C48.19 102.72 47.69 102.55 47 102.55L46.27 102.55L46.27 106.76L47 106.76ZM58 100.16C59.66 100.16 60.94 100.73 61.84 101.85C62.74 102.97 63.18 104.61 63.18 106.78C63.18 108.91 62.73 110.55 61.82 111.69C60.92 112.84 59.65 113.41 58 113.41C56.34 113.41 55.06 112.85 54.15 111.71C53.25 110.59 52.81 108.94 52.81 106.78C52.81 104.65 53.25 103.02 54.15 101.87C55.06 100.73 56.34 100.16 58 100.16ZM58 102.29C57.25 102.29 56.71 102.64 56.36 103.33C56.02 104.02 55.85 105.17 55.85 106.78C55.85 108.41 56.02 109.57 56.37 110.26C56.73 110.94 57.27 111.28 58 111.28C58.74 111.28 59.28 110.94 59.62 110.26C59.97 109.57 60.14 108.41 60.14 106.78C60.14 105.17 59.97 104.02 59.62 103.33C59.28 102.64 58.74 102.29 58 102.29ZM70.87 106.41C71.67 106.58 72.31 106.9 72.8 107.36C73.29 107.82 73.54 108.51 73.54 109.42C73.54 111.87 71.85 113.1 68.46 113.1L64.73 113.1L64.73 100.47L68.03 100.47C69.64 100.47 70.88 100.74 71.76 101.27C72.63 101.79 73.07 102.6 73.07 103.69C73.07 104.43 72.86 105.02 72.45 105.48C72.04 105.93 71.51 106.24 70.87 106.41ZM67.64 102.53L67.64 105.53L68.44 105.53C69.56 105.53 70.12 105.02 70.12 103.99C70.12 103.49 69.97 103.12 69.68 102.89C69.39 102.65 68.93 102.53 68.3 102.53L67.64 102.53ZM68.48 110.99C69.16 110.99 69.68 110.86 70.03 110.6C70.38 110.35 70.56 109.91 70.56 109.27C70.56 108.08 69.91 107.49 68.63 107.49L67.64 107.49L67.64 110.99L68.48 110.99ZM80.89 113.1L80.33 110.35L77.13 110.35L76.56 113.1L73.61 113.1L77.02 100.47L80.51 100.47L83.9 113.1L80.89 113.1ZM77.56 108.25L79.89 108.25L78.73 102.6L77.56 108.25ZM92.82 100.47L92.82 113.1L89.91 113.1L89.91 108.53L88.69 108.53L86.85 113.1L83.73 113.1L86.17 108C85.52 107.68 85.02 107.24 84.68 106.68C84.35 106.11 84.19 105.39 84.19 104.52C84.19 101.82 85.8 100.47 89.02 100.47L92.82 100.47ZM89.91 106.48L89.91 102.53L89.11 102.53C88.46 102.53 87.98 102.7 87.67 103.04C87.35 103.37 87.19 103.88 87.19 104.59C87.19 105.22 87.35 105.69 87.65 106.01C87.95 106.33 88.37 106.48 88.89 106.48L89.91 106.48ZM102.19 100.47C103.81 100.47 105.05 100.82 105.91 101.51C106.78 102.2 107.22 103.22 107.22 104.57C107.22 105.99 106.79 107.07 105.94 107.8C105.11 108.52 103.95 108.87 102.47 108.87L101.5 108.87L101.5 113.1L98.59 113.1L98.59 100.47L102.19 100.47ZM102.23 106.76C102.91 106.76 103.41 106.59 103.74 106.27C104.07 105.93 104.23 105.37 104.23 104.59C104.23 103.9 104.07 103.39 103.74 103.06C103.43 102.72 102.92 102.55 102.23 102.55L101.5 102.55L101.5 106.76L102.23 106.76ZM113.23 100.16C114.89 100.16 116.17 100.73 117.07 101.85C117.97 102.97 118.42 104.61 118.42 106.78C118.42 108.91 117.96 110.55 117.05 111.69C116.15 112.84 114.88 113.41 113.23 113.41C111.58 113.41 110.29 112.85 109.38 111.71C108.49 110.59 108.04 108.94 108.04 106.78C108.04 104.65 108.49 103.02 109.38 101.87C110.29 100.73 111.58 100.16 113.23 100.16ZM113.23 102.29C112.49 102.29 111.94 102.64 111.59 103.33C111.25 104.02 111.08 105.17 111.08 106.78C111.08 108.41 111.25 109.57 111.61 110.26C111.96 110.94 112.5 111.28 113.23 111.28C113.97 111.28 114.51 110.94 114.85 110.26C115.2 109.57 115.37 108.41 115.37 106.78C115.37 105.17 115.2 104.02 114.85 103.33C114.51 102.64 113.97 102.29 113.23 102.29ZM124.73 100.16C125.46 100.16 126.11 100.28 126.68 100.51C127.25 100.74 127.79 101.08 128.3 101.54L126.92 103.17C126.59 102.89 126.26 102.68 125.93 102.55C125.62 102.4 125.28 102.33 124.91 102.33C123.34 102.33 122.55 103.8 122.55 106.76C122.55 109.69 123.34 111.15 124.93 111.15C125.35 111.15 125.71 111.07 126.03 110.91C126.35 110.74 126.72 110.5 127.12 110.18L128.43 111.79C127.98 112.26 127.44 112.65 126.81 112.95C126.19 113.26 125.5 113.41 124.75 113.41C123.69 113.41 122.77 113.16 121.98 112.66C121.21 112.16 120.6 111.42 120.16 110.42C119.72 109.43 119.51 108.2 119.51 106.76C119.51 105.35 119.73 104.15 120.18 103.17C120.63 102.17 121.24 101.43 122.02 100.93C122.81 100.41 123.71 100.16 124.73 100.16ZM133.92 100.16C134.65 100.16 135.3 100.28 135.87 100.51C136.44 100.74 136.98 101.08 137.49 101.54L136.11 103.17C135.78 102.89 135.46 102.68 135.13 102.55C134.81 102.4 134.47 102.33 134.11 102.33C132.53 102.33 131.74 103.8 131.74 106.76C131.74 109.69 132.53 111.15 134.13 111.15C134.54 111.15 134.9 111.07 135.22 110.91C135.55 110.74 135.91 110.5 136.31 110.18L137.62 111.79C137.17 112.26 136.63 112.65 136 112.95C135.38 113.26 134.7 113.41 133.94 113.41C132.89 113.41 131.97 113.16 131.18 112.66C130.4 112.16 129.79 111.42 129.36 110.42C128.92 109.43 128.7 108.2 128.7 106.76C128.7 105.35 128.92 104.15 129.37 103.17C129.82 102.17 130.44 101.43 131.21 100.93C132 100.41 132.91 100.16 133.92 100.16ZM147.61 113.1L144.82 113.1L144.82 108.29C144.82 106.65 144.94 105 145.19 103.35L142.16 113.1L138.7 113.1L138.7 100.47L141.47 100.47L141.47 105.35C141.47 106.34 141.44 107.19 141.38 107.93C141.32 108.65 141.23 109.42 141.13 110.22L144.18 100.47L147.61 100.47L147.61 113.1ZM157.73 100.47L157.73 113.1L154.81 113.1L154.81 108.53L153.59 108.53L151.75 113.1L148.64 113.1L151.08 108C150.42 107.68 149.92 107.24 149.59 106.68C149.26 106.11 149.09 105.39 149.09 104.52C149.09 101.82 150.7 100.47 153.92 100.47L157.73 100.47ZM154.81 106.48L154.81 102.53L154.01 102.53C153.37 102.53 152.89 102.7 152.57 103.04C152.26 103.37 152.1 103.88 152.1 104.59C152.1 105.22 152.25 105.69 152.55 106.01C152.86 106.33 153.27 106.48 153.79 106.48L154.81 106.48Z" fill="#FFFFFF" fill-opacity="1.000000" fill-rule="evenodd"/>
</svg>
