<svg width="267.000000" height="66.000000" viewBox="0 0 267 66" fill="none" xmlns="http://www.w3.org/2000/svg" xmlns:xlink="http://www.w3.org/1999/xlink">
	<desc>
			Created with Pixso.
	</desc>
	<defs>
		<clipPath id="clip28_10514">
			<rect id="variant=28" rx="0.000000" width="266.000000" height="65.000000" transform="translate(0.500000 0.500000)" fill="white" fill-opacity="0"/>
		</clipPath>
	</defs>
	<g clip-path="url(#clip28_10514)">
		<mask id="mask28_10511" mask-type="alpha" maskUnits="userSpaceOnUse" x="0.000000" y="0.000000" width="267.000000" height="66.000000">
			<path id="Vector" d="M0 0L267 0L267 66L0 66L0 0Z" fill="#000000" fill-opacity="1.000000" fill-rule="evenodd"/>
		</mask>
		<g mask="url(#mask28_10511)">
			<path id="Vector" d="M262.18 39.77C262.18 36.87 261.35 34.89 259.7 33.86C258.86 33.33 257.94 33.07 256.96 33.07C255.09 33.07 253.84 33.78 253.21 35.2C252.93 35.85 252.79 36.89 252.79 38.28L252.79 44.58C254.15 45.96 255.59 46.65 257.12 46.65C258.13 46.65 259.04 46.33 259.86 45.71C260.63 45.1 261.21 44.32 261.58 43.37C261.98 42.36 262.18 41.16 262.18 39.77ZM267 37.36C267 41.67 265.38 44.8 262.16 46.76C260.36 47.85 258.26 48.4 255.86 48.4C254.91 48.4 253.89 48.28 252.79 48.05L252.79 53.12C252.79 54.53 252.83 55.42 252.92 55.78C252.98 56.06 253.14 56.25 253.42 56.34C253.65 56.43 254.47 56.5 255.86 56.56L256.04 56.75L256.04 57.89L255.84 58.06L254.99 58.02C253.57 57.96 252.04 57.92 250.4 57.92C249.13 57.92 247.5 57.97 245.5 58.06L245.32 57.87L245.32 56.75L245.5 56.56C246.61 56.51 247.29 56.44 247.55 56.36C247.77 56.28 247.92 56.1 248.01 55.8C248.09 55.55 248.12 54.65 248.12 53.12L248.12 36.38C248.12 34.85 248.08 33.94 248 33.66C247.92 33.39 247.77 33.21 247.55 33.14C247.29 33.05 246.58 32.98 245.44 32.94L245.23 32.75L245.23 31.72L245.4 31.54C247.71 31.29 250.05 30.78 252.44 29.99L252.83 30.23L252.81 33.36C254.74 31.26 257.02 30.21 259.62 30.21C260.92 30.21 262.13 30.49 263.25 31.04C264.46 31.63 265.37 32.45 266 33.51C266.66 34.62 267 35.91 267 37.36ZM238.03 37.86C238 36.61 237.93 35.68 237.82 35.09C237.6 34.03 237.17 33.24 236.54 32.71C235.98 32.25 235.21 32.01 234.24 32.01C231.69 32.01 230.41 33.66 230.41 36.95C230.41 37.22 230.42 37.58 230.43 38C231.05 38.04 231.84 38.06 232.82 38.06C234.82 38.06 236.56 37.99 238.03 37.86ZM242.97 38.85L242.71 39.15C241.8 39.51 239.66 39.68 236.31 39.68C234.21 39.68 232.32 39.66 230.6 39.63C230.71 41.58 231.25 43.14 232.21 44.3C233.28 45.6 234.77 46.24 236.67 46.24C238.55 46.24 240.22 45.75 241.67 44.76L241.99 45.41L241.25 46.98C239.02 48.19 236.82 48.8 234.62 48.8C230.82 48.8 228.24 47.42 226.85 44.66C226.14 43.22 225.78 41.61 225.78 39.85C225.78 37.08 226.61 34.85 228.28 33.14C230.15 31.23 232.47 30.28 235.25 30.28C237.78 30.28 239.7 30.91 241.01 32.18C242.32 33.45 242.97 35.48 242.97 38.26L242.97 38.85ZM217.65 42.74C217.65 40.34 216.35 39.15 213.75 39.15C213.41 39.15 213.03 39.16 212.61 39.19L212.61 44.68C212.61 45.32 212.63 45.94 212.67 46.5C213.15 46.57 213.57 46.59 213.95 46.59C215.57 46.59 216.66 45.97 217.22 44.71C217.51 44.08 217.65 43.43 217.65 42.74ZM217.12 34.8C217.12 33.01 216.16 32.13 214.26 32.13C213.73 32.13 213.2 32.16 212.67 32.22C212.63 33.2 212.61 34 212.61 34.63L212.61 37.82C212.78 37.85 213.01 37.86 213.3 37.86C215.84 37.86 217.12 36.84 217.12 34.8ZM222.62 42.46C222.62 44.07 222 45.41 220.76 46.46C219.49 47.56 217.85 48.1 215.86 48.1C215.62 48.1 214.74 48.08 213.21 48.05C212.7 48.03 211.75 48.03 210.37 48.03C208.46 48.03 207.26 48.05 206.8 48.1L206.66 47.97L206.66 47.18L206.74 47.03C207.4 46.63 207.74 46.36 207.78 46.24C207.86 45.96 207.91 44.58 207.91 42.1L207.91 36.53C207.91 34.08 207.82 32.75 207.65 32.51C207.54 32.37 207.39 32.27 207.2 32.23C206.94 32.17 206.34 32.12 205.39 32.05L205.22 31.89L205.22 30.76L205.35 30.58C207.43 30.64 208.72 30.67 209.24 30.67C212.25 30.67 214.3 30.65 215.39 30.61C216.11 30.59 216.62 30.58 216.93 30.58C219.24 30.58 220.76 31.11 221.48 32.17C221.86 32.7 222.04 33.33 222.04 34.04C222.04 35.61 221.33 36.77 219.91 37.51C219.3 37.83 218.51 38.1 217.52 38.33C220.92 38.47 222.62 39.85 222.62 42.46ZM203.59 47.97L203.41 48.16C202.23 48.07 200.54 48.03 198.35 48.03C196.29 48.03 194.6 48.07 193.29 48.16L193.11 47.97L193.11 46.85L193.25 46.67C194.43 46.61 195.14 46.55 195.39 46.44C195.65 46.34 195.8 46.16 195.86 45.89C195.94 45.54 195.98 44.65 195.98 43.22L195.98 39.05L187.47 39.05L187.47 43.22C187.47 44.65 187.52 45.54 187.61 45.89C187.66 46.16 187.83 46.34 188.09 46.44C188.35 46.55 189.05 46.61 190.2 46.67L190.38 46.85L190.38 47.97L190.2 48.16C189.03 48.07 187.35 48.03 185.14 48.03C182.91 48.03 181.23 48.07 180.06 48.16L179.88 47.97L179.88 46.85L180.08 46.67C181.16 46.61 181.84 46.55 182.14 46.44C182.37 46.37 182.53 46.19 182.62 45.89C182.69 45.63 182.73 44.75 182.73 43.22L182.73 37.1C182.73 34.27 182.64 32.73 182.45 32.51C182.34 32.38 182.19 32.28 181.99 32.23C181.68 32.17 181.04 32.12 180.04 32.07L179.86 31.89L179.86 30.76L180.04 30.58C181.23 30.66 182.91 30.71 185.1 30.71C187.33 30.71 189.02 30.66 190.18 30.58L190.36 30.76L190.36 31.9L190.16 32.09C189.06 32.12 188.36 32.18 188.05 32.29C187.79 32.39 187.62 32.6 187.57 32.93C187.5 33.25 187.47 34.25 187.47 35.9L187.47 37.69L195.98 37.69L195.98 36.44C195.98 34.96 195.96 34 195.92 33.53C195.86 32.8 195.63 32.38 195.24 32.25C195.05 32.19 194.4 32.14 193.29 32.09L193.09 31.89L193.09 30.76L193.29 30.58C194.46 30.66 196.15 30.71 198.35 30.71C200.42 30.71 202.11 30.66 203.41 30.58L203.59 30.76L203.59 31.9L203.41 32.09C202.31 32.12 201.6 32.18 201.3 32.29C201.04 32.39 200.87 32.6 200.81 32.93C200.75 33.25 200.72 34.25 200.72 35.9L200.72 43.22C200.72 44.65 200.76 45.54 200.85 45.89C200.91 46.16 201.07 46.34 201.33 46.44C201.59 46.55 202.28 46.61 203.41 46.67L203.59 46.85L203.59 47.97ZM178.05 30.58L178.25 30.76L178.25 31.89L178.01 32.07C176.8 32.11 176.07 32.2 175.81 32.35C175.56 32.49 175.43 32.92 175.41 33.62L175.36 35.26C175.35 35.82 175.34 37.1 175.34 39.11C175.34 41.07 175.36 42.67 175.39 43.93C175.42 45.19 175.48 45.9 175.57 46.07C175.65 46.25 175.8 46.37 176.02 46.46C176.24 46.55 176.91 46.61 178.05 46.67L178.25 46.85L178.25 47.97L178.06 48.16C176.89 48.07 175.2 48.03 172.99 48.03C170.93 48.03 169.24 48.07 167.93 48.16L167.74 47.97L167.74 46.85L167.93 46.67C169.09 46.61 169.78 46.55 169.99 46.45C170.2 46.36 170.34 46.23 170.43 46.05C170.5 45.87 170.57 45.24 170.6 44.14C170.64 43.05 170.65 41.38 170.65 39.15L170.65 33.66C167.22 39.34 164.43 44.16 162.28 48.1L158.86 48.03C157.45 48.03 156.1 48.07 154.81 48.16L154.65 47.97L154.65 46.83L154.81 46.67C155.93 46.61 156.59 46.56 156.81 46.48C157.02 46.41 157.18 46.3 157.27 46.13C157.36 45.97 157.43 45.42 157.46 44.48C157.5 43.55 157.52 42.81 157.52 42.28C157.52 38.26 157.52 35.69 157.5 34.56C157.48 33.43 157.41 32.78 157.3 32.59C157.19 32.42 157.01 32.3 156.77 32.23C156.53 32.16 155.88 32.11 154.83 32.07L154.65 31.87L154.65 30.75L154.83 30.56C156.02 30.64 157.71 30.69 159.89 30.69C162.13 30.69 163.82 30.64 164.97 30.56L165.15 30.75L165.15 31.87L164.95 32.07C163.85 32.12 163.19 32.18 162.98 32.25C162.76 32.33 162.61 32.43 162.52 32.56C162.43 32.69 162.37 33.23 162.32 34.18C162.27 35.14 162.24 36.28 162.24 37.62C162.23 38.96 162.23 41.41 162.23 44.99C163.18 43.44 164.62 41 166.53 37.66C168.45 34.33 169.76 31.96 170.43 30.58C171.3 30.65 172.35 30.69 173.58 30.69C174.83 30.69 176.32 30.65 178.05 30.58ZM153.04 47.97L152.85 48.16C151.7 48.07 150 48.03 147.77 48.03C145.7 48.03 144.01 48.07 142.69 48.16L142.5 47.97L142.5 46.85L142.69 46.67C143.83 46.61 144.52 46.55 144.78 46.44C145.04 46.34 145.2 46.16 145.26 45.89C145.34 45.54 145.37 44.65 145.37 43.22L145.37 32.23L136.83 32.23L136.83 39.44C136.83 43.62 136.93 45.85 137.13 46.15C137.24 46.31 137.39 46.41 137.57 46.46C137.89 46.55 138.56 46.61 139.58 46.67L139.76 46.85L139.76 47.97L139.58 48.16C138.41 48.07 136.71 48.03 134.46 48.03C132.4 48.03 130.71 48.07 129.4 48.16L129.22 47.97L129.22 46.85L129.4 46.67C130.49 46.61 131.18 46.55 131.46 46.44C131.71 46.37 131.87 46.19 131.96 45.89C132.03 45.63 132.07 44.75 132.07 43.22L132.07 37.17C132.07 34.31 131.98 32.76 131.81 32.53C131.71 32.39 131.55 32.29 131.35 32.25C131.04 32.18 130.4 32.13 129.4 32.09L129.22 31.9L129.22 30.75L129.4 30.56C130.43 30.64 132.6 30.69 135.91 30.69L148.76 30.69C150.34 30.69 151.7 30.64 152.84 30.56L153.03 30.75L153.03 31.9L152.84 32.09C151.75 32.12 151.05 32.18 150.72 32.29C150.48 32.39 150.33 32.6 150.26 32.93C150.2 33.25 150.17 34.25 150.17 35.9L150.17 43.22C150.17 44.65 150.21 45.54 150.28 45.89C150.34 46.16 150.5 46.34 150.76 46.44C151.02 46.55 151.72 46.61 152.84 46.67L153.04 46.85L153.04 47.97ZM127.53 47.97L127.35 48.16C126.17 48.07 124.48 48.03 122.27 48.03C120.21 48.03 118.52 48.07 117.21 48.16L117.03 47.97L117.03 46.85L117.21 46.67C118.3 46.6 119 46.53 119.29 46.44C119.49 46.38 119.63 46.24 119.72 46.02C119.82 45.8 119.87 44.65 119.9 42.56L119.94 32.75L119.66 32.75C114.79 40.66 112.34 45 112.34 45.76C112.34 46.35 113.07 46.69 114.51 46.78L114.73 46.94L114.73 47.97L114.51 48.14C112.58 48.07 111.29 48.03 110.62 48.03C109.86 48.03 108.73 48.07 107.21 48.14L106.99 47.97L106.99 46.92L107.18 46.76C107.94 46.75 108.56 46.48 109.03 45.97C109.21 45.77 110.57 43.82 113.08 40.12L116.73 34.78C117.64 33.47 118.08 32.75 118.08 32.62C118.08 32.41 116.91 32.2 114.55 32.03L114.3 31.87L114.3 30.76L114.51 30.58L120.33 30.69C121.35 30.71 122.71 30.67 124.38 30.58L124.83 30.8C124.69 34.56 124.62 37.67 124.62 40.14C124.62 41.12 124.64 42.15 124.66 43.22C124.7 44.67 124.76 45.56 124.83 45.89C124.88 46.16 125.03 46.34 125.29 46.44C125.55 46.55 126.23 46.61 127.35 46.67L127.53 46.85L127.53 47.97ZM100.25 37.86C100.22 36.61 100.15 35.68 100.05 35.09C99.82 34.03 99.39 33.24 98.77 32.71C98.2 32.25 97.43 32.01 96.47 32.01C93.91 32.01 92.63 33.66 92.63 36.95C92.63 37.22 92.64 37.58 92.65 38C93.27 38.04 94.06 38.06 95.04 38.06C97.04 38.06 98.78 37.99 100.25 37.86ZM105.19 38.85L104.93 39.15C104.02 39.51 101.89 39.68 98.53 39.68C96.43 39.68 94.54 39.66 92.82 39.63C92.93 41.58 93.47 43.14 94.43 44.3C95.51 45.6 96.99 46.24 98.89 46.24C100.77 46.24 102.44 45.75 103.9 44.76L104.21 45.41L103.47 46.98C101.25 48.19 99.04 48.8 96.84 48.8C93.05 48.8 90.46 47.42 89.07 44.66C88.36 43.22 88 41.61 88 39.85C88 37.08 88.83 34.85 90.5 33.14C92.37 31.23 94.69 30.28 97.47 30.28C100 30.28 101.92 30.91 103.23 32.18C104.54 33.45 105.19 35.48 105.19 38.26L105.19 38.85ZM85.6 47.9L85.41 48.08L81.63 48.03C81.01 48.02 79.93 48.03 78.39 48.08C78.02 47.63 77.42 46.63 76.57 45.08L72.72 37.98L71.26 40.07C69.4 42.71 67.69 45.38 66.11 48.08C65.54 48.05 64.97 48.03 64.4 48.03C63.25 48.03 62.42 48.05 61.89 48.08L61.7 47.9L61.7 46.72L61.89 46.52C62.9 46.44 63.51 46.34 63.72 46.21C64.09 45.97 64.93 44.97 66.24 43.2L68.66 39.94C68.76 39.82 69.75 38.49 71.63 35.96L70.22 33.49L67.96 29.6C66.36 26.85 65.13 25.22 64.29 24.72C64.01 24.55 63.71 24.46 63.4 24.46C63.16 24.46 62.77 24.48 62.25 24.52L62.01 24.33L61.87 23.35L62.03 23.08C63.77 22.73 66.02 22.23 68.75 21.6C69.54 22.11 70.34 23.01 71.16 24.33C71.56 24.97 72.18 26.07 73.01 27.61L75.11 31.48L77.52 27.98C79.51 25.08 80.8 23.11 81.39 22.07C81.9 22.12 82.4 22.14 82.89 22.14C83.72 22.14 84.56 22.12 85.41 22.07L85.6 22.25L85.6 23.47L85.41 23.65C84.56 23.66 83.99 23.76 83.71 23.92C83.43 24.1 82.9 24.68 82.09 25.67C81.29 26.67 80.24 28.05 78.93 29.82C78.2 30.81 77.31 32.03 76.26 33.49C76.88 34.62 77.76 36.21 78.91 38.26L81.28 42.32C82.59 44.55 83.41 45.82 83.75 46.1C84.09 46.39 84.64 46.54 85.41 46.54L85.6 46.72L85.6 47.9Z" fill="#FFFFFF" fill-opacity="1.000000" fill-rule="evenodd"/>
			<path id="Vector" d="M212.5 61.85L212.5 61.56L212.55 61.51C212.84 61.47 213.05 61.42 213.19 61.37C213.33 61.31 213.42 61.25 213.46 61.19C213.51 61.12 213.54 61.03 213.55 60.93C213.56 60.83 213.57 60.58 213.58 60.16C213.6 59.75 213.6 59.44 213.6 59.22L213.6 57.93C213.6 56.82 213.57 56.17 213.49 56C213.42 55.83 213.1 55.71 212.55 55.64L212.5 55.58L212.5 55.28L212.55 55.24C213.21 55.27 213.76 55.29 214.2 55.29C214.63 55.29 215.17 55.27 215.85 55.24L215.9 55.28L215.9 55.58L215.85 55.64C215.54 55.68 215.33 55.73 215.21 55.78C215.09 55.83 215.01 55.88 214.96 55.94C214.91 55.99 214.88 56.06 214.86 56.14C214.85 56.22 214.84 56.48 214.82 56.91C214.8 57.34 214.79 57.68 214.79 57.93L214.79 60.86L214.91 60.91C215.36 60.23 215.94 59.3 216.65 58.08C217.37 56.88 217.91 55.93 218.29 55.24C218.74 55.27 219.11 55.29 219.41 55.29C219.72 55.29 220.1 55.27 220.55 55.24L220.61 55.28L220.61 55.58L220.55 55.64C219.99 55.71 219.68 55.83 219.61 56.01C219.54 56.19 219.5 56.83 219.5 57.93L219.5 59.22C219.5 60.33 219.54 60.97 219.61 61.14C219.69 61.31 220 61.43 220.55 61.51L220.61 61.56L220.61 61.85L220.55 61.91C219.89 61.87 219.34 61.85 218.9 61.85C218.48 61.85 217.93 61.87 217.26 61.91L217.2 61.85L217.2 61.56L217.26 61.51C217.81 61.43 218.12 61.31 218.2 61.13C218.27 60.96 218.31 60.32 218.31 59.22L218.31 56.33L218.19 56.29C217.85 56.8 217.29 57.71 216.53 59.03C215.77 60.34 215.23 61.3 214.92 61.91C214.48 61.87 214.11 61.85 213.82 61.85C213.51 61.85 213.09 61.87 212.55 61.91L212.5 61.85ZM211.64 61.1L211.36 61.57C210.74 61.91 210.06 62.08 209.3 62.08C208.25 62.08 207.45 61.77 206.88 61.15C206.31 60.53 206.02 59.73 206.02 58.75C206.02 58.3 206.07 57.91 206.17 57.56C206.26 57.21 206.39 56.92 206.54 56.7C206.69 56.47 206.85 56.29 207.03 56.16C207.22 56.03 207.52 55.84 207.95 55.6C208.38 55.37 208.71 55.21 208.92 55.14C209.14 55.07 209.45 55.03 209.83 55.03C210.57 55.03 211.17 55.17 211.64 55.45C211.55 55.98 211.48 56.58 211.43 57.24L211.37 57.29L211.08 57.29L211.01 57.23C210.99 56.83 210.97 56.57 210.94 56.43C210.9 56.29 210.71 56.15 210.37 55.99C210.02 55.83 209.66 55.75 209.27 55.75C208.88 55.75 208.53 55.83 208.23 56C207.92 56.16 207.69 56.43 207.54 56.8C207.38 57.17 207.31 57.62 207.31 58.13C207.31 58.57 207.37 58.99 207.49 59.41C207.62 59.82 207.78 60.16 207.98 60.44C208.18 60.71 208.45 60.92 208.78 61.09C209.11 61.26 209.48 61.34 209.89 61.34C210.15 61.34 210.4 61.3 210.65 61.24C210.89 61.17 211.17 61.07 211.49 60.91L211.64 61.1ZM205.16 61.1L204.87 61.57C204.26 61.91 203.58 62.08 202.82 62.08C201.77 62.08 200.96 61.77 200.39 61.15C199.82 60.53 199.54 59.73 199.54 58.75C199.54 58.3 199.59 57.91 199.68 57.56C199.78 57.21 199.9 56.92 200.06 56.7C200.2 56.47 200.37 56.29 200.55 56.16C200.73 56.03 201.04 55.84 201.47 55.6C201.9 55.37 202.22 55.21 202.44 55.14C202.66 55.07 202.96 55.03 203.35 55.03C204.08 55.03 204.69 55.17 205.16 55.45C205.07 55.98 205 56.58 204.95 57.24L204.89 57.29L204.6 57.29L204.53 57.23C204.51 56.83 204.49 56.57 204.45 56.43C204.42 56.29 204.23 56.15 203.89 55.99C203.54 55.83 203.17 55.75 202.78 55.75C202.39 55.75 202.05 55.83 201.74 56C201.44 56.16 201.21 56.43 201.05 56.8C200.9 57.17 200.82 57.62 200.82 58.13C200.82 58.57 200.88 58.99 201.01 59.41C201.13 59.82 201.3 60.16 201.5 60.44C201.7 60.71 201.96 60.92 202.3 61.09C202.63 61.26 203 61.34 203.41 61.34C203.67 61.34 203.92 61.3 204.16 61.24C204.41 61.17 204.69 61.07 205.01 60.91L205.16 61.1ZM197.11 58.7C197.11 57.75 196.91 57 196.52 56.42C196.13 55.85 195.55 55.56 194.8 55.56C194.17 55.56 193.65 55.78 193.25 56.23C192.85 56.67 192.65 57.34 192.65 58.23C192.65 59.15 192.85 59.94 193.25 60.6C193.65 61.27 194.23 61.6 194.99 61.6C195.65 61.6 196.17 61.34 196.54 60.81C196.92 60.28 197.11 59.58 197.11 58.7ZM198.48 58.28C198.48 58.87 198.39 59.41 198.2 59.89C198 60.37 197.72 60.78 197.36 61.12C197 61.46 196.62 61.71 196.23 61.85C195.85 61.98 195.39 62.05 194.87 62.05C193.7 62.05 192.81 61.72 192.2 61.05C191.59 60.39 191.28 59.56 191.28 58.56C191.28 57.87 191.43 57.26 191.72 56.73C192.02 56.19 192.44 55.78 193 55.5C193.56 55.21 194.22 55.07 194.97 55.07C195.7 55.07 196.33 55.21 196.84 55.48C197.36 55.75 197.77 56.14 198.05 56.63C198.34 57.12 198.48 57.67 198.48 58.28ZM182.39 51.83C183.59 51.87 184.36 51.89 184.68 51.89C185.13 51.89 185.63 51.87 186.19 51.85C186.78 51.83 187.14 51.82 187.28 51.82C187.94 51.82 188.5 51.89 188.93 52.03C189.37 52.17 189.73 52.42 190.01 52.78C190.3 53.14 190.44 53.58 190.44 54.1C190.44 54.53 190.34 54.94 190.14 55.33C189.94 55.73 189.66 56.07 189.31 56.35C188.95 56.63 188.59 56.83 188.22 56.95C187.86 57.07 187.48 57.13 187.08 57.13C186.79 57.13 186.46 57.1 186.09 57.03L185.98 56.6L186.04 56.53C186.39 56.61 186.69 56.65 186.91 56.65C187.53 56.65 188.03 56.44 188.41 56.03C188.79 55.62 188.98 55.1 188.98 54.46C188.98 53.82 188.78 53.31 188.39 52.92C188 52.54 187.4 52.35 186.61 52.35C186.18 52.35 185.7 52.43 185.18 52.59C185.14 52.95 185.12 53.83 185.12 55.23L185.12 58.51L185.13 59.9C185.13 60.43 185.15 60.78 185.17 60.93C185.19 61.09 185.23 61.19 185.27 61.25C185.32 61.3 185.4 61.34 185.53 61.38C185.66 61.41 185.98 61.44 186.48 61.46L186.54 61.5L186.54 61.85L186.48 61.91C185.27 61.87 184.59 61.85 184.44 61.85C184.27 61.85 183.59 61.87 182.39 61.91L182.34 61.85L182.34 61.5L182.39 61.46C182.84 61.44 183.13 61.42 183.28 61.39C183.43 61.36 183.53 61.32 183.58 61.28C183.62 61.23 183.66 61.14 183.7 60.99C183.73 60.84 183.75 60.52 183.75 60.01L183.76 58.51L183.76 55.23L183.74 53.85C183.74 53.31 183.72 52.96 183.7 52.8C183.68 52.65 183.65 52.54 183.6 52.49C183.56 52.44 183.47 52.4 183.34 52.36C183.21 52.33 182.9 52.3 182.39 52.28L182.34 52.23L182.34 51.88L182.39 51.83ZM171.93 58.41C171.93 58.9 171.97 59.35 172.04 59.76C172.12 60.17 172.25 60.54 172.44 60.86C172.63 61.19 172.86 61.43 173.13 61.58C173.4 61.73 173.72 61.8 174.09 61.8C174.88 61.8 175.48 61.49 175.87 60.85C176.27 60.22 176.47 59.42 176.47 58.44C176.47 57.49 176.3 56.72 175.96 56.13C175.62 55.54 175.07 55.25 174.3 55.25C173.59 55.25 173.01 55.5 172.58 56.03C172.15 56.55 171.93 57.35 171.93 58.41ZM169.31 58.01L170.6 58.01C170.64 57.13 170.98 56.39 171.61 55.8C172.24 55.2 173.12 54.9 174.27 54.9C174.7 54.9 175.13 54.96 175.55 55.06C175.98 55.17 176.36 55.36 176.71 55.65C177.05 55.93 177.32 56.31 177.53 56.79C177.73 57.26 177.83 57.79 177.83 58.37C177.83 58.94 177.73 59.47 177.55 59.97C177.35 60.47 177.08 60.88 176.72 61.21C176.35 61.55 175.95 61.78 175.49 61.92C175.03 62.06 174.57 62.13 174.1 62.13C173.54 62.13 173.04 62.05 172.59 61.87C172.15 61.69 171.77 61.43 171.45 61.07C171.14 60.7 170.92 60.3 170.8 59.86C170.69 59.42 170.62 58.93 170.6 58.39L169.31 58.39L169.31 59.22C169.31 60.33 169.34 60.97 169.42 61.14C169.5 61.31 169.81 61.43 170.36 61.51L170.41 61.56L170.41 61.85L170.36 61.91C169.7 61.87 169.15 61.85 168.72 61.85C168.27 61.85 167.72 61.87 167.07 61.91L167.01 61.85L167.01 61.56L167.07 61.51C167.35 61.47 167.56 61.42 167.7 61.37C167.84 61.31 167.93 61.25 167.98 61.19C168.02 61.12 168.05 61.03 168.06 60.93C168.07 60.83 168.09 60.58 168.1 60.16C168.11 59.75 168.12 59.44 168.12 59.22L168.12 57.93C168.12 56.82 168.08 56.17 168 56C167.93 55.83 167.62 55.71 167.07 55.64L167.01 55.58L167.01 55.28L167.07 55.24C167.73 55.27 168.28 55.29 168.72 55.29C169.14 55.29 169.69 55.27 170.36 55.24L170.41 55.28L170.41 55.58L170.36 55.64C169.8 55.71 169.48 55.84 169.41 56.02C169.34 56.19 169.31 56.86 169.31 58.01ZM158.67 64.31L158.89 64.27C159.02 64.54 159.17 64.72 159.36 64.81C159.54 64.9 159.76 64.94 160 64.94C160.45 64.94 160.82 64.79 161.11 64.48C161.41 64.17 161.81 63.41 162.33 62.2L160.88 58.8L159.85 56.4C159.76 56.19 159.65 56.03 159.53 55.91C159.42 55.79 159.18 55.7 158.82 55.64L158.77 55.58L158.77 55.28L158.82 55.24C159.38 55.27 159.89 55.29 160.36 55.29C160.86 55.29 161.37 55.27 161.88 55.24L161.93 55.28L161.93 55.58L161.88 55.64C161.51 55.7 161.29 55.76 161.21 55.83C161.14 55.89 161.1 55.96 161.1 56.04C161.1 56.1 161.11 56.16 161.14 56.23C161.16 56.3 161.26 56.55 161.45 57L162.89 60.5L163.03 60.5L164.27 57.52C164.51 56.93 164.65 56.58 164.68 56.46C164.72 56.35 164.73 56.25 164.73 56.16C164.73 56.06 164.7 55.98 164.64 55.9C164.57 55.83 164.48 55.78 164.38 55.75C164.27 55.72 164.08 55.68 163.79 55.64L163.74 55.58L163.74 55.28L163.79 55.24C164.31 55.27 164.77 55.29 165.16 55.29C165.61 55.29 166.02 55.27 166.39 55.24L166.45 55.28L166.45 55.58L166.39 55.64C166.16 55.67 165.97 55.74 165.83 55.84C165.65 55.98 165.45 56.25 165.24 56.65C165.07 56.95 164.6 57.98 163.83 59.76L162.25 63.33C161.86 64.2 161.54 64.8 161.27 65.11C161.01 65.42 160.73 65.65 160.45 65.79C160.16 65.92 159.84 65.99 159.49 65.99C159.24 65.99 159.02 65.95 158.82 65.85C158.8 65.29 158.75 64.78 158.67 64.31ZM154.44 58.44L154.49 61.4C154.72 61.44 154.99 61.45 155.27 61.45C155.68 61.45 156.02 61.37 156.26 61.21C156.5 61.05 156.68 60.85 156.78 60.62C156.89 60.39 156.94 60.14 156.94 59.87C156.94 59.56 156.87 59.28 156.73 59.05C156.58 58.81 156.38 58.65 156.1 58.56C155.83 58.47 155.45 58.42 154.97 58.42C154.85 58.42 154.67 58.43 154.44 58.44ZM154.44 58.02C154.63 58.03 154.78 58.03 154.89 58.03C155.56 58.03 156.02 57.92 156.28 57.71C156.54 57.5 156.68 57.2 156.68 56.82C156.68 56.49 156.57 56.21 156.36 56C156.15 55.78 155.77 55.67 155.24 55.67C155 55.67 154.75 55.69 154.49 55.71L154.44 58.02ZM152.31 61.85L152.31 61.56L152.37 61.51C152.73 61.48 152.94 61.44 153.02 61.41C153.09 61.38 153.16 61.32 153.21 61.23C153.26 61.14 153.28 60.92 153.3 60.58C153.31 60.23 153.31 59.76 153.31 59.17L153.31 57.97C153.31 57.6 153.31 57.19 153.3 56.73C153.28 56.27 153.25 56 153.2 55.91C153.15 55.82 153.09 55.76 153.01 55.73C152.93 55.7 152.72 55.67 152.37 55.64L152.31 55.58L152.31 55.28L152.37 55.24C153.02 55.27 153.51 55.29 153.85 55.29C154.01 55.29 154.24 55.29 154.53 55.28C155.36 55.25 155.93 55.25 156.24 55.25C156.79 55.25 157.19 55.36 157.45 55.6C157.7 55.85 157.83 56.15 157.83 56.51C157.83 57.29 157.3 57.82 156.24 58.1C156.9 58.14 157.38 58.3 157.7 58.59C158.01 58.87 158.17 59.25 158.17 59.71C158.17 60.27 157.95 60.78 157.52 61.23C157.09 61.67 156.4 61.9 155.45 61.9C155.38 61.9 155.24 61.89 155.03 61.89C154.63 61.87 154.32 61.85 154.09 61.85C153.51 61.87 152.94 61.89 152.37 61.91L152.31 61.85ZM150.02 58.7C150.02 57.75 149.82 57 149.43 56.42C149.04 55.85 148.46 55.56 147.71 55.56C147.07 55.56 146.56 55.78 146.16 56.23C145.76 56.67 145.56 57.34 145.56 58.23C145.56 59.15 145.76 59.94 146.16 60.6C146.56 61.27 147.14 61.6 147.9 61.6C148.56 61.6 149.08 61.34 149.45 60.81C149.83 60.28 150.02 59.58 150.02 58.7ZM151.39 58.28C151.39 58.87 151.3 59.41 151.1 59.89C150.91 60.37 150.63 60.78 150.27 61.12C149.9 61.46 149.53 61.71 149.14 61.85C148.75 61.98 148.3 62.05 147.78 62.05C146.61 62.05 145.72 61.72 145.11 61.05C144.49 60.39 144.19 59.56 144.19 58.56C144.19 57.87 144.34 57.26 144.63 56.73C144.92 56.19 145.35 55.78 145.91 55.5C146.47 55.21 147.12 55.07 147.88 55.07C148.61 55.07 149.24 55.21 149.75 55.48C150.27 55.75 150.67 56.14 150.96 56.63C151.25 57.12 151.39 57.67 151.39 58.28ZM137.64 58.16C138.52 58.18 139.12 58.19 139.45 58.19C139.84 58.19 140.43 58.18 141.24 58.16L141.24 57.97C141.24 57.62 141.24 57.21 141.23 56.75C141.22 56.28 141.19 56.01 141.14 55.91C141.09 55.82 141.03 55.76 140.95 55.73C140.87 55.7 140.65 55.67 140.3 55.64L140.25 55.58L140.25 55.28L140.3 55.24C140.78 55.27 141.28 55.29 141.81 55.29C142.36 55.29 142.86 55.27 143.31 55.24L143.37 55.28L143.37 55.58L143.31 55.64C142.95 55.67 142.74 55.71 142.66 55.74C142.58 55.77 142.52 55.83 142.47 55.92C142.42 56.01 142.39 56.24 142.38 56.61C142.37 56.98 142.37 57.43 142.37 57.97L142.37 59.17L142.38 60.42C142.39 60.87 142.42 61.15 142.47 61.24C142.52 61.33 142.59 61.39 142.67 61.42C142.75 61.44 142.96 61.48 143.31 61.51L143.37 61.56L143.37 61.85L143.31 61.91C142.84 61.87 142.33 61.85 141.81 61.85C141.25 61.85 140.75 61.87 140.3 61.91L140.25 61.85L140.25 61.56L140.3 61.51C140.66 61.48 140.88 61.44 140.96 61.41C141.03 61.38 141.1 61.32 141.14 61.23C141.19 61.14 141.22 60.92 141.23 60.57C141.24 60.23 141.24 59.76 141.24 59.17L141.24 58.6C140.71 58.59 140.12 58.58 139.45 58.58C138.85 58.58 138.25 58.59 137.64 58.6L137.64 59.17C137.64 59.55 137.65 59.96 137.66 60.42C137.66 60.87 137.7 61.15 137.75 61.24C137.8 61.33 137.86 61.39 137.94 61.42C138.02 61.44 138.24 61.48 138.58 61.51L138.64 61.56L138.64 61.85L138.58 61.91C138.11 61.87 137.61 61.85 137.08 61.85C136.52 61.85 136.02 61.87 135.57 61.91L135.52 61.85L135.52 61.56L135.57 61.51C135.93 61.48 136.15 61.44 136.22 61.41C136.3 61.38 136.36 61.32 136.41 61.23C136.46 61.14 136.49 60.92 136.5 60.58C136.51 60.23 136.51 59.76 136.51 59.17L136.51 57.97C136.51 57.6 136.51 57.19 136.5 56.73C136.49 56.27 136.46 56 136.41 55.91C136.35 55.82 136.29 55.76 136.21 55.73C136.13 55.7 135.92 55.67 135.57 55.64L135.52 55.58L135.52 55.28L135.57 55.24C136.04 55.27 136.55 55.29 137.08 55.29C137.63 55.29 138.13 55.27 138.58 55.24L138.64 55.28L138.64 55.58L138.58 55.64C138.23 55.67 138.01 55.71 137.93 55.73C137.85 55.76 137.79 55.82 137.74 55.91C137.69 56.01 137.66 56.22 137.66 56.57C137.65 56.91 137.64 57.37 137.64 57.97L137.64 58.16ZM124.92 52.83L125.62 52.29L125.8 52.39C125.98 53.21 126.45 53.63 127.2 53.63C127.58 53.63 127.89 53.51 128.13 53.3C128.37 53.08 128.49 52.75 128.49 52.33L128.67 52.27L128.98 53.03C128.39 53.71 127.71 54.05 126.93 54.05C126.5 54.05 126.12 53.94 125.78 53.74C125.45 53.53 125.16 53.23 124.92 52.83ZM122.86 61.85L122.86 61.56L122.92 61.51C123.21 61.47 123.42 61.42 123.56 61.37C123.69 61.31 123.79 61.25 123.83 61.19C123.88 61.12 123.9 61.03 123.92 60.93C123.93 60.83 123.94 60.58 123.95 60.16C123.96 59.75 123.97 59.44 123.97 59.22L123.97 57.93C123.97 56.82 123.93 56.17 123.86 56C123.79 55.83 123.47 55.71 122.92 55.64L122.86 55.58L122.86 55.28L122.92 55.24C123.58 55.27 124.13 55.29 124.57 55.29C124.99 55.29 125.54 55.27 126.22 55.24L126.27 55.28L126.27 55.58L126.22 55.64C125.91 55.68 125.7 55.73 125.58 55.78C125.46 55.83 125.37 55.88 125.32 55.94C125.28 55.99 125.25 56.06 125.23 56.14C125.22 56.22 125.2 56.48 125.19 56.91C125.17 57.34 125.16 57.68 125.16 57.93L125.16 60.86L125.28 60.91C125.73 60.23 126.31 59.3 127.02 58.08C127.73 56.88 128.28 55.93 128.65 55.24C129.1 55.27 129.47 55.29 129.77 55.29C130.08 55.29 130.47 55.27 130.92 55.24L130.97 55.28L130.97 55.58L130.92 55.64C130.36 55.71 130.05 55.83 129.97 56.01C129.9 56.19 129.87 56.83 129.87 57.93L129.87 59.22C129.87 60.33 129.91 60.97 129.98 61.14C130.05 61.31 130.37 61.43 130.92 61.51L130.97 61.56L130.97 61.85L130.92 61.91C130.26 61.87 129.71 61.85 129.27 61.85C128.84 61.85 128.3 61.87 127.62 61.91L127.56 61.85L127.56 61.56L127.62 61.51C128.18 61.43 128.49 61.31 128.57 61.13C128.64 60.96 128.68 60.32 128.68 59.22L128.68 56.33L128.56 56.29C128.22 56.8 127.66 57.71 126.9 59.03C126.14 60.34 125.6 61.3 125.29 61.91C124.84 61.87 124.48 61.85 124.19 61.85C123.88 61.85 123.46 61.87 122.92 61.91L122.86 61.85ZM120.44 58.7C120.44 57.75 120.24 57 119.85 56.42C119.46 55.85 118.89 55.56 118.13 55.56C117.5 55.56 116.98 55.78 116.58 56.23C116.18 56.67 115.98 57.34 115.98 58.23C115.98 59.15 116.18 59.94 116.59 60.6C116.99 61.27 117.57 61.6 118.32 61.6C118.98 61.6 119.5 61.34 119.88 60.81C120.25 60.28 120.44 59.58 120.44 58.7ZM121.82 58.28C121.82 58.87 121.72 59.41 121.53 59.89C121.33 60.37 121.06 60.78 120.69 61.12C120.33 61.46 119.95 61.71 119.57 61.85C119.18 61.98 118.72 62.05 118.2 62.05C117.03 62.05 116.14 61.72 115.53 61.05C114.92 60.39 114.61 59.56 114.61 58.56C114.61 57.87 114.76 57.26 115.06 56.73C115.35 56.19 115.78 55.78 116.34 55.5C116.89 55.21 117.55 55.07 118.3 55.07C119.03 55.07 119.66 55.21 120.18 55.48C120.69 55.75 121.1 56.14 121.38 56.63C121.67 57.12 121.82 57.67 121.82 58.28ZM108.05 60.45C108.6 61 109.23 61.28 109.94 61.28C110.66 61.28 111.23 61 111.65 60.46C112.07 59.91 112.28 59.25 112.28 58.47C112.28 57.98 112.18 57.55 112 57.17C111.82 56.79 111.54 56.5 111.18 56.29C110.82 56.08 110.44 55.98 110.05 55.98C109.79 55.98 109.54 56.02 109.3 56.11C109.06 56.2 108.84 56.33 108.63 56.51C108.43 56.67 108.28 56.83 108.2 56.97C108.12 57.12 108.08 57.23 108.07 57.3C108.06 57.37 108.05 57.51 108.05 57.7L108.05 60.45ZM108 55.01L108.13 55.1C108.08 55.65 108.06 56.13 108.05 56.53C108.35 56.25 108.64 56 108.92 55.75C109.21 55.51 109.4 55.35 109.51 55.3C109.61 55.24 109.76 55.19 109.97 55.14C110.17 55.1 110.42 55.08 110.72 55.08C111.59 55.08 112.28 55.35 112.78 55.89C113.29 56.42 113.54 57.11 113.54 57.96C113.54 58.3 113.48 58.66 113.37 59.02C113.25 59.38 113.1 59.71 112.92 60C112.74 60.3 112.6 60.49 112.5 60.57C112.4 60.66 112.12 60.83 111.66 61.11C111.48 61.22 111.29 61.34 111.1 61.48C110.83 61.67 110.65 61.79 110.57 61.84C110.48 61.89 110.34 61.94 110.15 61.98C109.96 62.03 109.75 62.05 109.53 62.05C109.04 62.05 108.54 61.92 108.05 61.67L108.05 63C108.05 63.36 108.06 63.81 108.09 64.36C108.11 64.91 108.14 65.22 108.18 65.29C108.22 65.37 108.28 65.42 108.35 65.44C108.42 65.46 108.65 65.49 109.04 65.53L109.1 65.58L109.1 65.88L109.04 65.94C108.47 65.91 107.94 65.89 107.45 65.89C106.97 65.89 106.44 65.91 105.87 65.94L105.81 65.88L105.81 65.58L105.87 65.53C106.23 65.5 106.45 65.47 106.52 65.45C106.6 65.44 106.65 65.41 106.69 65.37C106.72 65.32 106.75 65.26 106.77 65.17C106.79 65.08 106.82 64.75 106.83 64.18C106.85 63.62 106.86 63.22 106.86 63L106.86 57.56C106.86 57.35 106.85 57.07 106.84 56.74C106.82 56.41 106.81 56.21 106.79 56.16C106.78 56.11 106.74 56.06 106.69 56.03C106.63 55.99 106.52 55.98 106.33 55.98C106.31 55.98 106.15 55.97 105.88 55.96L105.81 55.9L105.81 55.6L105.87 55.53C106.72 55.41 107.43 55.24 108 55.01ZM98.26 61.85L98.26 61.56L98.32 61.51C98.67 61.48 98.89 61.44 98.97 61.41C99.04 61.38 99.11 61.32 99.15 61.23C99.2 61.14 99.23 60.92 99.24 60.58C99.25 60.23 99.26 59.76 99.26 59.17L99.26 57.97C99.26 57.6 99.25 57.19 99.24 56.73C99.23 56.27 99.2 56 99.15 55.91C99.1 55.82 99.03 55.76 98.95 55.73C98.88 55.7 98.66 55.67 98.32 55.64L98.26 55.58L98.26 55.28L98.32 55.24C98.79 55.27 99.3 55.29 99.85 55.29C100.42 55.29 100.94 55.27 101.39 55.24L101.45 55.28L101.45 55.58L101.39 55.64C101.03 55.67 100.82 55.71 100.74 55.74C100.66 55.77 100.6 55.83 100.55 55.92C100.51 56.01 100.48 56.23 100.47 56.57C100.45 56.92 100.45 57.38 100.45 57.97L100.45 58.44L100.51 58.44C101.12 57.91 101.71 57.36 102.26 56.8C102.82 56.24 103.12 55.93 103.18 55.86C103.23 55.8 103.26 55.74 103.26 55.68C103.26 55.63 103.22 55.58 103.13 55.56L103.13 55.28L103.19 55.23C103.6 55.26 103.87 55.28 104.01 55.28C104.24 55.28 104.51 55.26 104.83 55.23L104.88 55.28L104.88 55.58L104.83 55.64C104.52 55.66 104.25 55.74 104.03 55.87C103.81 56 102.99 56.7 101.58 57.97L104.5 61.03C104.71 61.25 104.85 61.39 104.92 61.44C105 61.48 105.11 61.51 105.25 61.51L105.28 61.55L105.28 61.85L105.25 61.9C104.51 61.87 104.06 61.84 103.9 61.8C103.74 61.76 103.57 61.66 103.38 61.49C103.18 61.33 102.86 61 102.41 60.52C101.49 59.55 100.86 58.92 100.51 58.62L100.45 58.62L100.45 59.17C100.45 59.56 100.45 59.98 100.46 60.43C100.47 60.88 100.5 61.15 100.55 61.24C100.6 61.33 100.67 61.39 100.75 61.42C100.83 61.44 101.04 61.48 101.39 61.51L101.45 61.56L101.45 61.85L101.39 61.91C100.92 61.87 100.41 61.85 99.85 61.85C99.28 61.85 98.77 61.87 98.32 61.91L98.26 61.85ZM91.08 55.28L91.13 55.24C92.06 55.28 93.1 55.31 94.25 55.31C95.42 55.31 96.46 55.28 97.37 55.24L97.42 55.28C97.39 55.91 97.37 56.44 97.37 56.87L97.33 56.91L97.05 56.91L97 56.87C96.94 56.35 96.89 56.06 96.85 55.96C96.82 55.87 96.76 55.81 96.69 55.78C96.62 55.75 96.49 55.74 96.29 55.74L94.84 55.74L94.82 57.56L94.82 59.17C94.82 59.52 94.82 59.93 94.83 60.4C94.84 60.86 94.87 61.14 94.92 61.23C94.96 61.32 95.03 61.38 95.11 61.41C95.19 61.44 95.4 61.48 95.76 61.51L95.81 61.56L95.81 61.85L95.76 61.91C95.28 61.87 94.78 61.85 94.25 61.85C93.7 61.85 93.2 61.87 92.75 61.91L92.69 61.85L92.69 61.56L92.75 61.51C93.1 61.48 93.32 61.44 93.4 61.41C93.48 61.38 93.54 61.32 93.59 61.23C93.64 61.14 93.66 60.91 93.67 60.54C93.68 60.17 93.69 59.72 93.69 59.17L93.69 57.58C93.67 56.96 93.66 56.35 93.65 55.74L92.2 55.74C92 55.74 91.86 55.76 91.79 55.79C91.72 55.82 91.67 55.88 91.64 55.99C91.6 56.09 91.55 56.38 91.49 56.87L91.45 56.91L91.17 56.91L91.12 56.87C91.12 56.68 91.11 56.15 91.08 55.28ZM81.15 56.5C81.15 57.08 81.24 57.7 81.43 58.36C81.62 59.03 81.9 59.6 82.27 60.07C82.65 60.55 83.08 60.9 83.56 61.13C84.05 61.37 84.61 61.48 85.23 61.48C85.97 61.48 86.62 61.31 87.2 60.98C87.77 60.64 88.21 60.12 88.51 59.41C88.81 58.71 88.96 57.91 88.96 57.03C88.96 56.07 88.79 55.21 88.45 54.44C88.1 53.67 87.62 53.11 86.98 52.76C86.35 52.41 85.65 52.23 84.88 52.23C83.72 52.23 82.81 52.6 82.15 53.32C81.48 54.03 81.15 55.1 81.15 56.5ZM79.67 56.97C79.67 56.26 79.77 55.6 79.97 54.98C80.18 54.37 80.53 53.8 81.02 53.28C81.51 52.75 82.1 52.35 82.8 52.06C83.49 51.77 84.27 51.63 85.15 51.63C86.77 51.63 88.06 52.07 89.02 52.95C89.98 53.83 90.46 55.02 90.46 56.54C90.46 57.61 90.23 58.57 89.76 59.42C89.29 60.28 88.61 60.94 87.74 61.41C86.86 61.88 85.87 62.12 84.78 62.12C84 62.12 83.29 61.99 82.64 61.73C81.99 61.48 81.43 61.09 80.97 60.58C80.52 60.07 80.18 59.48 79.98 58.8C79.77 58.13 79.67 57.52 79.67 56.97Z" fill="#FFFFFF" fill-opacity="1.000000" fill-rule="evenodd"/>
			<path id="Vector" d="M226.65 58.41C226.65 58.9 226.68 59.35 226.76 59.76C226.83 60.17 226.96 60.53 227.16 60.86C227.35 61.19 227.58 61.42 227.85 61.58C228.12 61.73 228.44 61.8 228.81 61.8C229.6 61.8 230.19 61.49 230.59 60.85C230.99 60.22 231.18 59.41 231.18 58.44C231.18 57.49 231.01 56.72 230.68 56.13C230.34 55.54 229.78 55.24 229.02 55.24C228.3 55.24 227.73 55.5 227.3 56.03C226.86 56.55 226.65 57.34 226.65 58.41ZM224.02 58.01L225.32 58.01C225.36 57.12 225.69 56.39 226.32 55.79C226.95 55.2 227.84 54.9 228.99 54.9C229.42 54.9 229.85 54.96 230.27 55.06C230.69 55.17 231.08 55.36 231.42 55.64C231.77 55.93 232.04 56.31 232.24 56.78C232.44 57.26 232.55 57.78 232.55 58.37C232.55 58.94 232.45 59.47 232.26 59.97C232.07 60.46 231.79 60.88 231.43 61.21C231.07 61.55 230.66 61.78 230.21 61.92C229.75 62.06 229.29 62.13 228.82 62.13C228.26 62.13 227.76 62.04 227.31 61.87C226.86 61.69 226.48 61.42 226.17 61.06C225.86 60.7 225.64 60.3 225.52 59.86C225.4 59.42 225.34 58.92 225.32 58.39L224.02 58.39L224.02 59.21C224.02 60.33 224.06 60.97 224.14 61.14C224.21 61.31 224.53 61.43 225.08 61.51L225.13 61.56L225.13 61.85L225.08 61.91C224.41 61.87 223.86 61.85 223.43 61.85C222.99 61.85 222.44 61.87 221.78 61.91L221.72 61.85L221.72 61.56L221.78 61.51C222.07 61.46 222.28 61.42 222.42 61.37C222.56 61.31 222.65 61.25 222.69 61.18C222.74 61.12 222.77 61.03 222.78 60.93C222.79 60.83 222.8 60.58 222.81 60.16C222.83 59.75 222.83 59.43 222.83 59.21L222.83 57.93C222.83 56.82 222.79 56.17 222.72 56C222.65 55.83 222.33 55.71 221.78 55.64L221.72 55.58L221.72 55.28L221.78 55.24C222.44 55.27 222.99 55.29 223.43 55.29C223.86 55.29 224.4 55.27 225.08 55.24L225.13 55.28L225.13 55.58L225.08 55.64C224.52 55.71 224.2 55.83 224.13 56.01C224.06 56.19 224.02 56.86 224.02 58.01Z" fill="#FFFFFF" fill-opacity="1.000000" fill-rule="evenodd"/>
			<path id="Vector" d="M36.33 52.28C35.02 52.42 33.66 52.53 32.27 52.62C32.29 52.43 32.3 52.23 32.3 52.04C32.3 50.48 31.67 49.08 30.64 48.05L30.64 48.05L30.64 48.05C29.61 47.03 28.2 46.4 26.64 46.4C25.07 46.4 23.66 47.03 22.63 48.05C21.61 49.07 20.97 50.48 20.97 52.04C20.97 52.23 20.98 52.43 21 52.62C19.61 52.53 18.26 52.42 16.95 52.28C16.94 52.2 16.94 52.12 16.94 52.04C16.94 49.44 18.02 47.09 19.77 45.39C21.53 43.69 23.96 42.63 26.64 42.63C29.32 42.63 31.74 43.69 33.5 45.39C35.25 47.09 36.33 49.44 36.33 52.04C36.33 52.12 36.33 52.2 36.33 52.28ZM0 16.16L0 16.16C8.62 -5.5 45.84 -5.3 53.36 16.19C53.36 16.2 53.36 16.21 53.36 16.22C53.35 16.22 53.35 16.23 53.35 16.23L32.56 43.14C33.2 43.55 33.79 44.01 34.33 44.54C36.31 46.46 37.53 49.11 37.53 52.04C37.53 54.96 36.31 57.62 34.33 59.54C32.36 61.45 29.64 62.64 26.64 62.64C23.63 62.64 20.91 61.45 18.94 59.54C16.97 57.62 15.74 54.96 15.74 52.04C15.74 49.11 16.97 46.46 18.94 44.54C19.46 44.04 20.02 43.59 20.63 43.19L0 16.16ZM16.82 13.58C15.06 11.03 12.65 9.43 9.61 9.43C6.26 9.43 2.96 11.97 1.21 15.78L20.82 41.48L16.82 13.58ZM35.18 13.42L30.98 42.32C29.65 41.75 28.18 41.44 26.64 41.44C25.04 41.44 23.53 41.77 22.17 42.37L18.02 13.5C19.73 9.51 22.94 6.83 26.62 6.83C30.27 6.83 33.47 9.48 35.18 13.42ZM52.14 15.81C50.4 11.99 47.26 9.43 43.67 9.43C40.76 9.43 38.15 11.1 36.34 13.76L32.32 41.5L52.14 15.81ZM26.64 56.48C27.87 56.48 28.99 55.98 29.8 55.18C30.6 54.38 31.1 53.26 31.1 52.04C31.1 50.81 30.61 49.7 29.8 48.89L29.8 48.89C28.99 48.09 27.87 47.59 26.64 47.59C25.4 47.59 24.29 48.09 23.48 48.89C22.67 49.7 22.17 50.81 22.17 52.04C22.17 53.27 22.67 54.38 23.48 55.18C24.28 55.99 25.4 56.48 26.64 56.48Z" fill="#FFFFFF" fill-opacity="1.000000" fill-rule="evenodd"/>
		</g>
	</g>
</svg>
