<svg width="258.000000" height="59.000000" viewBox="0 0 258 59" fill="none" xmlns="http://www.w3.org/2000/svg" xmlns:xlink="http://www.w3.org/1999/xlink">
	<desc>
			Created with Pixso.
	</desc>
	<defs>
		<clipPath id="clip28_10500">
			<rect id="variant=27" rx="0.000000" width="257.000000" height="58.000000" transform="translate(0.500000 0.500000)" fill="white" fill-opacity="0"/>
		</clipPath>
	</defs>
	<g clip-path="url(#clip28_10500)">
		<path id="Vector" d="M4.98 9.7L39.75 0.4C43.21 -0.53 46.79 1.54 47.72 4.99L57.04 39.72C57.96 43.17 55.9 46.76 52.44 47.68L17.66 56.99C14.21 57.91 10.62 55.84 9.7 52.39L0.38 17.66C-0.55 14.21 1.52 10.63 4.98 9.7Z" fill="#C9DA2D" fill-opacity="1.000000" fill-rule="evenodd"/>
		<path id="Vector" d="M4.98 9.7L39.75 0.4C43.21 -0.53 46.79 1.54 47.72 4.99L57.04 39.72C57.96 43.17 55.9 46.76 52.44 47.68L17.66 56.99C14.21 57.91 10.62 55.84 9.7 52.39L0.38 17.66C-0.55 14.21 1.52 10.63 4.98 9.7Z" fill="#434343" fill-opacity="1.000000" fill-rule="evenodd"/>
		<path id="Vector" d="M19.01 56.62L17.66 56.99C14.21 57.91 10.62 55.84 9.7 52.39L4.6 33.39L19.01 33.39L19.01 56.62Z" fill="#434343" fill-opacity="1.000000" fill-rule="evenodd"/>
		<path id="Vector" d="M41.27 0.18C44.2 0.1 46.93 2.04 47.72 4.99L57.04 39.72C57.96 43.17 55.9 46.76 52.44 47.68L41.27 50.67L41.27 0.18Z" fill="#231F20" fill-opacity="1.000000" fill-rule="evenodd"/>
		<path id="Vector" d="M25.45 28.76L3.36 28.76L5.59 37.1L16.41 37.1L16.41 57.19C16.59 57.18 16.77 57.16 16.96 57.13C16.98 57.13 17 57.13 17.02 57.12C17.23 57.09 17.45 57.04 17.66 56.98L25.45 54.9L25.45 28.76Z" fill="#FFFFFF" fill-opacity="1.000000" fill-rule="evenodd"/>
		<path id="Vector" d="M46.14 28.76L46.14 2.19C44.55 0.54 42.13 -0.24 39.75 0.4L36.89 1.16L36.89 28.76L28.69 28.76L28.69 37.1L36.89 37.1L36.89 51.85L46.14 49.37L46.14 37.11L56.34 37.11L54.1 28.76L46.14 28.76Z" fill="#737373" fill-opacity="1.000000" fill-rule="evenodd"/>
		<path id="Vector" d="M20.37 12.96C21.9 12.96 23.22 13.49 24.3 14.58C25.4 15.66 25.93 16.97 25.93 18.48C25.93 20.01 25.4 21.33 24.3 22.42C23.22 23.51 21.9 24.04 20.37 24.04C18.85 24.04 17.54 23.51 16.46 22.42C15.38 21.33 14.83 20.01 14.83 18.48C14.83 16.94 15.37 15.63 16.45 14.55C17.51 13.49 18.82 12.96 20.37 12.96Z" fill="#737373" fill-opacity="1.000000" fill-rule="evenodd"/>
		<path id="Vector" d="M71.41 44.75L71.41 21.16L67.63 21.16L67.63 17.05L76.35 17.05L76.35 44.75L71.41 44.75ZM74.12 6.61C74.96 6.61 75.68 6.91 76.28 7.51C76.87 8.1 77.17 8.81 77.17 9.64C77.17 10.49 76.87 11.21 76.28 11.8C75.68 12.4 74.96 12.69 74.12 12.69C73.29 12.69 72.57 12.4 71.98 11.8C71.38 11.21 71.08 10.49 71.08 9.64C71.08 8.8 71.38 8.08 71.96 7.49C72.55 6.91 73.27 6.61 74.12 6.61Z" fill="#FFFFFF" fill-opacity="1.000000" fill-rule="nonzero"/>
		<path id="Vector" d="M71.41 21.16L67.63 21.16L67.63 17.05L76.35 17.05L76.35 44.75L71.41 44.75L71.41 21.16ZM76.28 7.51C76.87 8.1 77.17 8.81 77.17 9.64C77.17 10.49 76.87 11.21 76.28 11.8C75.68 12.4 74.96 12.69 74.12 12.69C73.29 12.69 72.57 12.4 71.98 11.8C71.38 11.21 71.08 10.49 71.08 9.64C71.08 8.8 71.38 8.08 71.96 7.49C72.55 6.91 73.27 6.61 74.12 6.61C74.96 6.61 75.68 6.91 76.28 7.51Z" stroke="#FFFFFF" stroke-opacity="1.000000" stroke-width="2.958900"/>
		<path id="Vector" d="M85.93 20.42L82.72 20.42L82.72 16.56L85.93 16.56L85.93 10.79L90.87 8.91L90.87 16.56L98.44 16.56L98.44 20.42L90.87 20.42L90.87 34.19C90.87 36.52 91.25 38.18 92.04 39.16C92.82 40.15 94.07 40.64 95.81 40.64C97.06 40.64 98.35 40.31 99.69 39.65L100.41 43.98C98.38 44.49 96.15 44.75 93.72 44.75C91.54 44.75 89.69 43.93 88.19 42.31C86.68 40.68 85.93 38.62 85.93 36.14L85.93 20.42Z" fill="#FFFFFF" fill-opacity="1.000000" fill-rule="nonzero"/>
		<path id="Vector" d="M82.72 20.42L82.72 16.56L85.93 16.56L85.93 10.79L90.87 8.91L90.87 16.56L98.44 16.56L98.44 20.42L90.87 20.42L90.87 34.19C90.87 36.52 91.25 38.18 92.04 39.16C92.82 40.15 94.07 40.64 95.81 40.64C97.06 40.64 98.35 40.31 99.69 39.65L100.41 43.98C98.38 44.49 96.15 44.75 93.72 44.75C91.54 44.75 89.69 43.93 88.19 42.31C86.68 40.68 85.93 38.62 85.93 36.14L85.93 20.42L82.72 20.42Z" stroke="#FFFFFF" stroke-opacity="1.000000" stroke-width="2.958900"/>
		<path id="Vector" d="M147.85 44.75L146.53 44.75L138.42 25.92L130.32 44.75L129 44.75L119.12 16.47L124.39 16.47L130.27 34.64L137.64 16.47L138.96 16.47L146.57 34.64L152.95 16.47L157.8 16.47L147.85 44.75Z" fill="#FFFFFF" fill-opacity="1.000000" fill-rule="nonzero"/>
		<path id="Vector" d="M146.53 44.75L138.42 25.92L130.32 44.75L129 44.75L119.12 16.47L124.39 16.47L130.27 34.64L137.64 16.47L138.96 16.47L146.57 34.64L152.95 16.47L157.8 16.47L147.85 44.75L146.53 44.75Z" stroke="#FFFFFF" stroke-opacity="1.000000" stroke-width="2.958900"/>
		<path id="Vector" d="M162.78 30.34C162.78 26.07 163.93 22.63 166.23 20C168.54 17.38 171.57 16.07 175.34 16.07C179.31 16.07 182.39 17.32 184.59 19.85C186.78 22.37 187.88 25.87 187.88 30.34C187.88 34.8 186.75 38.32 184.51 40.89C182.26 43.46 179.21 44.75 175.34 44.75C171.38 44.75 168.3 43.45 166.09 40.85C163.88 38.25 162.78 34.75 162.78 30.34ZM167.96 30.34C167.96 37.26 170.42 40.72 175.34 40.72C177.64 40.72 179.43 39.8 180.74 37.94C182.04 36.08 182.69 33.55 182.69 30.34C182.69 23.51 180.24 20.09 175.34 20.09C173.1 20.09 171.3 21 169.97 22.82C168.63 24.64 167.96 27.15 167.96 30.34Z" fill="#FFFFFF" fill-opacity="1.000000" fill-rule="nonzero"/>
		<path id="Vector" d="M166.23 20C168.54 17.38 171.57 16.07 175.34 16.07C179.31 16.07 182.39 17.32 184.59 19.85C186.78 22.37 187.88 25.87 187.88 30.34C187.88 34.8 186.75 38.32 184.51 40.89C182.26 43.46 179.21 44.75 175.34 44.75C171.38 44.75 168.3 43.45 166.09 40.85C163.88 38.25 162.78 34.75 162.78 30.34C162.78 26.07 163.93 22.63 166.23 20ZM175.34 40.72C177.64 40.72 179.43 39.8 180.74 37.94C182.04 36.08 182.69 33.55 182.69 30.34C182.69 23.51 180.24 20.09 175.34 20.09C173.1 20.09 171.3 21 169.97 22.82C168.63 24.64 167.96 27.15 167.96 30.34C167.96 37.26 170.42 40.72 175.34 40.72Z" stroke="#FFFFFF" stroke-opacity="1.000000" stroke-width="2.958900"/>
		<path id="Vector" d="M209.06 21.78C207.99 21.04 206.91 20.67 205.83 20.67C204.09 20.67 202.58 21.47 201.28 23.08C199.98 24.68 199.33 26.62 199.33 28.88L199.33 44.75L194.39 44.75L194.39 17.05L199.33 17.05L199.33 21.49C201.12 18.2 203.77 16.56 207.3 16.56C208.18 16.56 209.45 16.71 211.1 17.02L209.06 21.78Z" fill="#FFFFFF" fill-opacity="1.000000" fill-rule="nonzero"/>
		<path id="Vector" d="M205.83 20.67C204.09 20.67 202.58 21.47 201.28 23.08C199.98 24.68 199.33 26.62 199.33 28.88L199.33 44.75L194.39 44.75L194.39 17.05L199.33 17.05L199.33 21.49C201.12 18.2 203.77 16.56 207.3 16.56C208.18 16.56 209.45 16.71 211.1 17.02L209.06 21.78C207.99 21.04 206.91 20.67 205.83 20.67Z" stroke="#FFFFFF" stroke-opacity="1.000000" stroke-width="2.958900"/>
		<path id="Vector" d="M217.13 36.4L217.13 5.21L222.07 5.21L222.07 35.61C222.07 37.09 222.49 38.26 223.34 39.11C224.19 39.97 225.31 40.39 226.68 40.39L226.68 44.75C220.31 44.75 217.13 41.97 217.13 36.4Z" fill="#FFFFFF" fill-opacity="1.000000" fill-rule="nonzero"/>
		<path id="Vector" d="M217.13 5.21L222.07 5.21L222.07 35.61C222.07 37.09 222.49 38.26 223.34 39.11C224.19 39.97 225.31 40.39 226.68 40.39L226.68 44.75C220.31 44.75 217.13 41.97 217.13 36.4L217.13 5.21Z" stroke="#FFFFFF" stroke-opacity="1.000000" stroke-width="2.958900"/>
		<path id="Vector" d="M250.59 44.26L250.59 42.21C248.89 43.91 246.41 44.75 243.15 44.75C239.69 44.75 236.88 43.51 234.73 41.03C232.58 38.55 231.5 35.24 231.5 31.1C231.5 26.95 232.74 23.41 235.22 20.47C237.7 17.53 240.65 16.07 244.08 16.07C246.94 16.07 249.11 16.73 250.59 18.08L250.59 5.21L255.53 5.21L255.53 44.26L250.59 44.26ZM250.59 22.97C249.35 21.1 247.66 20.17 245.51 20.17C242.88 20.17 240.75 21.16 239.12 23.12C237.5 25.09 236.68 27.59 236.68 30.62C236.68 37.3 239.71 40.64 245.77 40.64C246.54 40.64 247.47 40.39 248.55 39.9C249.64 39.41 250.32 38.89 250.59 38.33L250.59 22.97L250.59 22.97Z" fill="#FFFFFF" fill-opacity="1.000000" fill-rule="nonzero"/>
		<path id="Vector" d="M250.59 42.21C248.89 43.91 246.41 44.75 243.15 44.75C239.69 44.75 236.88 43.51 234.73 41.03C232.58 38.55 231.5 35.24 231.5 31.1C231.5 26.95 232.74 23.41 235.22 20.47C237.7 17.53 240.65 16.07 244.08 16.07C246.94 16.07 249.11 16.73 250.59 18.08L250.59 5.21L255.53 5.21L255.53 44.26L250.59 44.26L250.59 42.21ZM245.51 20.17C242.88 20.17 240.75 21.16 239.12 23.12C237.5 25.09 236.68 27.59 236.68 30.62C236.68 37.3 239.71 40.64 245.77 40.64C246.54 40.64 247.47 40.39 248.55 39.9C249.64 39.41 250.32 38.89 250.59 38.33L250.59 22.97L250.59 22.97C249.35 21.1 247.66 20.17 245.51 20.17Z" stroke="#FFFFFF" stroke-opacity="1.000000" stroke-width="2.958900"/>
		<path id="Vector" d="M110.83 27.34C112.37 27.34 113.69 27.87 114.77 28.97C115.87 30.05 116.4 31.35 116.4 32.87C116.4 34.4 115.87 35.72 114.77 36.8C113.69 37.89 112.37 38.42 110.83 38.42C109.32 38.42 108.01 37.89 106.93 36.8C105.85 35.72 105.3 34.4 105.3 32.87C105.3 31.32 105.83 30.01 106.91 28.93C107.98 27.87 109.29 27.34 110.83 27.34Z" fill="#434343" fill-opacity="1.000000" fill-rule="evenodd"/>
		<path id="Vector" d="M73.86 58.14L72.65 54.57L72.41 53.85L72.39 53.85L72.41 54.62L72.41 58.14L71.39 58.14L71.39 53.14L73.11 53.14L74.11 56.05L74.33 56.94L74.35 56.94L74.58 56.05L75.58 53.14L77.3 53.14L77.3 58.14L76.28 58.14L76.28 54.62L76.3 53.85L76.27 53.85L76.04 54.57L74.83 58.14L73.86 58.14Z" fill="#FFFFFF" fill-opacity="1.000000" fill-rule="evenodd"/>
		<path id="Vector" d="M80.75 53.14L80.75 55.71L80.73 56.93L80.75 56.93L81.11 56.2L82.86 53.14L84.08 53.14L84.08 58.14L83.06 58.14L83.06 55.56L83.09 54.35L83.06 54.35L82.72 55.11L80.95 58.14L79.73 58.14L79.73 53.14L80.75 53.14Z" fill="#FFFFFF" fill-opacity="1.000000" fill-rule="evenodd"/>
		<path id="Vector" d="M88 53.14C89.81 53.14 89.92 54.39 89.92 54.7C89.92 55.36 89.46 56.26 88.18 56.26L87.53 56.26L87.53 58.14L86.51 58.14L86.51 53.14L88 53.14ZM88 55.48C88.61 55.48 88.85 55.05 88.85 54.67C88.85 54.26 88.58 53.92 88 53.92L87.53 53.92L87.53 55.48L88 55.48Z" fill="#FFFFFF" fill-opacity="1.000000" fill-rule="evenodd"/>
		<path id="Vector" d="M96.26 53.14L96.26 55.71L96.24 56.93L96.26 56.93L96.62 56.2L98.37 53.14L99.59 53.14L99.59 58.14L98.57 58.14L98.57 55.56L98.59 54.35L98.57 54.35L98.23 55.11L96.46 58.14L95.24 58.14L95.24 53.14L96.26 53.14Z" fill="#FFFFFF" fill-opacity="1.000000" fill-rule="evenodd"/>
		<path id="Vector" d="M103.04 53.14L103.04 55.15L105.08 55.15L105.08 53.14L106.09 53.14L106.09 58.14L105.08 58.14L105.08 55.98L103.04 55.98L103.04 58.14L102.03 58.14L102.03 53.14L103.04 53.14Z" fill="#FFFFFF" fill-opacity="1.000000" fill-rule="evenodd"/>
		<path id="Vector" d="M111.97 53.5L112.27 53.5C113.41 53.5 114.49 54.24 114.49 55.64C114.49 57.05 113.41 57.79 112.27 57.79L111.97 57.79L111.97 58.43L110.95 58.43L110.95 57.79L110.65 57.79C109.5 57.79 108.42 57.05 108.42 55.64C108.42 54.24 109.5 53.5 110.65 53.5L110.95 53.5L110.95 52.85L111.97 52.85L111.97 53.5ZM110.95 57L110.95 54.28L110.73 54.28C110.05 54.28 109.49 54.71 109.49 55.64C109.49 56.58 110.05 57 110.73 57L110.95 57ZM111.97 54.28L111.97 57L112.18 57C112.86 57 113.42 56.58 113.42 55.64C113.42 54.71 112.86 54.28 112.18 54.28L111.97 54.28Z" fill="#FFFFFF" fill-opacity="1.000000" fill-rule="evenodd"/>
		<path id="Vector" d="M121.55 55.64C121.55 57.46 120.34 58.2 119.1 58.2C117.86 58.2 116.64 57.46 116.64 55.64C116.64 53.83 117.86 53.08 119.1 53.08C120.34 53.08 121.55 53.83 121.55 55.64ZM117.71 55.64C117.71 57.34 118.72 57.49 119.1 57.49C119.48 57.49 120.48 57.34 120.48 55.64C120.48 53.95 119.48 53.8 119.1 53.8C118.72 53.8 117.71 53.95 117.71 55.64Z" fill="#FFFFFF" fill-opacity="1.000000" fill-rule="evenodd"/>
		<path id="Vector" d="M125.29 53.14C127.11 53.14 127.22 54.39 127.22 54.7C127.22 55.36 126.76 56.26 125.48 56.26L124.83 56.26L124.83 58.14L123.81 58.14L123.81 53.14L125.29 53.14ZM125.29 55.48C125.91 55.48 126.14 55.05 126.14 54.67C126.14 54.26 125.88 53.92 125.29 53.92L124.83 53.92L124.83 55.48L125.29 55.48Z" fill="#FFFFFF" fill-opacity="1.000000" fill-rule="evenodd"/>
		<path id="Vector" d="M131.91 58.14L130.69 54.57L130.46 53.85L130.44 53.85L130.46 54.62L130.46 58.14L129.44 58.14L129.44 53.14L131.16 53.14L132.16 56.05L132.38 56.94L132.4 56.94L132.63 56.05L133.63 53.14L135.35 53.14L135.35 58.14L134.33 58.14L134.33 54.62L134.34 53.85L134.32 53.85L134.09 54.57L132.87 58.14L131.91 58.14Z" fill="#FFFFFF" fill-opacity="1.000000" fill-rule="evenodd"/>
		<path id="Vector" d="M140.54 53.14L142.54 58.14L141.39 58.14L140.97 57.02L138.9 57.02L138.48 58.14L137.39 58.14L139.38 53.14L140.54 53.14ZM140.67 56.19L139.93 54.14L139.92 54.14L139.22 56.19L140.67 56.19Z" fill="#FFFFFF" fill-opacity="1.000000" fill-rule="evenodd"/>
		<path id="Vector" d="M145.59 53.14L145.59 57.26L147.63 57.26L147.63 53.14L148.64 53.14L148.64 57.26L149.22 57.26L149.22 59.17L148.3 59.17L148.3 58.14L144.58 58.14L144.58 53.14L145.59 53.14Z" fill="#FFFFFF" fill-opacity="1.000000" fill-rule="evenodd"/>
		<path id="Vector" d="M152.32 53.14L152.32 55.71L152.3 56.93L152.32 56.93L152.68 56.2L154.43 53.14L155.65 53.14L155.65 58.14L154.63 58.14L154.63 55.56L154.65 54.35L154.63 54.35L154.29 55.11L152.52 58.14L151.3 58.14L151.3 53.14L152.32 53.14Z" fill="#FFFFFF" fill-opacity="1.000000" fill-rule="evenodd"/>
		<path id="Vector" d="M162.82 55.64C162.82 57.46 161.6 58.2 160.36 58.2C159.12 58.2 157.9 57.46 157.9 55.64C157.9 53.83 159.12 53.08 160.36 53.08C161.6 53.08 162.82 53.83 162.82 55.64ZM158.98 55.64C158.98 57.34 159.98 57.49 160.36 57.49C160.74 57.49 161.74 57.34 161.74 55.64C161.74 53.95 160.74 53.8 160.36 53.8C159.98 53.8 158.98 53.95 158.98 55.64Z" fill="#FFFFFF" fill-opacity="1.000000" fill-rule="evenodd"/>
		<path id="Vector" d="M166.09 53.14L166.09 55.15L168.12 55.15L168.12 53.14L169.14 53.14L169.14 58.14L168.12 58.14L168.12 55.98L166.09 55.98L166.09 58.14L165.07 58.14L165.07 53.14L166.09 53.14Z" fill="#FFFFFF" fill-opacity="1.000000" fill-rule="evenodd"/>
		<path id="Vector" d="M172.59 53.14L172.59 55.15L174.62 55.15L174.62 53.14L175.64 53.14L175.64 58.14L174.62 58.14L174.62 55.98L172.59 55.98L172.59 58.14L171.57 58.14L171.57 53.14L172.59 53.14Z" fill="#FFFFFF" fill-opacity="1.000000" fill-rule="evenodd"/>
		<path id="Vector" d="M179.09 55.01L179.8 55.01C181.52 55.01 181.64 56.21 181.64 56.53C181.64 57.3 181.21 58.14 179.76 58.14L178.08 58.14L178.08 53.14L179.09 53.14L179.09 55.01ZM179.09 57.35L179.76 57.35C180.25 57.35 180.61 57.06 180.61 56.58C180.61 56.26 180.45 55.8 179.69 55.8L179.09 55.8L179.09 57.35ZM183.38 53.14L183.38 58.14L182.36 58.14L182.36 53.14L183.38 53.14Z" fill="#FFFFFF" fill-opacity="1.000000" fill-rule="evenodd"/>
		<path id="Vector" d="M186.81 53.14L187.61 54.53L187.84 54.96L187.86 54.96L188.09 54.53L188.91 53.14L190.02 53.14L188.5 55.53L190.17 58.14L188.97 58.14L188.01 56.56L187.79 56.17L187.77 56.17L187.56 56.56L186.56 58.14L185.45 58.14L187.13 55.53L185.6 53.14L186.81 53.14Z" fill="#FFFFFF" fill-opacity="1.000000" fill-rule="evenodd"/>
		<path id="Vector" d="M198.87 53.14L198.87 54.02L197.42 54.02L197.42 58.14L196.4 58.14L196.4 54.02L194.96 54.02L194.96 53.14L198.87 53.14Z" fill="#FFFFFF" fill-opacity="1.000000" fill-rule="evenodd"/>
		<path id="Vector" d="M203.9 53.14L203.9 54.02L201.92 54.02L201.92 55.15L203.72 55.15L203.72 55.98L201.92 55.98L201.92 57.26L203.9 57.26L203.9 58.14L200.9 58.14L200.9 53.14L203.9 53.14Z" fill="#FFFFFF" fill-opacity="1.000000" fill-rule="evenodd"/>
		<path id="Vector" d="M207.18 53.14L207.99 54.53L208.22 54.96L208.24 54.96L208.47 54.53L209.29 53.14L210.4 53.14L208.88 55.53L210.55 58.14L209.35 58.14L208.39 56.56L208.17 56.17L208.15 56.17L207.94 56.56L206.94 58.14L205.83 58.14L207.51 55.53L205.98 53.14L207.18 53.14Z" fill="#FFFFFF" fill-opacity="1.000000" fill-rule="evenodd"/>
		<path id="Vector" d="M213.64 53.14L213.64 55.15L215.68 55.15L215.68 53.14L216.7 53.14L216.7 58.14L215.68 58.14L215.68 55.98L213.64 55.98L213.64 58.14L212.63 58.14L212.63 53.14L213.64 53.14Z" fill="#FFFFFF" fill-opacity="1.000000" fill-rule="evenodd"/>
		<path id="Vector" d="M223.86 55.64C223.86 57.46 222.64 58.2 221.41 58.2C220.17 58.2 218.95 57.46 218.95 55.64C218.95 53.83 220.17 53.08 221.41 53.08C222.64 53.08 223.86 53.83 223.86 55.64ZM220.02 55.64C220.02 57.34 221.03 57.49 221.41 57.49C221.78 57.49 222.79 57.34 222.79 55.64C222.79 53.95 221.78 53.8 221.41 53.8C221.03 53.8 220.02 53.95 220.02 55.64Z" fill="#FFFFFF" fill-opacity="1.000000" fill-rule="evenodd"/>
		<path id="Vector" d="M229.98 53.14L229.98 58.14L228.96 58.14L228.96 54.02L227.64 54.02L227.64 55.03C227.64 56.71 227.66 58.2 226.17 58.2C226.01 58.2 225.82 58.17 225.69 58.14L225.73 57.35C225.8 57.37 225.93 57.39 226 57.39C226.79 57.39 226.68 55.96 226.68 54.77L226.68 53.14L229.98 53.14Z" fill="#FFFFFF" fill-opacity="1.000000" fill-rule="evenodd"/>
		<path id="Vector" d="M237.15 55.64C237.15 57.46 235.93 58.2 234.69 58.2C233.45 58.2 232.23 57.46 232.23 55.64C232.23 53.83 233.45 53.08 234.69 53.08C235.93 53.08 237.15 53.83 237.15 55.64ZM233.31 55.64C233.31 57.34 234.31 57.49 234.69 57.49C235.07 57.49 236.07 57.34 236.07 55.64C236.07 53.95 235.07 53.8 234.69 53.8C234.31 53.8 233.31 53.95 233.31 55.64Z" fill="#FFFFFF" fill-opacity="1.000000" fill-rule="evenodd"/>
		<path id="Vector" d="M242.48 53.14L242.48 54.02L240.42 54.02L240.42 58.14L239.4 58.14L239.4 53.14L242.48 53.14Z" fill="#FFFFFF" fill-opacity="1.000000" fill-rule="evenodd"/>
		<path id="Vector" d="M245.5 53.14L245.5 55.71L245.48 56.93L245.5 56.93L245.86 56.2L247.61 53.14L248.83 53.14L248.83 58.14L247.82 58.14L247.82 55.56L247.84 54.35L247.82 54.35L247.47 55.11L245.7 58.14L244.49 58.14L244.49 53.14L245.5 53.14Z" fill="#FFFFFF" fill-opacity="1.000000" fill-rule="evenodd"/>
		<path id="Vector" d="M252.29 53.14L252.29 55.71L252.27 56.93L252.29 56.93L252.64 56.2L254.4 53.14L255.61 53.14L255.61 58.14L254.6 58.14L254.6 55.56L254.62 54.35L254.6 54.35L254.26 55.11L252.48 58.14L251.27 58.14L251.27 53.14L252.29 53.14ZM254.71 51.95C254.42 52.67 253.81 52.78 253.39 52.78C252.97 52.78 252.36 52.67 252.06 51.95L252.59 51.67C252.76 52.11 253.21 52.14 253.39 52.14C253.56 52.14 254.01 52.11 254.19 51.67L254.71 51.95Z" fill="#FFFFFF" fill-opacity="1.000000" fill-rule="evenodd"/>
	</g>
</svg>
