<svg width="122.000000" height="122.000000" viewBox="0 0 122 122" fill="none" xmlns="http://www.w3.org/2000/svg" xmlns:xlink="http://www.w3.org/1999/xlink">
	<desc>
			Created with Pixso.
	</desc>
	<defs>
		<clipPath id="clip28_10673">
			<rect id="variant=34" rx="0.000000" width="121.000000" height="121.000000" transform="translate(0.500000 0.500000)" fill="white" fill-opacity="0"/>
		</clipPath>
	</defs>
	<g clip-path="url(#clip28_10673)">
		<g opacity="0.500000">
			<path id="Vector" d="M32.26 57.25C32.1 56.67 32.03 55.69 32.23 55.12C32.25 55.09 32.27 55.06 32.29 55.03C32.55 55.62 32.52 56.8 32.71 57.5C32.54 57.47 32.44 57.44 32.29 57.35L32.26 57.25Z" fill="#F5F5F5" fill-opacity="1.000000" fill-rule="evenodd"/>
			<path id="Vector" d="M84.04 33.29L84.09 33.35C84.06 33.41 84.06 33.43 84.01 33.5C83.96 33.57 82.24 35.47 82.2 35.5C82.06 35.62 81.97 35.62 81.79 35.65C81.73 35.57 81.71 35.52 81.69 35.41C82.49 34.72 83.28 34.01 84.04 33.29Z" fill="#CCCCCC" fill-opacity="1.000000" fill-rule="evenodd"/>
			<path id="Vector" d="M36.42 65.88C37.15 65.69 37.96 65.36 38.7 65.51C38.06 66.01 37.33 66.41 36.67 66.9C36.58 66.56 36.51 66.22 36.42 65.88Z" fill="#FFFFFF" fill-opacity="1.000000" fill-rule="evenodd"/>
			<path id="Vector" d="M47.5 105.47C47.96 105.32 48.41 105.17 48.87 105.04C49.35 105.48 49.74 106 50.16 106.49C50.05 106.54 49.96 106.57 49.82 106.55C49.2 106.48 47.92 105.95 47.5 105.47Z" fill="#FFFFFF" fill-opacity="1.000000" fill-rule="evenodd"/>
			<path id="Vector" d="M28.26 31.28C28.35 31.25 28.29 31.26 28.43 31.29C28.53 31.71 28.26 32.81 28.19 33.3C27.88 33.39 27.57 33.47 27.26 33.55C27.25 33.44 27.25 33.49 27.26 33.38C27.33 32.73 27.25 32.19 27.06 31.57C27.44 31.43 27.86 31.36 28.26 31.28Z" fill="#F5F5F5" fill-opacity="1.000000" fill-rule="evenodd"/>
			<path id="Vector" d="M37.4 99.72C38.23 99.89 39.28 101.3 39.9 101.32C39.93 101.32 39.97 101.32 40.01 101.32C40.04 101.33 40.07 101.33 40.1 101.33C39.3 101.46 38.49 101.55 37.69 101.67C37.61 101.02 37.51 100.37 37.4 99.72Z" fill="#F5F5F5" fill-opacity="1.000000" fill-rule="evenodd"/>
			<path id="Vector" d="M93.84 56.91C94.1 56.28 94.46 55.35 95.12 55.06C95.32 54.97 95.68 54.92 95.88 54.99C95.91 55 95.93 55.01 95.96 55.03C95.74 55.84 95.16 56.66 94.78 57.42L93.84 56.91Z" fill="#FFFFFF" fill-opacity="1.000000" fill-rule="evenodd"/>
			<path id="Vector" d="M69.43 33.5C69.93 33.67 70.45 33.78 70.97 33.91C70.88 34.32 70.59 35.57 70.36 35.85C69.91 35.7 69.45 35.57 69 35.43C69.1 34.78 69.27 34.14 69.43 33.5Z" fill="#F5F5F5" fill-opacity="1.000000" fill-rule="evenodd"/>
			<path id="Vector" d="M91.56 66.13C92.28 66.44 92.97 66.65 93.76 66.52L92.4 68.44C91.94 67.98 91.36 67.62 90.86 67.21L91.56 66.13Z" fill="#F5F5F5" fill-opacity="1.000000" fill-rule="evenodd"/>
			<path id="Vector" d="M95.79 59.62L97.48 60.52C97.13 61.26 96.67 61.97 96.23 62.66C96.05 62.18 95.77 61.55 95.33 61.26L95.22 61.21C95.13 61.08 95.06 61.01 95.02 60.85C95.28 60.44 95.53 60.03 95.79 59.62Z" fill="#F5F5F5" fill-opacity="1.000000" fill-rule="evenodd"/>
			<path id="Vector" d="M30.76 57.71C30.92 57.75 31.55 58.35 31.68 58.52C31.68 58.53 31.68 58.54 31.69 58.55C31.97 59.02 32.47 59.21 32.95 59.43C33.04 59.75 33.12 60.04 33.13 60.36C32.41 60.63 32.03 60.91 31.69 61.63L31.65 61.72C31.6 61.82 31.62 61.78 31.55 61.88C31.38 61.42 31.33 60.86 31.24 60.37L30.76 57.71Z" fill="#F5F5F5" fill-opacity="1.000000" fill-rule="evenodd"/>
			<path id="Vector" d="M87.45 71.66C87.67 71.83 87.9 71.97 88.13 72.12C88.35 72.31 88.72 72.71 88.99 72.78C88.78 73.17 88.46 73.53 88.15 73.84C87.94 73.45 87.57 73.31 87.19 73.12C86.99 73.72 86.64 74.47 86.03 74.75C85.79 74.85 85.56 74.85 85.32 74.75C85.24 74.72 85.15 74.68 85.08 74.63C85.66 73.7 86.72 72.53 87.45 71.66Z" fill="#F5F5F5" fill-opacity="1.000000" fill-rule="evenodd"/>
			<path id="Vector" d="M36.41 103.75L36.71 105.67C35.8 105.73 34.89 105.78 33.97 105.79C33.98 105.17 34.04 104.52 34.13 103.91C34.88 103.88 35.67 103.87 36.41 103.75Z" fill="#F5F5F5" fill-opacity="1.000000" fill-rule="evenodd"/>
			<path id="Vector" d="M83.47 69.89C83.44 69.59 83.34 69.16 83.5 68.89C83.67 68.86 83.91 69.05 84.05 69.14C84.69 69.57 85.29 70.06 85.94 70.49C85.1 71.43 84.29 72.39 83.5 73.37L83.22 73.17C83.22 72 83.69 71.62 84.43 70.82C84.18 70.63 83.95 70.43 83.71 70.21C83.63 70.11 83.55 70 83.47 69.89Z" fill="#FFFFFF" fill-opacity="1.000000" fill-rule="evenodd"/>
			<path id="Vector" d="M84.2 75.51C84.29 75.58 84.41 75.64 84.48 75.73C84.77 76.19 85.3 76.45 85.77 76.67C85.06 77.48 84.33 78.27 83.59 79.05C83.3 78.44 82.96 77.83 82.64 77.23C83.17 76.67 83.65 76.06 84.2 75.51Z" fill="#F5F5F5" fill-opacity="1.000000" fill-rule="evenodd"/>
			<path id="Vector" d="M32.32 65.76C32.56 65.85 32.67 65.85 32.92 65.79L33.17 66.57L34.48 66.26C34.62 66.91 34.77 67.55 34.95 68.19C34.41 68.61 33.73 69.05 33.31 69.59C32.91 68.35 32.65 67.03 32.32 65.76Z" fill="#F5F5F5" fill-opacity="1.000000" fill-rule="evenodd"/>
			<path id="Vector" d="M33.6 70.53C33.74 70.55 33.87 70.58 34 70.63C34.1 70.82 34.2 71.01 34.29 71.21C34.82 71.3 35.35 71.37 35.88 71.43C36.05 71.98 36.19 72.53 36.38 73.07C35.73 73.39 35.41 73.59 35.17 74.3C35.09 74.51 35.07 74.82 34.94 74.99C34.75 74.55 34.64 74.05 34.5 73.6C34.18 72.58 33.88 71.56 33.6 70.53Z" fill="#F5F5F5" fill-opacity="1.000000" fill-rule="evenodd"/>
			<path id="Vector" d="M97.78 55.79C98.34 56.11 98.91 56.5 99.5 56.73C99.16 57.61 98.66 58.44 98.22 59.27C97.71 58.86 97.06 58.65 96.52 58.29C96.93 57.46 97.41 56.65 97.78 55.79Z" fill="#F5F5F5" fill-opacity="1.000000" fill-rule="evenodd"/>
			<path id="Vector" d="M63.89 32.17C65.08 32.42 66.27 32.66 67.44 32.98C67.3 33.63 67.12 34.29 67.02 34.94C65.91 34.51 64.64 34.32 63.48 34.08C63.54 33.44 63.74 32.79 63.89 32.17Z" fill="#F5F5F5" fill-opacity="1.000000" fill-rule="evenodd"/>
			<path id="Vector" d="M25.36 31.97C25.38 32.39 25.32 32.69 25.03 33.01C24.43 33.67 23.21 33.88 22.36 33.9C22.02 33.91 21.66 33.89 21.32 33.85L21.28 34.95C21.51 34.98 21.79 34.98 21.98 35.1C21.31 35.42 20.59 35.67 19.91 35.98C19.82 35.29 19.7 34.71 19.37 34.09C20.34 33.66 21.32 33.26 22.32 32.91C23.32 32.56 24.34 32.25 25.36 31.97Z" fill="#F5F5F5" fill-opacity="1.000000" fill-rule="evenodd"/>
			<path id="Vector" d="M27.49 103.04C27.99 103.14 28.48 103.25 28.98 103.36C29.12 103.61 29.24 103.69 29.52 103.78L29.78 104.28L30.59 104.43L31.01 103.71C31.47 103.75 31.94 103.79 32.4 103.84L32.31 105.18C32.5 105.2 32.69 105.22 32.88 105.26C32.91 105.37 32.96 105.49 32.94 105.62C32.93 105.68 32.93 105.68 32.88 105.7C32.25 105.99 27.94 105.11 27.12 104.89C27.19 104.27 27.35 103.65 27.49 103.04Z" fill="#F5F5F5" fill-opacity="1.000000" fill-rule="evenodd"/>
			<path id="Vector" d="M66.31 114.33C66.32 114.19 66.32 114.07 66.31 113.94C66.03 113.78 65.67 113.77 65.36 113.71C64.72 113.6 64.06 113.37 63.51 113C63.03 112.67 62.66 112.18 62.54 111.6L62.88 111.94C63.23 112.31 63.82 112.57 64.27 112.8C66.21 113.77 68.3 114.55 70.45 114.87C70.41 115.39 70.36 115.93 70.33 116.45C70.56 116.43 70.8 116.39 71.02 116.39C71.02 116.53 71.01 116.65 70.98 116.79C70.08 117.03 66.08 115.72 65.08 115.3C65.69 115.4 66.27 115.57 66.89 115.64C66.92 115.28 66.96 114.91 67 114.54C66.75 114.5 66.54 114.42 66.31 114.33Z" fill="#F5F5F5" fill-opacity="1.000000" fill-rule="evenodd"/>
			<path id="Vector" d="M36.11 98.17C36.3 98.15 36.41 98.1 36.59 98.19C36.67 98.37 36.69 98.58 36.72 98.78C37.07 100.68 37.34 102.64 37.55 104.57L38.17 104.51C39.12 104.35 40.07 104.2 41.02 104.06C41.05 104.28 41.06 104.52 41.16 104.73C41.09 104.86 41.09 104.88 40.94 104.93C40.33 105.12 39.59 105.18 38.96 105.28C38.22 105.41 37.46 105.58 36.71 105.66L36.41 103.75C36.3 103.34 36.26 102.05 36.05 101.84C36.24 101.54 35.58 98.93 35.63 98.32C35.72 98.21 35.96 98.2 36.11 98.17Z" fill="#989898" fill-opacity="1.000000" fill-rule="evenodd"/>
			<path id="Vector" d="M55.91 30.74C57.89 31.1 59.9 31.34 61.88 31.72C61.75 32.37 61.57 33.03 61.47 33.69C59.96 33.22 57.22 32.89 55.6 32.68C55.69 32.03 55.79 31.38 55.91 30.74Z" fill="#F5F5F5" fill-opacity="1.000000" fill-rule="evenodd"/>
			<path id="Vector" d="M38 103.64C39.7 103.4 41.38 103.08 43.05 102.68C44.11 102.41 45.21 101.98 46.28 101.81C46.72 102.33 47.14 102.87 47.55 103.41C46.04 103.9 43.3 104.8 41.79 104.9C41.7 104.84 41.6 104.77 41.5 104.73C41.4 104.69 41.26 104.72 41.16 104.73C41.06 104.52 41.05 104.29 41.02 104.06C40.07 104.2 39.12 104.35 38.17 104.51C38.1 104.22 38.04 103.93 38 103.64Z" fill="#F5F5F5" fill-opacity="1.000000" fill-rule="evenodd"/>
			<path id="Vector" d="M43.25 106.61C44.67 106.42 46.13 105.89 47.5 105.47C47.92 105.95 49.2 106.48 49.82 106.55C49.96 106.57 50.05 106.54 50.16 106.49C50.48 106.75 50.77 107.12 51.06 107.42C51.67 108.05 52.28 108.67 52.9 109.29C51.84 109.03 50.76 108.87 49.7 108.62C47.5 108.09 45.36 107.42 43.25 106.61Z" fill="#F5F5F5" fill-opacity="1.000000" fill-rule="evenodd"/>
			<path id="Vector" d="M80.25 79.76C80.9 80.01 81.54 80.31 82.22 80.46C80.37 82.34 78.46 84.34 76.39 85.98C75.99 85.5 75.5 85.08 75.14 84.56C76.02 83.62 77.06 82.8 78 81.92C78.75 81.23 79.46 80.39 80.25 79.76Z" fill="#F5F5F5" fill-opacity="1.000000" fill-rule="evenodd"/>
			<path id="Vector" d="M14.79 28.52C15.17 28.32 15.54 28.14 15.92 27.96C16.6 29.17 17.22 30.42 17.85 31.66C18.29 32.53 18.87 33.46 19.12 34.41C19.24 34.89 19.27 35.39 19.12 35.87C18.88 36.66 18.17 37.19 17.47 37.55C16.93 37.82 16.41 37.94 15.83 38.05C15.58 38.01 15.32 38.01 15.07 38C15.06 37.62 15.04 37.26 15.02 36.89C15.32 36.9 15.62 36.91 15.91 36.87C16.56 36.8 17.31 36.53 17.7 35.98C17.98 35.58 17.98 35.17 17.91 34.71C17.27 33.25 16.48 31.85 15.74 30.43C15.42 29.8 15.06 29.17 14.79 28.52Z" fill="#989898" fill-opacity="1.000000" fill-rule="evenodd"/>
			<path id="Vector" d="M30.68 53.78C30.89 53.83 31.1 53.89 31.31 53.94C31.49 54 31.65 54.06 31.75 54.23L31.67 54.48C31.4 55.25 31.39 56.18 31.76 56.94C31.86 57.14 31.96 57.21 32.17 57.28L32.26 57.25L32.29 57.35C32.44 57.44 32.54 57.47 32.71 57.5C35.08 57.49 37.42 56.71 39.78 56.62C39.86 57.03 39.9 57.41 39.92 57.81C38.63 58.04 37.33 58.25 36.04 58.43C35.08 58.58 34.09 58.78 33.12 58.78C32.64 58.78 32.13 58.73 31.69 58.54C31.68 58.53 31.68 58.53 31.68 58.52C31.55 58.35 30.92 57.75 30.76 57.71C30.46 56.69 30.32 55.83 30.31 54.76C30.53 54.58 30.59 54.07 30.68 53.78Z" fill="#989898" fill-opacity="1.000000" fill-rule="evenodd"/>
			<path id="Vector" d="M106.6 43.57C106.86 43.78 107.05 44.53 107.17 44.87C108.1 47.53 108.75 50.23 109.24 53L108.31 52.1C107.23 51.04 106.09 50.07 104.96 49.07C105.52 47.23 106.12 45.42 106.6 43.57Z" fill="#FFFFFF" fill-opacity="1.000000" fill-rule="evenodd"/>
			<path id="Vector" d="M82.97 69.53L83.47 69.89C83.55 70 83.63 70.1 83.71 70.21C83.95 70.42 84.18 70.63 84.43 70.82C83.69 71.61 83.22 72 83.22 73.16L83.5 73.37C84.02 73.79 84.51 74.28 85.08 74.62C85.15 74.68 85.24 74.71 85.32 74.75C85.56 74.85 85.79 74.85 86.03 74.75C86.64 74.47 86.99 73.72 87.19 73.12C87.57 73.31 87.94 73.44 88.15 73.83C88.13 73.86 88.11 73.88 88.08 73.91C87.91 74.1 87.81 74.35 87.67 74.56C87.25 75.21 86.66 75.92 85.85 76.01C85.32 76.07 84.96 75.91 84.48 75.73C84.41 75.64 84.29 75.57 84.2 75.5C83.62 75.11 83.1 74.61 82.57 74.16C81.39 73.17 80.24 72.15 79.1 71.1C79.28 70.75 79.5 70.42 79.71 70.08C80.25 70.53 80.79 70.98 81.32 71.44C81.83 70.77 82.42 70.15 82.97 69.53ZM83.71 70.21C83.22 70.88 82.6 71.46 82.09 72.12C82.47 72.47 82.86 72.81 83.22 73.16C83.22 72 83.69 71.61 84.43 70.82C84.18 70.63 83.95 70.42 83.71 70.21Z" fill="#989898" fill-opacity="1.000000" fill-rule="evenodd"/>
			<path id="Vector" d="M23.61 29.45C24.16 28.7 24.82 28.03 25.46 27.37C27.01 25.74 28.65 24.14 30.45 22.78C29.72 24.84 29.23 27.04 28.83 29.19C27.73 29.42 26.62 29.62 25.53 29.92L25.48 29.93C24.88 29.68 24.25 29.57 23.61 29.45Z" fill="#F0F0F0" fill-opacity="1.000000" fill-rule="evenodd"/>
			<path id="Vector" d="M91.78 57.2C91.94 56.57 92.15 55.93 92.41 55.33C92.78 54.48 93.3 53.55 94.22 53.21C95.08 52.9 95.93 53.24 96.71 53.61C97.33 53.82 97.91 54.2 98.47 54.53C99.03 54.82 99.67 55.1 100.19 55.47C99.99 55.81 99.79 56.16 99.61 56.51C98.48 55.91 96.63 54.75 95.47 54.43C95.16 54.34 94.8 54.3 94.49 54.41C93.97 54.58 93.64 55.19 93.43 55.66C93.3 55.95 93.2 56.24 93.11 56.54C93.37 56.64 93.6 56.76 93.84 56.91L94.79 57.42C95.37 57.67 95.93 58.08 96.52 58.3C97.06 58.66 97.71 58.87 98.22 59.28C98 59.58 97.82 59.94 97.63 60.27C95.96 59.48 94.1 58.2 92.41 57.62C92.34 57.42 91.96 57.29 91.78 57.2Z" fill="#989898" fill-opacity="1.000000" fill-rule="evenodd"/>
			<path id="Vector" d="M79.98 73.05C81.18 74.95 84.28 79.77 83.74 81.96C83.55 82.75 82.89 83.26 82.27 83.71C82.12 83.67 82.06 83.59 81.96 83.48L81.59 82.92C82.12 82.6 82.6 82.26 82.76 81.62C82.87 81.15 82.76 80.62 82.64 80.16C80.19 79.44 78.02 78.53 75.76 77.35C76.05 77.04 76.33 76.72 76.66 76.44C77.48 76.82 80.64 78.55 81.42 78.49C81.49 78.43 81.54 78.42 81.54 78.32C81.55 77.68 79.55 74.7 79.1 73.92C79.35 73.58 79.64 73.31 79.98 73.05Z" fill="#989898" fill-opacity="1.000000" fill-rule="evenodd"/>
			<path id="Vector" d="M25.36 31.97C24.69 29.86 21.57 31.21 20.17 29.84C19.69 29.37 19.47 28.65 19.48 27.98C19.5 27.35 19.82 26.75 20.29 26.34C21.38 25.38 22.91 25.26 24.29 25.35L24.22 26.46C23.25 26.39 22.14 26.45 21.31 27.03C21.05 27.22 20.82 27.47 20.78 27.8C20.73 28.15 20.89 28.54 21.11 28.81C21.63 29.43 22.87 29.39 23.61 29.45C24.25 29.57 24.88 29.68 25.48 29.93L25.53 29.92C26.16 30.43 26.58 31.05 26.67 31.88C26.73 32.47 26.59 33.03 26.21 33.5C25.49 34.37 24.22 34.75 23.15 34.92C22.77 34.99 22.35 35 21.98 35.1C21.79 34.98 21.51 34.98 21.28 34.96L21.32 33.85C21.66 33.89 22.02 33.91 22.36 33.91C23.21 33.89 24.43 33.67 25.03 33.01C25.32 32.69 25.38 32.39 25.36 31.97Z" fill="#989898" fill-opacity="1.000000" fill-rule="evenodd"/>
			<path id="Vector" d="M38.7 65.5L39.18 65.3C39.33 65.7 39.45 66.09 39.54 66.51C38.58 67.05 37.66 67.61 36.77 68.25C36.13 68.71 35.5 69.25 34.83 69.67C35.37 69.69 37.06 70.01 37.44 69.82C37.81 70.05 39.94 69.94 40.49 69.93C40.54 70.1 40.58 70.35 40.69 70.49C40.91 70.54 41.1 70.55 41.23 70.76C41.4 71.04 41.42 71.52 41.48 71.84C40.33 71.83 39.16 71.81 38.02 71.67C38.2 72.34 38.41 73.02 38.69 73.65C38.5 73.49 38.32 73.33 38.11 73.2C37.52 72.84 37.01 72.92 36.38 73.07C36.19 72.53 36.05 71.98 35.88 71.43C35.35 71.37 34.82 71.3 34.29 71.21C34.2 71.01 34.1 70.82 34 70.62C33.87 70.58 33.74 70.55 33.6 70.53C33.46 70.26 33.4 69.88 33.31 69.59C33.73 69.04 34.41 68.6 34.95 68.18C35.46 67.69 36.09 67.3 36.67 66.89C37.33 66.41 38.06 66.01 38.7 65.5ZM40.69 70.49C40.69 70.72 40.75 70.9 40.83 71.12C39.23 71.14 37.67 71.03 36.09 70.87C35.39 70.8 34.7 70.68 34 70.62C34.1 70.82 34.2 71.01 34.29 71.21C34.82 71.3 35.35 71.37 35.88 71.43C36.05 71.98 36.19 72.53 36.38 73.07C37.01 72.92 37.52 72.84 38.11 73.2C38.32 73.33 38.5 73.49 38.69 73.65C38.41 73.02 38.2 72.34 38.02 71.67C39.16 71.81 40.33 71.83 41.48 71.84C41.42 71.52 41.4 71.04 41.23 70.76C41.1 70.55 40.91 70.54 40.69 70.49Z" fill="#989898" fill-opacity="1.000000" fill-rule="evenodd"/>
			<path id="Vector" d="M37.93 60.04C38.43 60.87 38.91 62.37 38.68 63.33C38.54 63.89 38.16 64.34 37.66 64.62C36.69 65.17 34.12 65.57 32.92 65.79C32.67 65.85 32.56 65.85 32.32 65.76C32.18 65.07 31.94 64.4 31.78 63.71C31.64 63.1 31.59 62.5 31.55 61.88C31.62 61.78 31.6 61.83 31.65 61.73L31.69 61.63C32.03 60.91 32.41 60.63 33.13 60.37C33.6 60.23 34.11 60.24 34.55 60.47C35.24 60.83 35.61 61.61 35.81 62.33C35.96 62.87 36 63.4 36 63.95C36.58 63.8 37.17 63.65 37.48 63.09C37.75 62.59 37.63 61.96 37.46 61.45C37.34 61.08 37.18 60.74 37.02 60.39L37.93 60.04ZM32.7 62.14C32.68 62.75 32.67 63.98 33.09 64.46C33.16 64.54 33.2 64.53 33.29 64.54L33.51 64.45C33.67 64.45 33.85 64.41 34.01 64.39C34.39 64.32 34.76 64.22 35.13 64.13C35.05 63.3 34.93 62.27 34.25 61.69C34.09 61.56 33.9 61.46 33.69 61.46C33.36 61.46 33.02 61.72 32.83 61.97C32.79 62.02 32.74 62.08 32.7 62.14Z" fill="#989898" fill-opacity="1.000000" fill-rule="evenodd"/>
			<path id="Vector" d="M33.38 63.58C33.36 63.32 33.32 62.89 33.48 62.67C33.59 62.78 33.59 62.88 33.63 63.03C33.51 63.21 33.45 63.37 33.38 63.58Z" fill="#FFFFFF" fill-opacity="0.988235" fill-rule="evenodd"/>
			<path id="Vector" d="M33.63 63.03C33.78 63.48 33.91 63.92 34.01 64.39C33.85 64.41 33.67 64.45 33.51 64.45C33.42 64.17 33.41 63.88 33.38 63.58C33.45 63.37 33.51 63.21 33.63 63.03Z" fill="#F5F5F5" fill-opacity="1.000000" fill-rule="evenodd"/>
			<path id="Vector" d="M40.17 72.66L41.05 72.19L41.48 72.77L41.59 72.78C41.44 73.61 43.27 75.41 41.3 76.82C40.16 77.63 37.99 77.96 36.64 78.6L36.22 78.57C35.72 77.38 35.26 76.24 34.94 74.99C35.07 74.82 35.09 74.51 35.16 74.3C35.41 73.59 35.73 73.39 36.38 73.07C37.01 72.92 37.52 72.84 38.11 73.2C38.32 73.33 38.5 73.49 38.69 73.65L38.68 73.75L38.8 73.83C39.49 74.46 39.82 75.23 40.21 76.07C40.27 76.04 40.33 76 40.39 75.96C40.72 75.75 40.97 75.48 41.04 75.08C41.19 74.25 40.6 73.31 40.17 72.66ZM37.08 77.14C37.29 77.12 37.43 77.07 37.58 76.91L37.64 76.99C38.03 76.89 38.4 76.72 38.79 76.62C38.68 76.17 38.6 75.69 38.4 75.27C38.18 74.83 38.01 74.41 37.52 74.23C37.25 74.13 36.91 74.09 36.65 74.23C36.41 74.36 36.27 74.63 36.2 74.89C36.03 75.51 36.31 76.45 36.63 77C36.7 77.14 36.74 77.2 36.9 77.25C36.96 77.21 37.02 77.18 37.08 77.14ZM38.8 73.83C39.01 74.32 39.25 74.81 39.42 75.32C39.51 75.58 39.54 76.06 39.7 76.26L40.21 76.07C39.82 75.23 39.49 74.46 38.8 73.83Z" fill="#989898" fill-opacity="1.000000" fill-rule="evenodd"/>
			<path id="Vector" d="M37.08 77.14C36.95 76.69 36.77 76.11 36.85 75.64C36.87 75.51 36.87 75.5 36.97 75.42C36.99 75.42 37.01 75.43 37.02 75.44C37.34 75.68 37.48 76.54 37.58 76.92C37.43 77.08 37.29 77.13 37.08 77.14Z" fill="#F5F5F5" fill-opacity="1.000000" fill-rule="evenodd"/>
			<path id="Vector" d="M63.48 24.87C63.85 24.98 64.26 24.97 64.6 25.18C64.69 25.35 64.64 25.41 64.6 25.6C64.86 25.68 65.13 25.75 65.4 25.81C65.14 26.84 64.77 27.96 64.65 29.02C65.52 29.33 67.17 29.61 68.17 29.84C68.47 28.62 68.74 27.38 69.03 26.15C69.34 26.24 69.96 26.26 70.16 26.51C70.23 26.6 70.17 26.8 70.16 26.9C69.85 27.55 69.69 28.82 69.52 29.57C69.1 31.47 68.67 33.37 68.23 35.27C67.83 35.16 67.42 35.05 67.02 34.94C67.12 34.28 67.3 33.63 67.44 32.98C67.6 32.29 67.73 31.58 67.92 30.91C66.62 30.59 64.81 30.32 63.61 29.9C63.32 31.25 62.97 32.6 62.71 33.96L61.47 33.69C61.57 33.03 61.75 32.37 61.88 31.71C62.06 31.09 62.2 30.45 62.35 29.82C62.63 28.16 63.1 26.5 63.48 24.87ZM64.6 25.6C64.36 26.68 64.12 27.76 63.86 28.84C64.12 28.9 64.4 28.94 64.65 29.02C64.77 27.96 65.14 26.84 65.4 25.81C65.13 25.75 64.86 25.68 64.6 25.6Z" fill="#989898" fill-opacity="1.000000" fill-rule="evenodd"/>
			<path id="Vector" d="M90.03 64.94C89.67 64.59 89.35 64.27 89.1 63.83C88.68 63.08 88.6 62.26 88.84 61.45C88.85 61.4 88.87 61.35 88.88 61.3C88.9 61.25 88.92 61.21 88.94 61.16C88.96 61.11 88.98 61.07 89 61.02C89.02 60.97 89.04 60.92 89.07 60.88C89.09 60.83 89.12 60.79 89.14 60.75C89.17 60.7 89.19 60.66 89.22 60.61C89.25 60.57 89.28 60.53 89.31 60.49C89.34 60.44 89.37 60.41 89.4 60.37C89.44 60.32 89.47 60.28 89.5 60.25C89.54 60.21 89.57 60.17 89.61 60.14C89.65 60.1 89.68 60.07 89.72 60.03C89.76 60 89.8 59.96 89.84 59.93C89.88 59.89 89.92 59.86 89.96 59.83C90 59.8 90.04 59.77 90.08 59.75C90.13 59.71 90.17 59.69 90.21 59.66C90.26 59.64 90.3 59.61 90.35 59.58C91.47 58.99 92.35 59.28 93.47 59.63C93.97 59.93 94.71 60.35 95.02 60.85C95.06 61.01 95.13 61.09 95.23 61.21L95.33 61.26C95.71 62.17 95.88 63 95.48 63.94C95.15 64.74 94.48 65.43 93.67 65.75C92.79 66.08 91.85 65.97 91.01 65.58C90.84 65.49 90.66 65.4 90.5 65.29C90.34 65.19 90.18 65.07 90.03 64.94ZM90.68 63.73L90.78 63.84C91.22 64.35 91.94 64.61 92.59 64.73C93.18 63.83 93.75 62.94 94.32 62.03C93.73 61.26 92.95 60.58 91.95 60.44C91.44 60.37 90.92 60.48 90.5 60.79C90.14 61.07 89.88 61.48 89.83 61.94C89.76 62.53 90.05 63.12 90.43 63.56C90.5 63.65 90.57 63.7 90.68 63.73Z" fill="#989898" fill-opacity="1.000000" fill-rule="evenodd"/>
			<path id="Vector" d="M94.32 62.03C94.56 62.46 94.64 62.94 94.51 63.42C94.49 63.48 94.47 63.55 94.45 63.6C94.42 63.66 94.4 63.72 94.37 63.77C94.34 63.83 94.31 63.89 94.27 63.94C94.24 63.99 94.2 64.04 94.16 64.09C94.12 64.14 94.08 64.18 94.04 64.23C93.99 64.27 93.94 64.32 93.9 64.35C93.85 64.39 93.8 64.43 93.74 64.46C93.69 64.5 93.64 64.53 93.58 64.56C93.27 64.72 92.93 64.76 92.59 64.73C93.18 63.83 93.75 62.93 94.32 62.03Z" fill="#F5F5F5" fill-opacity="1.000000" fill-rule="evenodd"/>
			<path id="Vector" d="M90.68 63.73C90.46 63.21 90.35 62.73 90.57 62.18C90.77 61.67 91.2 61.33 91.7 61.13C92.01 61.01 92.36 60.98 92.69 60.93C92.32 61.6 91.27 63.37 90.78 63.84L90.68 63.73Z" fill="#FFFFFF" fill-opacity="1.000000" fill-rule="evenodd"/>
			<path id="Vector" d="M54.89 23.64C56.41 23.62 58.34 23.67 59.66 24.56C59.96 24.76 60.16 25.03 60.42 25.28C60.44 25.29 60.45 25.3 60.47 25.32C60.86 26.14 60.95 27 60.63 27.86C60.39 28.51 59.93 29.01 59.29 29.28C58.13 29.77 56.53 29.54 55.34 29.31C55.23 30.41 55 31.49 54.88 32.58C54.48 32.54 54.04 32.53 53.65 32.43C53.68 31.78 53.81 31.1 53.89 30.45C53.94 29.82 54.07 29.18 54.18 28.55C54.47 26.93 54.67 25.27 54.89 23.64ZM56.01 24.72C55.8 25.86 55.56 27.11 55.51 28.27C55.75 28.3 56.01 28.32 56.25 28.37C56.4 27.37 56.53 26.38 56.66 25.38C57.53 25.47 58.37 25.62 59.22 25.82C59.24 25.67 59.26 25.72 59.17 25.61C58.57 24.92 56.84 24.8 56.01 24.72Z" fill="#989898" fill-opacity="1.000000" fill-rule="evenodd"/>
			<path id="Vector" d="M56.66 25.39C57.53 25.48 58.37 25.62 59.22 25.82C59.37 25.92 59.45 26.16 59.49 26.33C59.6 26.82 59.44 27.38 59.16 27.77C59.13 27.82 59.1 27.86 59.06 27.9C59.02 27.94 58.98 27.98 58.94 28.02C58.9 28.06 58.86 28.1 58.81 28.13C58.77 28.17 58.72 28.2 58.68 28.23C58.63 28.26 58.58 28.28 58.53 28.31C58.48 28.33 58.43 28.35 58.37 28.37C58.32 28.39 58.27 28.41 58.21 28.42C58.16 28.43 58.1 28.44 58.05 28.45C57.48 28.53 56.82 28.43 56.25 28.37C56.4 27.38 56.53 26.38 56.66 25.39Z" fill="#FFFFFF" fill-opacity="1.000000" fill-rule="evenodd"/>
			<path id="Vector" d="M73.08 27.33C74.9 27.72 76.84 27.98 78.06 29.55C78.14 29.65 78.08 29.61 78.22 29.66L78.24 29.75C78.45 30.85 78.63 31.55 77.97 32.58C77.59 33.16 77.01 33.52 76.33 33.64C75.16 33.85 73.68 33.47 72.6 33.01C72.29 34.08 71.94 35.14 71.62 36.2C71.19 36.1 70.78 35.98 70.36 35.84C70.59 35.57 70.88 34.31 70.97 33.91C71.25 33.36 71.35 32.67 71.57 32.09C72.13 30.53 72.58 28.91 73.08 27.33ZM73.97 28.55C73.62 29.69 73.31 30.87 72.92 31.99L73.72 32.22C74.04 31.24 74.35 30.25 74.64 29.26C75.44 29.51 76.2 29.77 76.96 30.11C76.89 29.81 76.62 29.58 76.37 29.42C75.66 28.98 74.77 28.78 73.97 28.55Z" fill="#989898" fill-opacity="1.000000" fill-rule="evenodd"/>
			<path id="Vector" d="M74.64 29.27C75.44 29.51 76.2 29.78 76.96 30.11C77.15 30.51 77.23 31.03 77.07 31.45C77.05 31.51 77.03 31.56 77.01 31.61C76.98 31.66 76.95 31.71 76.92 31.76C76.89 31.82 76.86 31.86 76.82 31.91C76.79 31.95 76.75 32 76.71 32.04C76.67 32.08 76.63 32.12 76.58 32.16C76.54 32.2 76.49 32.23 76.45 32.27C76.4 32.3 76.35 32.33 76.3 32.36C76.25 32.39 76.2 32.41 76.14 32.44C75.54 32.7 74.4 32.58 73.8 32.27C73.77 32.26 73.75 32.24 73.72 32.22C74.04 31.24 74.35 30.26 74.64 29.27Z" fill="#FFFFFF" fill-opacity="1.000000" fill-rule="evenodd"/>
			<path id="Vector" d="M70.27 79.23C71.26 78.23 72.47 77.01 73.98 77C74.73 76.99 75.36 77.28 75.88 77.8C76.39 78.3 76.73 78.98 76.73 79.7C76.72 80.79 75.96 81.77 75.21 82.49C74.87 82.81 74.5 83.1 74.13 83.4C74.47 83.78 74.81 84.17 75.14 84.56C75.5 85.08 75.99 85.5 76.39 85.98L75.48 86.8C75.08 86.35 74.63 85.73 74.14 85.37C74.04 85.06 73.15 84.23 72.87 83.92C72.46 83.53 72.09 83.07 71.71 82.66L69.46 80.19C69.71 79.86 70 79.55 70.27 79.23ZM71.03 79.98C71.24 80.23 71.45 80.49 71.66 80.74C71.85 80.52 72.04 80.3 72.24 80.1C73.12 80.47 74.03 80.8 74.88 81.21C75.15 80.89 75.34 80.56 75.39 80.14C75.44 79.64 75.28 79.15 74.96 78.76C74.7 78.45 74.34 78.26 73.94 78.23C72.81 78.16 71.79 79.28 71.03 79.98Z" fill="#989898" fill-opacity="1.000000" fill-rule="evenodd"/>
			<path id="Vector" d="M72.24 80.1C73.12 80.46 74.03 80.8 74.88 81.21C74.54 81.75 73.89 82.25 73.42 82.69C72.82 82.05 72.2 81.42 71.66 80.73C71.85 80.52 72.04 80.3 72.24 80.1Z" fill="#FFFFFF" fill-opacity="1.000000" fill-rule="evenodd"/>
			<path id="Vector" d="M34.58 30.28C35.62 30.14 36.7 30.08 37.75 30.01C39.09 29.92 40.44 29.87 41.79 29.85C43.13 29.82 44.48 29.83 45.83 29.87C47.18 29.91 48.52 29.98 49.87 30.07C51.21 30.17 52.55 30.3 53.89 30.45C53.81 31.1 53.68 31.78 53.65 32.43C52.1 32.17 50.48 32.08 48.91 31.98C47.69 31.88 46.47 31.82 45.25 31.78C44.03 31.75 42.81 31.75 41.59 31.77C40.37 31.8 39.15 31.85 37.93 31.93C36.71 32.01 35.49 32.12 34.28 32.26C34.32 31.6 34.47 30.93 34.58 30.28Z" fill="#F5F5F5" fill-opacity="1.000000" fill-rule="evenodd"/>
			<path id="Vector" d="M14.09 81C14.43 81.69 15.46 83.64 15.63 84.27C15.86 85.09 15.68 86.3 15.74 87.19C15.84 88.48 16.07 89.74 16.27 91.02L14.7 91.73C14.8 92.02 14.87 92.35 15.09 92.57C15.24 92.63 15.3 92.6 15.46 92.56C15.58 92.82 15.7 93.08 15.8 93.35C16.13 93.19 16.46 93.02 16.81 92.9C17.15 93.76 17.5 94.62 17.89 95.46C17.47 95.63 17.06 95.81 16.65 96C16.76 96.29 16.85 96.62 17.08 96.85C17.22 96.88 17.25 96.88 17.39 96.83L17.77 97.59C18.14 97.42 18.5 97.23 18.89 97.1C19.65 97.99 20.36 98.88 21.26 99.65C20.95 100.07 20.64 100.48 20.34 100.9L21.19 101.55C21.2 101.68 21.22 101.69 21.32 101.78C21.48 101.93 21.69 102.05 21.87 102.17C22.16 101.72 22.46 101.28 22.76 100.84C23.75 101.41 24.73 101.93 25.77 102.41C25.66 103.01 25.53 103.61 25.46 104.21C25.73 104.24 26.01 104.26 26.29 104.31L26.15 104.45C26.08 104.48 26.02 104.49 25.94 104.48C25.55 104.45 25.05 104.18 24.69 104.03C24.36 103.89 24.04 103.74 23.71 103.58C23.39 103.42 23.08 103.25 22.77 103.07C22.46 102.89 22.16 102.7 21.86 102.51C21.56 102.31 21.27 102.1 20.99 101.89C20.7 101.67 20.42 101.44 20.15 101.21C19.88 100.98 19.62 100.74 19.36 100.49C19.1 100.24 18.86 99.98 18.62 99.71C18.38 99.45 18.14 99.18 17.92 98.9C13.83 93.85 13.44 87.18 14.09 81Z" fill="#F5F5F5" fill-opacity="1.000000" fill-rule="evenodd"/>
			<path id="Vector" d="M84.51 67.74C84.7 67.26 84.91 66.82 85.21 66.4C85.65 65.8 86.26 65.3 87.01 65.21C87.88 65.1 88.66 65.57 89.33 66.07C89.85 66.42 90.39 66.79 90.86 67.21C91.36 67.61 91.94 67.98 92.4 68.44C92.15 68.75 91.9 69.05 91.67 69.38C91.14 70.24 90.43 71.05 89.8 71.84C89.58 72.09 89.13 72.49 88.99 72.78C88.72 72.71 88.35 72.31 88.13 72.12C87.76 71.66 87.1 71.26 86.63 70.9C85.53 70.04 84.43 69.19 83.32 68.34C82.61 67.8 81.84 67.32 81.19 66.71L81.75 65.61C82.31 66.11 82.96 66.55 83.56 67.01C83.81 67.28 84.22 67.52 84.51 67.74ZM85.28 68.37C85.53 68.54 85.77 68.77 86.04 68.9C86.26 69.07 86.48 69.25 86.71 69.41C87.26 69.77 87.81 70.19 88.3 70.62C88.79 71.03 89.37 71.37 89.8 71.84C90.43 71.05 91.14 70.24 91.67 69.38C91.47 69.31 91.26 69.2 91.13 69.03C90.77 68.55 88.81 67.15 88.25 66.82C87.87 66.6 87.29 66.32 86.84 66.46C86.09 66.7 85.63 67.73 85.28 68.37Z" fill="#989898" fill-opacity="1.000000" fill-rule="evenodd"/>
			<path id="Vector" d="M86.04 68.9C86.29 68.34 86.76 67.34 87.37 67.12C87.65 67.02 88.06 66.96 88.32 67.1C88.38 67.23 88.39 67.17 88.34 67.3C88.18 67.74 87.08 69.05 86.71 69.41C86.47 69.25 86.26 69.07 86.04 68.9Z" fill="#FFFFFF" fill-opacity="1.000000" fill-rule="evenodd"/>
			<path id="Vector" d="M90.06 68.31C90.41 68.56 90.75 68.82 91.13 69.03C91.26 69.2 91.47 69.31 91.67 69.38C91.14 70.25 90.43 71.05 89.8 71.84C89.37 71.37 88.79 71.03 88.3 70.62C88.91 69.87 89.47 69.07 90.06 68.31Z" fill="#F5F5F5" fill-opacity="1.000000" fill-rule="evenodd"/>
			<path id="Vector" d="M75.42 114.93C76.37 114.72 77.3 114.5 78.21 114.17C81.97 112.78 84.88 109.96 87.07 106.68C87.65 105.8 88.26 104.32 88.86 103.62C89.4 103.01 91.06 102.09 91.85 101.42C90.29 105.52 87.9 109.52 84.61 112.46C81.16 115.55 76.77 117.21 72.12 116.95C72.12 116.35 72.18 115.75 72.23 115.16C72.67 115.1 73.12 115.09 73.57 115.07C73.62 115.4 73.55 115.78 73.51 116.11C73.74 116.09 73.98 116.05 74.22 116.05L74.15 116.75C74.54 116.72 74.91 116.68 75.29 116.61C75.33 116.05 75.35 115.49 75.42 114.93Z" fill="#F5F5F5" fill-opacity="1.000000" fill-rule="evenodd"/>
			<path id="Vector" d="M74.14 85.37C74.63 85.73 75.08 86.35 75.48 86.8C74.21 88.04 72.73 89.14 71.33 90.21C67.15 93.41 62.83 96.3 58.18 98.79C56.61 99.63 54.99 100.49 53.33 101.12C52.87 100.67 52.46 100.09 52.06 99.58C53.54 99.01 55 98.25 56.41 97.52C62.84 94.21 68.63 90.03 74.14 85.37Z" fill="#F5F5F5" fill-opacity="1.000000" fill-rule="evenodd"/>
			<path id="Vector" d="M72.96 34.53C73.88 34.84 74.81 35.1 75.72 35.42C82.32 37.73 88.74 40.53 94.72 44.17C96.29 45.13 97.91 46.11 99.37 47.24C99.19 47.86 98.92 48.46 98.71 49.07C98.49 49.05 95.54 46.98 95.06 46.67C93.54 45.72 92 44.81 90.44 43.94C88.64 42.97 86.82 42.06 84.97 41.2C83.12 40.34 81.25 39.55 79.35 38.8C77.92 38.26 76.47 37.74 75.02 37.25C74.14 36.95 73.26 36.71 72.39 36.4L72.96 34.53Z" fill="#F5F5F5" fill-opacity="1.000000" fill-rule="evenodd"/>
			<path id="Vector" d="M17.91 34.71C17.98 35.18 17.98 35.58 17.7 35.98C17.31 36.53 16.56 36.8 15.91 36.88C15.62 36.91 15.32 36.9 15.03 36.89C15.04 37.26 15.06 37.63 15.07 38C15.32 38.01 15.58 38.01 15.83 38.05C15.3 38.48 14.69 38.84 14.13 39.25C13.8 39.49 13.48 39.74 13.17 40C12.85 40.26 12.55 40.53 12.25 40.8C11.95 41.08 11.67 41.37 11.39 41.67C11.11 41.97 10.84 42.28 10.58 42.59C6.71 47.32 6.01 53.33 8.19 58.96C8.5 59.75 8.83 60.54 9.21 61.29C9.5 61.85 9.95 62.39 10.11 63.01C10.41 64.18 10.19 65.44 10.31 66.64C9.54 65.49 8.74 64.35 8.06 63.14C5.43 58.46 4.21 53.01 5.72 47.75C7.06 43.06 10.35 39.39 14.36 36.76C15.51 36.01 16.72 35.38 17.91 34.71Z" fill="#F5F5F5" fill-opacity="1.000000" fill-rule="evenodd"/>
			<path id="Vector" d="M74.3 106.93L75.39 106.85C75.36 107.1 75.36 107.35 75.35 107.6C75.3 108.15 75.29 108.71 75.19 109.25L76.33 109.17C76.37 109.48 76.42 109.78 76.44 110.09C76 110.13 75.56 110.18 75.12 110.21C75.04 111 74.93 111.81 74.93 112.6C75.52 112.52 76.1 112.46 76.69 112.43L76.75 113.4C76.1 113.45 75.43 113.56 74.78 113.55C74.8 114.22 74.82 115.37 74.52 115.95C74.41 116.04 74.35 116.04 74.22 116.05C73.98 116.05 73.74 116.09 73.51 116.11C73.55 115.78 73.62 115.4 73.57 115.07C73.68 114.63 73.69 114.14 73.74 113.7C73.03 113.75 72.32 113.82 71.61 113.89C71.58 114.59 71.66 115.67 71.35 116.29C71.21 116.38 71.18 116.38 71.02 116.39C70.8 116.39 70.56 116.43 70.33 116.46C70.36 115.93 70.41 115.4 70.45 114.87C68.3 114.55 66.21 113.77 64.27 112.8C63.82 112.57 63.23 112.31 62.88 111.94L62.54 111.6C62.55 111.4 62.45 111.16 62.41 110.96C62.54 110.6 62.55 110.16 62.9 109.96C63.06 109.98 63.21 109.98 63.37 109.98C64.24 109.66 65.9 109.63 66.86 109.52C68.23 109.35 69.6 109.14 70.96 108.88C71.12 108.46 71.07 107.71 71.13 107.25C71.49 107.23 71.85 107.19 72.21 107.17C72.18 107.4 72.17 107.64 72.15 107.88L72.05 108.55L72.8 108.45C73.28 108.36 73.75 108.24 74.22 108.09L74.3 106.93ZM70.96 108.88C69.6 109.14 68.23 109.35 66.86 109.52C65.9 109.63 64.24 109.66 63.37 109.98C63.21 109.98 63.06 109.98 62.9 109.96C62.55 110.16 62.54 110.6 62.41 110.96C62.45 111.16 62.55 111.4 62.54 111.6L62.88 111.94C63.23 112.31 63.82 112.57 64.27 112.8C66.21 113.77 68.3 114.55 70.45 114.87C70.46 114.59 70.49 114.32 70.52 114.04C70.13 114.07 69.75 114.09 69.37 114.15L69.29 113.17C69.73 113.12 70.16 113.09 70.6 113.06C70.7 112.27 70.72 111.47 70.81 110.68C70.22 110.72 69.63 110.79 69.05 110.85C69.03 110.52 69 110.18 68.98 109.85C69.62 109.87 70.27 109.77 70.91 109.71C70.94 109.48 71.04 109.1 70.96 108.88ZM73.83 110.35C73.2 110.41 72.55 110.5 71.91 110.52C71.89 110.89 71.68 112.74 71.81 112.93L71.91 112.92C72.55 112.84 73.19 112.74 73.83 112.69C73.86 112.35 74.1 110.53 73.97 110.34L73.83 110.35ZM72.8 108.45L72.05 108.55L72.01 109.59C72.72 109.51 73.43 109.44 74.14 109.37C74.15 108.94 74.16 108.52 74.22 108.09C73.75 108.24 73.28 108.36 72.8 108.45Z" fill="#989898" fill-opacity="1.000000" fill-rule="evenodd"/>
			<path id="Vector" d="M36.22 78.57L36.64 78.6L37.04 79.28C37.49 79.15 37.94 79.01 38.4 78.89C39.37 81.21 40.28 83.55 41.36 85.83C45.86 95.32 52.27 104.93 61.05 110.92C61.33 112.34 61.7 113.09 62.92 113.93C63.08 114.03 63.27 114.12 63.41 114.25C63.09 114.3 62.91 114.24 62.61 114.1C60.98 113.34 59.28 112.08 57.86 110.98C47.97 103.38 40.38 90.16 36.22 78.57Z" fill="#F5F5F5" fill-opacity="1.000000" fill-rule="evenodd"/>
			<path id="Vector" d="M104.25 51.02C108.68 54.88 112.75 59.43 115.15 64.85C117.21 69.52 117.77 74.67 115.89 79.51C113.57 85.44 108.19 89.23 102.57 91.69L101.48 92.13C102.23 91.29 103.04 89.7 103.79 89.07C104.36 88.59 105.17 88.3 105.81 87.91C107.64 86.81 109.38 85.5 110.83 83.93C113.68 80.85 115.31 76.96 115.14 72.73C114.82 64.66 109.11 58.14 103.47 52.94C103.69 52.29 103.97 51.65 104.25 51.02Z" fill="#F5F5F5" fill-opacity="1.000000" fill-rule="evenodd"/>
			<path id="Vector" d="M80.87 14.08C82.91 13.91 84.91 13.75 86.96 13.83C91.38 14 95.91 15.37 99.33 18.26C103.31 21.62 105.26 26.51 105.67 31.61C106.34 39.88 103.67 48.08 100.19 55.47C99.67 55.1 99.03 54.82 98.47 54.53C98.87 53.54 99.37 52.6 99.8 51.62C100.34 50.38 100.81 49.07 101.27 47.79C103.71 40.99 105.18 32.36 102.29 25.47C102.24 25.35 102.19 25.24 102.14 25.12C102.09 25.01 102.03 24.89 101.98 24.78C101.93 24.66 101.87 24.55 101.81 24.44C101.76 24.32 101.7 24.21 101.64 24.1C101.58 23.99 101.52 23.88 101.46 23.77C101.39 23.66 101.33 23.55 101.27 23.44C101.2 23.33 101.13 23.23 101.07 23.12C101 23.01 100.93 22.91 100.86 22.8C100.79 22.7 100.72 22.59 100.64 22.49C100.57 22.39 100.5 22.28 100.42 22.19C100.34 22.08 100.27 21.98 100.19 21.89C100.11 21.78 100.03 21.69 99.95 21.59C99.87 21.49 99.79 21.4 99.7 21.3C99.62 21.21 99.54 21.11 99.45 21.02C99.37 20.92 99.28 20.83 99.19 20.75C99.1 20.65 99.02 20.56 98.93 20.48C98.84 20.39 98.74 20.3 98.65 20.21C98.56 20.12 98.47 20.04 98.37 19.96C98.28 19.87 98.18 19.79 98.09 19.71C97.99 19.63 97.89 19.55 97.79 19.47C97.7 19.39 97.6 19.31 97.5 19.23C97.39 19.16 97.29 19.08 97.19 19.01C97.09 18.93 96.99 18.86 96.88 18.79C96.78 18.72 96.67 18.65 96.57 18.58C96.46 18.51 96.35 18.44 96.25 18.37C96.14 18.31 96.03 18.25 95.92 18.18C95.81 18.12 95.7 18.05 95.59 18C95.48 17.93 95.37 17.87 95.26 17.82C95.14 17.76 95.03 17.7 94.92 17.65C94.8 17.59 94.69 17.54 94.58 17.48C94.46 17.43 94.34 17.38 94.23 17.33C94.11 17.28 94 17.24 93.88 17.19C91.66 16.3 89.34 15.87 86.96 15.73C86.13 15.68 85.2 15.83 84.39 15.64C83.78 15.5 83.17 15.12 82.6 14.86C82.03 14.59 81.45 14.33 80.87 14.08Z" fill="#F5F5F5" fill-opacity="1.000000" fill-rule="evenodd"/>
			<path id="Vector" d="M20.84 88.91L21.46 88.61C21.56 88.87 21.67 89.26 21.91 89.41L22.04 89.32C22.24 89.46 22.41 89.97 22.52 90.2L21.99 90.5C23.18 92.23 24.65 93.83 26.13 95.32C26.7 95.89 27.43 96.44 27.94 97.06L28.02 97.12C29.1 98.09 30.21 98.98 31.32 99.9C31.82 99.15 32.34 98.42 32.88 97.7C33.14 97.73 33.45 97.71 33.69 97.85C33.8 98.02 33.78 98.12 33.78 98.32C33.72 99.33 33.51 104.9 33.26 105.28C33.13 105.28 33.01 105.28 32.88 105.25C32.69 105.22 32.5 105.2 32.31 105.17L32.4 103.84C31.94 103.79 31.47 103.75 31.01 103.71L30.59 104.43L29.78 104.28L29.52 103.78C29.24 103.69 29.12 103.61 28.98 103.36C28.58 101.77 27.96 100.21 27.59 98.62C27.38 99.66 27.12 100.68 26.92 101.72C26.78 102.48 26.69 103.29 26.5 104.04C26.46 104.19 26.45 104.23 26.33 104.32L26.29 104.31C26.01 104.26 25.73 104.24 25.46 104.21C25.53 103.61 25.66 103.01 25.77 102.41C24.73 101.93 23.75 101.41 22.76 100.84C22.46 101.28 22.16 101.72 21.87 102.17C21.69 102.05 21.48 101.93 21.32 101.78C21.22 101.69 21.2 101.68 21.19 101.55L20.35 100.91C20.64 100.48 20.95 100.07 21.26 99.65C20.36 98.88 19.65 97.99 18.89 97.1C18.5 97.24 18.14 97.42 17.77 97.59L17.4 96.84C17.25 96.88 17.22 96.89 17.08 96.85C16.85 96.62 16.76 96.29 16.65 96C17.06 95.81 17.47 95.63 17.89 95.46C17.5 94.62 17.15 93.76 16.81 92.9C16.46 93.02 16.13 93.19 15.8 93.35C15.7 93.08 15.58 92.82 15.46 92.56C15.3 92.6 15.24 92.63 15.09 92.57C14.87 92.35 14.8 92.02 14.71 91.73L16.27 91.02C17.73 90.26 19.31 89.54 20.84 88.91ZM25 96.14C24.62 96.92 23.98 97.66 23.47 98.37L21.19 101.55C21.2 101.68 21.22 101.69 21.32 101.78C21.48 101.93 21.69 102.05 21.87 102.17C22.16 101.72 22.46 101.28 22.76 100.84C23.75 101.41 24.73 101.93 25.77 102.41C26.01 100.77 26.47 99.13 26.86 97.51C26.23 97.08 25.6 96.62 25 96.14ZM17.4 96.84L17.77 97.59C18.14 97.42 18.5 97.24 18.89 97.1C19.65 97.99 20.36 98.88 21.26 99.65C21.54 99.11 21.98 98.59 22.33 98.09C22.94 97.26 23.54 96.41 24.19 95.61C23.65 95.23 23.09 94.86 22.59 94.42C22.03 94.65 21.48 94.94 20.93 95.19C19.74 95.72 18.56 96.27 17.4 96.84ZM21.91 89.41C21.55 89.96 19.72 90.52 19.07 90.87C19.57 91.97 20.12 93.06 20.59 94.18C21.51 93.75 22.45 93.23 23.41 92.91C23.55 93.19 23.7 93.46 23.76 93.76C23.72 93.85 23.67 93.92 23.61 94.01C23.88 94.35 27.47 96.89 27.94 97.06C27.43 96.44 26.7 95.89 26.13 95.32C24.65 93.83 23.18 92.23 21.99 90.5L22.52 90.2C22.41 89.97 22.24 89.46 22.04 89.32L21.91 89.41ZM15.46 92.56C15.58 92.82 15.7 93.08 15.8 93.35C16.13 93.19 16.46 93.02 16.81 92.9C17.15 93.76 17.5 94.62 17.89 95.46L19.82 94.55C19.23 93.6 18.59 92.24 18.28 91.17C17.44 91.74 16.37 92.13 15.46 92.56ZM29.52 103.78L29.78 104.28L30.59 104.43L31.01 103.71C31.47 103.75 31.94 103.79 32.4 103.84C32.5 102.37 32.65 100.9 32.8 99.44C31.8 100.78 31.01 102.19 30.05 103.53C29.9 103.75 29.77 103.73 29.52 103.78ZM28.02 97.12C28.19 97.84 28.53 98.56 28.76 99.26C29.11 100.34 29.39 101.44 29.73 102.51C30.21 101.62 30.74 100.74 31.32 99.9C30.21 98.98 29.1 98.09 28.02 97.12Z" fill="#989898" fill-opacity="1.000000" fill-rule="evenodd"/>
			<path id="Vector" d="M30.31 54.76C29.99 51.66 29.7 48.59 29.61 45.48C29.31 34.73 30.82 21.79 37.44 12.93C40.41 8.96 44.59 5.89 49.59 5.17C55.65 4.3 61.59 6.76 66.38 10.33C65.82 10.24 65.26 10.16 64.69 10.13C64 10.09 63.24 10.17 62.56 9.99C61.65 9.74 60.79 9.1 59.92 8.7C56.87 7.31 53.33 6.55 49.98 7.04C45.39 7.73 41.64 10.46 38.93 14.13C31.36 24.38 30.46 42.46 32.29 54.73C32.08 54.65 31.88 54.57 31.67 54.48L31.75 54.23C31.65 54.06 31.49 54 31.31 53.94C31.1 53.89 30.89 53.83 30.68 53.79C30.59 54.07 30.53 54.58 30.31 54.76Z" fill="#F5F5F5" fill-opacity="1.000000" fill-rule="evenodd"/>
			<path id="Vector" d="M84.96 43.37C89.5 45.37 93.87 48.13 97.92 50.98C97.58 51.87 97.14 52.76 96.71 53.61C95.93 53.23 95.08 52.9 94.22 53.21C93.3 53.55 92.78 54.48 92.41 55.33C92.15 55.93 91.94 56.57 91.78 57.2C91.96 57.29 92.34 57.42 92.41 57.62C92.59 58.07 93.59 58.42 94.01 58.71C93.81 59.01 93.63 59.31 93.47 59.63C92.35 59.28 91.47 58.99 90.35 59.58C90.3 59.61 90.26 59.63 90.21 59.66C90.17 59.69 90.13 59.71 90.08 59.74C90.04 59.77 90 59.8 89.96 59.83C89.92 59.86 89.88 59.89 89.84 59.92C89.8 59.96 89.76 59.99 89.72 60.03C89.68 60.06 89.65 60.1 89.61 60.14C89.57 60.17 89.54 60.21 89.5 60.25C89.47 60.28 89.44 60.32 89.4 60.36C89.37 60.4 89.34 60.44 89.31 60.48C89.28 60.53 89.25 60.57 89.22 60.61C89.19 60.66 89.17 60.7 89.14 60.74C89.12 60.79 89.09 60.83 89.07 60.88C89.04 60.92 89.02 60.97 89 61.01C88.98 61.06 88.96 61.11 88.94 61.16C88.92 61.21 88.9 61.25 88.88 61.3C88.87 61.35 88.85 61.4 88.84 61.45C88.6 62.26 88.68 63.08 89.1 63.82C89.35 64.26 89.67 64.59 90.03 64.94C89.81 65.32 89.58 65.7 89.33 66.07C88.66 65.57 87.88 65.1 87.01 65.21C86.26 65.3 85.65 65.81 85.21 66.4C84.91 66.82 84.7 67.26 84.51 67.75C84.22 67.52 83.81 67.28 83.56 67.01C83.71 62.68 84.05 58.33 84.32 54.01C84.54 50.47 84.69 46.92 84.96 43.37Z" fill="#FFFFFF" fill-opacity="1.000000" fill-rule="evenodd"/>
			<path id="Vector" d="M44.82 68.12C44.84 68.11 44.85 68.1 44.87 68.09C45.99 67.3 47 66.23 48.02 65.3L53.21 60.7L70.82 45.01L74.59 41.64C74.98 41.28 76 40.23 76.41 40.03C76.54 39.97 76.75 40 76.88 40.01C77.2 40.06 77.8 40.22 78 40.47C78.04 40.52 78.04 40.52 78.02 40.58C77.94 40.87 74.82 44.51 74.35 45.08L61.12 61.03C58.35 64.37 55.62 67.75 52.79 71.05C52.66 71.21 52.5 71.35 52.54 71.57L52.71 71.6C54.08 72.08 55.4 72.69 56.73 73.27C57.25 73.5 57.86 73.71 58.34 74.01C57.74 75.05 57.07 76.06 56.42 77.08L53.23 82.09L50.1 87.01C49.52 87.93 48.96 88.88 48.33 89.77C48.29 89.9 48.33 89.85 48.21 89.92C48.11 89.82 48.1 89.7 48.07 89.56C47.73 87.78 47.53 85.93 47.26 84.13L45.52 72.47C45.4 71.67 45.06 68.67 44.82 68.12Z" fill="#CCCCCC" fill-opacity="1.000000" fill-rule="evenodd"/>
			<path id="Vector" d="M48.33 89.77C48.25 89.56 48.29 89.4 48.34 89.19C48.58 87.98 48.9 86.79 49.18 85.6L51.03 77.64L51.94 73.71C52.09 73.05 52.2 72.3 52.45 71.67L52.71 71.6C54.08 72.08 55.4 72.69 56.73 73.27C57.25 73.5 57.86 73.71 58.34 74.01C57.74 75.05 57.07 76.06 56.42 77.08L53.23 82.09L50.1 87.01C49.52 87.94 48.96 88.88 48.33 89.77Z" fill="#E8E8E7" fill-opacity="1.000000" fill-rule="evenodd"/>
			<path id="Vector" d="M20.84 88.91C20.4 88.45 20.04 87.78 19.7 87.25C19.19 86.44 18.7 85.62 18.24 84.78C17.78 83.95 17.34 83.1 16.92 82.25C16.51 81.39 16.12 80.52 15.75 79.64C15.39 78.76 15.05 77.87 14.73 76.96C14.62 76.64 14.51 76.32 14.41 76C14.31 75.67 14.21 75.35 14.11 75.02C14.01 74.69 13.92 74.37 13.83 74.04C13.74 73.71 13.65 73.38 13.57 73.05C13.48 72.72 13.4 72.39 13.33 72.05C13.25 71.72 13.18 71.39 13.11 71.06C13.04 70.72 12.97 70.39 12.91 70.05C12.84 69.72 12.79 69.39 12.73 69.05C12.67 68.71 12.62 68.37 12.57 68.04C12.52 67.7 12.48 67.36 12.44 67.03C12.39 66.69 12.36 66.35 12.32 66.01C12.29 65.67 12.26 65.33 12.23 64.99C12.2 64.65 12.18 64.31 12.16 63.97C12.13 63.63 12.12 63.29 12.1 62.95C12.09 62.61 12.08 62.27 12.07 61.93C12.07 61.59 12.06 61.25 12.06 60.91C12.07 60.57 12.07 60.23 12.08 59.89C12.08 59.55 12.1 59.21 12.11 58.87C12.12 58.53 12.14 58.19 12.16 57.84C12.19 57.5 12.21 57.16 12.24 56.83C12.27 56.49 12.3 56.15 12.34 55.81C12.37 55.47 12.41 55.13 12.46 54.79C12.5 54.46 12.55 54.12 12.6 53.78C12.65 53.44 12.7 53.11 12.76 52.77C12.81 52.44 12.87 52.1 12.94 51.76C13 51.43 13.07 51.1 13.14 50.76C13.21 50.43 13.28 50.1 13.36 49.76C13.44 49.43 13.52 49.1 13.61 48.77C13.69 48.44 13.78 48.12 13.87 47.79C13.96 47.46 14.06 47.13 14.15 46.8C14.25 46.48 14.35 46.15 14.46 45.83C14.56 45.51 14.67 45.18 14.78 44.86C15.31 43.36 15.89 41.81 16.59 40.38C16.73 40.11 16.88 39.87 17.11 39.67C17.53 39.3 18.08 39.04 18.58 38.78C20.7 37.66 22.88 36.84 25.16 36.1C25.16 36.13 25.17 36.17 25.17 36.21C25.18 36.36 25.13 36.49 25.06 36.63C24.74 37.37 24.29 38.09 23.9 38.81C23.52 39.53 23.18 40.28 22.85 41.03C22.23 42.41 21.68 43.82 21.19 45.25C21.01 45.79 20.83 46.33 20.67 46.88C20.5 47.42 20.35 47.98 20.2 48.53C20.06 49.08 19.92 49.64 19.79 50.19C19.67 50.75 19.55 51.31 19.45 51.87C19.34 52.44 19.24 53 19.16 53.57C19.07 54.13 18.99 54.69 18.93 55.26C18.86 55.83 18.8 56.4 18.75 56.97C18.71 57.54 18.67 58.11 18.64 58.68C18.62 59.25 18.6 59.82 18.59 60.39C18.59 60.97 18.59 61.54 18.6 62.11C18.62 62.68 18.64 63.25 18.67 63.82C18.71 64.39 18.75 64.96 18.8 65.53C18.85 66.1 18.92 66.67 18.99 67.24C19.06 67.8 19.15 68.37 19.24 68.93C19.33 69.5 19.44 70.06 19.55 70.62C19.66 71.18 19.78 71.74 19.92 72.3C20.05 72.85 20.19 73.41 20.34 73.96C20.49 74.51 20.65 75.06 20.82 75.6C21 76.15 21.18 76.69 21.37 77.23C21.56 77.77 21.75 78.3 21.96 78.84C22.17 79.37 22.39 79.9 22.62 80.42C22.84 80.95 23.08 81.47 23.33 81.98C23.57 82.5 23.83 83.01 24.09 83.52C24.35 84.03 24.62 84.53 24.91 85.03C25.19 85.53 25.48 86.02 25.77 86.51C26.07 87 26.38 87.48 26.69 87.95C27.01 88.43 27.33 88.9 27.66 89.37C28 89.83 28.34 90.29 28.68 90.75C29.03 91.2 29.39 91.65 29.75 92.09C30.11 92.53 30.48 92.96 30.86 93.39C31.24 93.82 31.63 94.24 32.02 94.66C32.42 95.07 32.82 95.48 33.22 95.88C33.53 96.18 35.45 98.1 35.73 98.17C35.83 98.2 36 98.17 36.11 98.17C35.96 98.2 35.72 98.21 35.63 98.32C35.58 98.94 36.24 101.54 36.05 101.84C35.47 101.87 34.88 101.85 34.3 101.86L34.43 98.5C34.21 98.45 34 98.38 33.78 98.32C33.78 98.12 33.8 98.02 33.69 97.85C33.45 97.71 33.14 97.73 32.88 97.7C32.34 98.42 31.82 99.15 31.32 99.9C30.21 98.98 29.1 98.09 28.02 97.12L27.94 97.06C27.43 96.44 26.7 95.89 26.13 95.32C24.65 93.83 23.18 92.23 21.99 90.5L22.52 90.2C22.41 89.97 22.24 89.46 22.04 89.32L21.91 89.41C21.67 89.26 21.56 88.87 21.46 88.61L20.84 88.91Z" fill="#F0F0F0" fill-opacity="1.000000" fill-rule="evenodd"/>
			<path id="Vector" d="M39.9 66.05C41.56 66.69 43.17 67.45 44.82 68.12C45.06 68.67 45.4 71.67 45.52 72.47L47.26 84.13C47.53 85.93 47.73 87.78 48.07 89.56C48.1 89.7 48.11 89.82 48.21 89.93C48.33 89.85 48.29 89.9 48.33 89.77C48.96 88.88 49.52 87.94 50.1 87.01L53.23 82.09L56.42 77.08C57.07 76.06 57.74 75.05 58.34 74.01C59.63 74.65 60.99 75.19 62.32 75.77C64.97 76.92 67.63 78.05 70.27 79.23C70 79.55 69.71 79.86 69.46 80.19L71.71 82.66C72.09 83.07 72.46 83.53 72.87 83.92C71.4 85.27 69.74 86.51 68.14 87.71C62.73 91.79 57.06 95.26 50.84 97.97C49.92 96.94 49.07 95.48 48.32 94.31C47.19 92.53 46.13 90.72 45.13 88.87C44.14 87.02 43.21 85.14 42.35 83.22C41.61 81.57 40.99 79.87 40.25 78.22C41.1 77.93 42.05 77.66 42.56 76.86C42.91 76.3 42.9 75.65 42.75 75.02C42.59 74.39 42.18 73.14 41.59 72.78L41.48 72.77L41.05 72.19L40.17 72.66C40.6 73.31 41.19 74.25 41.04 75.08C40.97 75.48 40.72 75.75 40.39 75.96C40.33 76 40.27 76.04 40.21 76.07C39.82 75.23 39.49 74.46 38.8 73.83L38.68 73.75L38.69 73.65C38.41 73.02 38.2 72.34 38.02 71.67C39.16 71.82 40.33 71.83 41.48 71.84C41.41 71.52 41.4 71.04 41.23 70.77C41.09 70.55 40.91 70.54 40.68 70.5C40.58 70.35 40.54 70.1 40.49 69.93C39.94 69.94 37.81 70.05 37.44 69.82L37.22 69.08C38.1 68.32 39.23 67.73 40.22 67.15C40.04 66.81 39.99 66.42 39.9 66.05Z" fill="#FFFFFF" fill-opacity="1.000000" fill-rule="evenodd"/>
			<path id="Vector" d="M41.56 33.74C44.22 33.65 46.91 33.78 49.56 34C51.42 34.14 53.28 34.33 55.13 34.58C56.98 34.83 58.83 35.13 60.66 35.49C62.5 35.84 64.32 36.24 66.13 36.7C67.94 37.15 69.74 37.66 71.52 38.22C69.44 39.01 67.4 40.09 65.37 41.03L54.11 46.29L34.38 55.44C34.15 54.19 34.04 52.89 33.91 51.62C33.36 46.18 33.2 39.73 33.96 34.31C34.7 34.16 35.48 34.11 36.24 34.04C38.01 33.88 39.78 33.8 41.56 33.74Z" fill="#FFFFFF" fill-opacity="1.000000" fill-rule="evenodd"/>
			<path id="Vector" d="M25.16 36.1C26.1 35.82 27.03 35.57 28 35.37C27.51 38.49 27.54 41.84 27.61 44.99C27.64 45.93 27.69 46.87 27.74 47.8C27.79 48.74 27.86 49.68 27.94 50.62C28.02 51.55 28.11 52.49 28.21 53.42C28.31 54.35 28.43 55.29 28.56 56.22C28.69 57.15 28.83 58.08 28.98 59.01C29.13 59.94 29.29 60.86 29.47 61.78C29.65 62.71 29.83 63.63 30.03 64.55C30.23 65.46 30.45 66.38 30.67 67.29C30.9 68.2 31.13 69.11 31.38 70.02C31.63 70.92 31.89 71.83 32.16 72.73C32.43 73.63 32.71 74.53 33.01 75.42C33.3 76.31 33.61 77.2 33.93 78.08C34.25 78.96 34.58 79.85 34.92 80.72C35.26 81.6 35.61 82.47 35.98 83.33C36.34 84.2 36.72 85.06 37.1 85.92C37.49 86.77 37.89 87.62 38.3 88.47C39.63 91.22 41.1 93.89 42.72 96.48C43.13 97.16 43.56 97.82 44.01 98.48C44.36 99 44.77 99.51 45.03 100.07C43.42 100.62 41.76 100.99 40.1 101.33C40.07 101.33 40.04 101.33 40.01 101.33C39.97 101.33 39.93 101.32 39.9 101.32C39.28 101.3 38.23 99.9 37.4 99.72C37.36 99.43 37.38 99.1 37.23 98.84C37.04 98.73 36.93 98.77 36.72 98.78C36.69 98.58 36.67 98.38 36.59 98.19C36.41 98.1 36.3 98.15 36.11 98.18C36 98.18 35.83 98.2 35.73 98.17C35.45 98.1 33.53 96.18 33.22 95.88C32.82 95.48 32.42 95.07 32.02 94.66C31.63 94.25 31.24 93.82 30.86 93.39C30.48 92.97 30.11 92.53 29.75 92.09C29.39 91.65 29.03 91.2 28.68 90.75C28.34 90.3 28 89.83 27.66 89.37C27.33 88.91 27.01 88.43 26.69 87.96C26.38 87.48 26.07 87 25.77 86.51C25.48 86.02 25.19 85.53 24.91 85.03C24.62 84.53 24.35 84.03 24.09 83.52C23.83 83.01 23.57 82.5 23.33 81.99C23.08 81.47 22.84 80.95 22.62 80.42C22.39 79.9 22.17 79.37 21.96 78.84C21.75 78.31 21.56 77.77 21.37 77.23C21.18 76.69 21 76.15 20.82 75.6C20.65 75.06 20.49 74.51 20.34 73.96C20.19 73.41 20.05 72.85 19.92 72.3C19.78 71.74 19.66 71.18 19.55 70.62C19.44 70.06 19.33 69.5 19.24 68.94C19.15 68.37 19.06 67.81 18.99 67.24C18.92 66.67 18.85 66.1 18.8 65.53C18.75 64.97 18.71 64.4 18.67 63.83C18.64 63.25 18.62 62.68 18.6 62.11C18.59 61.54 18.59 60.97 18.59 60.4C18.6 59.83 18.62 59.25 18.64 58.68C18.67 58.11 18.71 57.54 18.75 56.97C18.8 56.4 18.86 55.83 18.93 55.26C18.99 54.7 19.07 54.13 19.16 53.57C19.24 53 19.34 52.44 19.45 51.88C19.55 51.32 19.67 50.75 19.79 50.2C19.92 49.64 20.06 49.08 20.2 48.53C20.35 47.98 20.5 47.43 20.67 46.88C20.83 46.33 21.01 45.79 21.19 45.25C21.68 43.82 22.23 42.41 22.85 41.03C23.18 40.28 23.52 39.53 23.9 38.81C24.29 38.09 24.74 37.38 25.06 36.63C25.13 36.49 25.18 36.36 25.17 36.21C25.17 36.17 25.16 36.14 25.16 36.1Z" fill="#FFFFFF" fill-opacity="1.000000" fill-rule="evenodd"/>
			<path id="Vector" d="M35.03 28.26C35.21 27.45 35.4 26.65 35.63 25.85C35.85 25.05 36.1 24.26 36.37 23.48C36.65 22.69 36.94 21.92 37.27 21.16C37.59 20.39 37.93 19.64 38.3 18.9C38.62 18.27 38.98 17.41 39.58 17.01C40.61 16.31 43.52 15.25 44.77 14.82C45.31 14.64 45.85 14.46 46.39 14.29C46.93 14.12 47.48 13.96 48.03 13.81C48.57 13.66 49.13 13.52 49.68 13.39C50.23 13.26 50.79 13.14 51.35 13.03C51.9 12.92 52.46 12.82 53.02 12.72C53.58 12.63 54.15 12.55 54.71 12.48C55.27 12.4 55.84 12.34 56.41 12.29C56.97 12.23 57.54 12.19 58.11 12.16C58.67 12.13 59.24 12.1 59.81 12.09C60.38 12.08 60.95 12.07 61.52 12.08C62.09 12.09 62.65 12.1 63.22 12.13C63.79 12.16 64.36 12.19 64.92 12.24C65.49 12.28 66.06 12.34 66.62 12.41C67.19 12.47 67.75 12.55 68.31 12.64C68.87 12.72 69.43 12.82 69.99 12.92C70.55 13.03 71.11 13.14 71.66 13.26C71.98 13.33 72.3 13.41 72.62 13.49C72.94 13.57 73.25 13.65 73.57 13.73C73.88 13.82 74.2 13.9 74.51 13.99C74.83 14.08 75.14 14.17 75.45 14.27C75.76 14.37 76.07 14.47 76.38 14.57C76.7 14.67 77 14.78 77.31 14.89C77.62 15 77.93 15.11 78.23 15.23C78.54 15.34 78.84 15.46 79.15 15.58C79.45 15.7 79.75 15.83 80.05 15.96C80.35 16.08 80.65 16.21 80.95 16.35C81.25 16.48 81.55 16.62 81.84 16.76C82.14 16.9 82.43 17.04 82.73 17.18C83.02 17.33 83.31 17.48 83.6 17.63C83.89 17.78 84.18 17.93 84.46 18.09C84.75 18.25 85.03 18.41 85.32 18.57C85.6 18.73 85.88 18.9 86.16 19.07C86.44 19.24 86.72 19.41 87 19.58C87.28 19.76 87.55 19.93 87.82 20.11C88.1 20.29 88.37 20.47 88.64 20.66C88.91 20.84 89.17 21.03 89.44 21.22C89.71 21.41 89.97 21.6 90.23 21.8C90.49 22 90.75 22.19 91.01 22.39C91.27 22.6 91.52 22.8 91.78 23C92.03 23.21 92.28 23.42 92.53 23.63C92.78 23.84 93.03 24.05 93.27 24.27C93.52 24.49 93.76 24.71 94 24.92C94.24 25.15 94.48 25.37 94.72 25.6C94.96 25.82 95.19 26.05 95.42 26.28C95.65 26.51 95.88 26.74 96.11 26.98C96.34 27.21 96.56 27.45 96.78 27.69C97.01 27.93 97.23 28.17 97.44 28.41C97.66 28.66 97.88 28.91 98.09 29.15C99.29 30.56 100.59 32.09 101.56 33.67C101.69 33.9 101.8 34.11 101.84 34.37C102.15 36.12 101.17 41.03 100.71 42.86C100.5 43.66 100.27 44.46 100.03 45.26C97.19 43.35 94.3 41.53 91.27 39.95C89.97 39.26 88.65 38.61 87.33 37.98C86.65 37.67 85.95 37.39 85.29 37.05C85.37 36.01 85.76 33.91 85.04 33.1C84.77 32.79 84.36 32.66 83.96 32.65C82.72 32.62 80.48 34.15 79.18 34.57C78.71 34.42 78.25 34.27 77.81 34.05C78.51 33.5 78.96 32.88 79.08 31.96C79.18 31.28 79.03 30.56 78.58 30.01C78.47 29.89 78.35 29.77 78.22 29.66C78.08 29.61 78.14 29.66 78.06 29.55C76.84 27.98 74.9 27.73 73.08 27.33C72.58 28.91 72.13 30.53 71.57 32.09L69.88 31.63C70.18 30.12 70.56 28.6 70.93 27.11L70.16 26.9C70.17 26.8 70.23 26.59 70.16 26.51C69.96 26.26 69.34 26.24 69.03 26.15C68.74 27.38 68.47 28.62 68.17 29.84C67.17 29.61 65.52 29.33 64.65 29.01C64.77 27.96 65.14 26.84 65.4 25.81C65.13 25.75 64.86 25.68 64.6 25.6C64.64 25.41 64.69 25.35 64.6 25.18C64.26 24.97 63.85 24.98 63.48 24.87C63.1 26.5 62.63 28.16 62.35 29.82C61.78 29.73 61.22 29.61 60.66 29.5C60.79 29.36 60.91 29.21 61.02 29.04C61.46 28.32 61.58 27.35 61.35 26.53C61.22 26.04 60.92 25.58 60.47 25.32C60.45 25.31 60.43 25.29 60.42 25.28C60.16 25.03 59.96 24.76 59.66 24.56C58.34 23.67 56.41 23.63 54.89 23.64C54.67 25.27 54.47 26.93 54.18 28.55C49.27 27.99 44.42 27.75 39.49 27.93C38.03 27.99 36.47 28.02 35.03 28.26Z" fill="#FFFFFF" fill-opacity="1.000000" fill-rule="evenodd"/>
			<path id="Vector" d="M102.64 54.86C104.09 55.97 109.57 61.69 109.78 63.38C109.93 64.61 109.58 66.65 109.41 67.89C109.33 68.43 109.24 68.98 109.15 69.52C109.05 70.06 108.95 70.6 108.84 71.14C108.72 71.67 108.6 72.21 108.47 72.75C108.34 73.28 108.19 73.81 108.05 74.34C107.9 74.87 107.74 75.39 107.57 75.92C107.4 76.44 107.22 76.96 107.04 77.48C106.85 78 106.66 78.51 106.46 79.02C106.25 79.53 106.04 80.04 105.82 80.55C105.6 81.05 105.37 81.55 105.14 82.05C104.9 82.54 104.65 83.03 104.4 83.52C104.15 84.01 103.89 84.49 103.62 84.97C103.35 85.45 103.07 85.92 102.78 86.39C102.5 86.86 102.2 87.33 101.9 87.79C101.6 88.25 101.29 88.7 100.97 89.15C100.65 89.6 100.33 90.04 100 90.48C99.66 90.92 99.32 91.35 98.98 91.78C98.66 92.17 98.33 92.56 98 92.94C97.67 93.32 97.33 93.7 96.99 94.07C96.64 94.44 96.29 94.81 95.94 95.17C95.59 95.53 95.23 95.88 94.86 96.23C94.5 96.58 94.12 96.93 93.75 97.27C93.37 97.6 92.99 97.94 92.61 98.26C92.22 98.59 91.83 98.91 91.43 99.23C91.04 99.55 90.64 99.85 90.23 100.16C89.83 100.46 89.42 100.76 89.01 101.05C88.59 101.34 88.17 101.62 87.75 101.9C87.33 102.18 86.9 102.45 86.47 102.71C86.04 102.98 85.6 103.24 85.16 103.49C84.73 103.74 84.28 103.99 83.84 104.22C83.39 104.46 82.94 104.69 82.49 104.92C82.03 105.14 81.58 105.36 81.12 105.57C80.66 105.78 80.19 105.98 79.73 106.18C78.36 106.75 76.83 107.43 75.35 107.6C75.36 107.35 75.36 107.1 75.39 106.85L74.3 106.93L74.22 108.09C73.75 108.24 73.28 108.36 72.8 108.45L72.05 108.55L72.15 107.88C72.17 107.64 72.18 107.4 72.21 107.17C71.85 107.19 71.49 107.23 71.13 107.25C71.07 107.71 71.12 108.46 70.96 108.88C69.6 109.14 68.23 109.35 66.86 109.52C65.9 109.63 64.24 109.66 63.37 109.98C63.21 109.98 63.05 109.98 62.9 109.96C62.55 110.16 62.54 110.6 62.41 110.96C62.45 111.16 62.55 111.4 62.54 111.6C62.66 112.18 63.03 112.67 63.51 113C64.06 113.37 64.72 113.6 65.36 113.71C65.67 113.77 66.03 113.78 66.31 113.94C66.32 114.07 66.32 114.19 66.31 114.33C66.3 114.42 66.29 114.51 66.27 114.6C66.22 114.76 66.2 114.83 66.05 114.91C65.3 114.95 64.05 114.64 63.41 114.25C63.27 114.12 63.08 114.03 62.92 113.93C61.7 113.09 61.33 112.34 61.05 110.92C61.06 110.18 61.16 109.53 61.44 108.84C59.3 107.43 56.39 104.66 54.7 102.72C55.33 102.42 55.96 102.11 56.59 101.8C57.21 101.49 57.83 101.17 58.45 100.84C59.07 100.52 59.68 100.19 60.29 99.85C60.9 99.51 61.51 99.16 62.11 98.81C62.72 98.46 63.32 98.1 63.91 97.73C64.51 97.37 65.1 97 65.69 96.62C66.27 96.24 66.86 95.86 67.44 95.47C68.02 95.08 68.59 94.68 69.16 94.28C69.73 93.87 70.3 93.46 70.86 93.05C71.42 92.64 71.98 92.21 72.53 91.79C73.09 91.36 73.63 90.93 74.18 90.49C74.72 90.05 75.26 89.6 75.79 89.16C76.33 88.71 76.86 88.25 77.38 87.79C77.9 87.32 78.42 86.86 78.94 86.39C79.45 85.91 79.96 85.43 80.46 84.95C80.97 84.46 81.46 83.98 81.96 83.48C82.06 83.59 82.12 83.67 82.27 83.71C82.52 83.9 82.64 84.19 82.78 84.47C83.57 83.92 84.28 83.34 84.45 82.33C84.51 81.9 84.48 81.44 84.47 81.01C85.74 79.6 87.06 78.23 88.29 76.79C93.95 70.17 99.06 62.82 102.64 54.86Z" fill="#FFFFFF" fill-opacity="1.000000" fill-rule="evenodd"/>
			<path id="Vector" d="M72.15 107.87C72.37 107.85 72.6 107.8 72.8 107.89C72.86 108.08 72.82 108.25 72.8 108.44L72.05 108.55L72.15 107.87Z" fill="#E8E8E7" fill-opacity="1.000000" fill-rule="evenodd"/>
			<path id="Vector" d="M69.7 107.45C69.85 107.46 70.12 107.8 70.23 107.92C70.28 107.98 70.34 108.03 70.39 108.09C70.13 108.37 69.87 108.65 69.58 108.9C69.38 108.66 69.19 108.43 68.95 108.23C69.21 107.98 69.46 107.73 69.7 107.45Z" fill="#E8E8E7" fill-opacity="1.000000" fill-rule="evenodd"/>
			<path id="Vector" d="M61.44 108.84C61.76 107.84 62.34 106.93 63.15 106.27C63.21 106.22 63.26 106.18 63.31 106.14C63.37 106.1 63.42 106.06 63.48 106.02C63.53 105.99 63.59 105.95 63.65 105.92C63.71 105.88 63.76 105.85 63.82 105.82C63.88 105.78 63.94 105.75 64 105.73C64.07 105.7 64.13 105.67 64.19 105.64C64.25 105.62 64.31 105.6 64.38 105.57C64.44 105.55 64.51 105.53 64.57 105.51C64.63 105.49 64.7 105.47 64.76 105.46C64.83 105.44 64.9 105.43 64.96 105.41C65.03 105.4 65.09 105.39 65.16 105.38C65.23 105.37 65.29 105.36 65.36 105.35C65.43 105.35 65.5 105.35 65.56 105.34C65.63 105.34 65.7 105.34 65.76 105.34C65.83 105.34 65.9 105.34 65.97 105.35C66.03 105.35 66.1 105.35 66.17 105.36C67.61 105.52 68.81 106.34 69.7 107.45C69.46 107.72 69.21 107.98 68.95 108.23C68.82 108.07 68.68 107.93 68.54 107.78C68.51 107.77 68.48 107.76 68.45 107.75C67.26 107.37 66.81 106.74 65.37 107.43C64.45 107.86 63.75 108.77 63.41 109.72C63.38 109.81 63.37 109.88 63.37 109.98C63.21 109.98 63.06 109.98 62.9 109.96C62.56 110.16 62.54 110.6 62.41 110.96C62.45 111.15 62.55 111.39 62.54 111.6C62.66 112.18 63.03 112.67 63.51 113C64.06 113.37 64.72 113.6 65.36 113.71C65.67 113.77 66.03 113.78 66.31 113.93C66.32 114.07 66.32 114.19 66.31 114.32C66.3 114.41 66.29 114.51 66.27 114.6C66.22 114.76 66.2 114.83 66.05 114.91C65.3 114.95 64.05 114.64 63.41 114.25C63.27 114.12 63.08 114.03 62.92 113.93C61.7 113.09 61.33 112.34 61.05 110.92C61.06 110.18 61.16 109.53 61.44 108.84Z" fill="#989898" fill-opacity="1.000000" fill-rule="evenodd"/>
			<path id="Vector" d="M62.41 110.96C62.38 110.87 62.38 110.9 62.38 110.8C62.35 109.64 62.94 108.34 63.73 107.51C64.28 106.92 65.02 106.52 65.85 106.5C66.93 106.49 67.8 107.06 68.54 107.78C68.51 107.77 68.48 107.76 68.45 107.75C67.26 107.37 66.81 106.74 65.37 107.43C64.45 107.87 63.75 108.78 63.41 109.72C63.38 109.81 63.37 109.89 63.37 109.98C63.21 109.98 63.06 109.98 62.9 109.96C62.55 110.17 62.54 110.6 62.41 110.96Z" fill="#E8E8E7" fill-opacity="1.000000" fill-rule="evenodd"/>
		</g>
	</g>
</svg>
