<svg width="161.000000" height="77.000000" viewBox="0 0 161 77" fill="none" xmlns="http://www.w3.org/2000/svg" xmlns:xlink="http://www.w3.org/1999/xlink">
	<desc>
			Created with Pixso.
	</desc>
	<defs/>
	<mask id="mask28_10539" mask-type="alpha" maskUnits="userSpaceOnUse" x="0.000000" y="0.000000" width="161.000000" height="77.000000">
		<path id="Vector" d="M0 0L161 0L161 77L0 77L0 0Z" fill="#000000" fill-opacity="1.000000" fill-rule="evenodd"/>
	</mask>
	<g mask="url(#mask28_10539)">
		<path id="Vector" d="M60.88 65.55C58.35 65.55 56.16 65 54.3 63.87C52.44 62.75 51 61.19 49.98 59.17C48.97 57.16 48.46 54.8 48.46 52.11C48.46 49.42 48.97 47.06 49.98 45.03C51 43.01 52.44 41.44 54.3 40.32C56.16 39.19 58.35 38.64 60.88 38.64C63.41 38.64 65.6 39.19 67.46 40.32C69.32 41.44 70.75 43.01 71.76 45.03C72.78 47.06 73.3 49.42 73.3 52.11C73.3 54.8 72.78 57.16 71.76 59.17C70.75 61.19 69.32 62.75 67.46 63.87C65.6 65 63.41 65.55 60.88 65.55ZM60.91 60.63C62.29 60.63 63.43 60.25 64.36 59.5C65.28 58.73 65.96 57.69 66.41 56.41C66.87 55.12 67.11 53.68 67.11 52.09C67.11 50.5 66.87 49.06 66.41 47.77C65.96 46.46 65.28 45.43 64.36 44.66C63.43 43.89 62.29 43.51 60.91 43.51C59.51 43.51 58.34 43.89 57.4 44.66C56.48 45.43 55.79 46.46 55.33 47.77C54.88 49.06 54.65 50.5 54.65 52.09C54.65 53.68 54.88 55.12 55.33 56.41C55.79 57.69 56.48 58.73 57.4 59.5C58.34 60.25 59.51 60.63 60.91 60.63Z" fill="#FFFFFF" fill-opacity="1.000000" fill-rule="evenodd"/>
		<path id="Vector" d="M32.76 65.05L32.76 38.98L38.68 38.98L38.68 43.32L38.95 43.32C39.42 41.82 40.23 40.66 41.38 39.84C42.54 39.02 43.86 38.6 45.34 38.6C45.68 38.6 46.06 38.62 46.47 38.66C46.9 38.68 47.25 38.72 47.54 38.77L47.54 44.42C47.28 44.33 46.87 44.26 46.3 44.19C45.75 44.11 45.22 44.07 44.7 44.07C43.59 44.07 42.59 44.31 41.7 44.8C40.82 45.27 40.13 45.94 39.62 46.78C39.12 47.63 38.86 48.61 38.86 49.72L38.86 65.05L32.76 65.05Z" fill="#FFFFFF" fill-opacity="1.000000" fill-rule="evenodd"/>
		<path id="Vector" d="M3.4 65.05L3.4 30.29L16.36 30.29C19.01 30.29 21.24 30.78 23.04 31.78C24.85 32.78 26.22 34.15 27.14 35.89C28.07 37.62 28.54 39.59 28.54 41.8C28.54 44.02 28.07 46 27.14 47.73C26.21 49.47 24.83 50.83 23.01 51.83C21.19 52.81 18.94 53.3 16.28 53.3L7.69 53.3L7.69 48.12L15.43 48.12C16.98 48.12 18.26 47.85 19.24 47.31C20.23 46.77 20.97 46.02 21.44 45.07C21.92 44.12 22.16 43.03 22.16 41.8C22.16 40.56 21.92 39.48 21.44 38.54C20.97 37.6 20.23 36.87 19.23 36.35C18.24 35.82 16.96 35.55 15.4 35.55L9.66 35.55L9.66 65.05L3.4 65.05Z" fill="#FFFFFF" fill-opacity="1.000000" fill-rule="evenodd"/>
		<path id="Vector" d="M102.27 27.87C90.97 27.87 81.81 37.09 81.81 48.45C81.81 59.82 90.97 69.03 102.27 69.03L139.22 69.03C150.52 69.03 159.67 59.82 159.67 48.45C159.67 37.09 150.52 27.87 139.22 27.87L102.27 27.87ZM108.64 66.37L108.64 31.62L102.38 31.62L102.38 66.37L108.64 66.37ZM112.95 31.62L112.95 36.89L123.63 36.89L123.63 66.37L129.84 66.37L129.84 36.89L140.51 36.89L140.51 31.62L112.95 31.62Z" fill="#FFFFFF" fill-opacity="1.000000" fill-rule="evenodd"/>
		<path id="Vector" d="M143.93 9.3L147.96 9.3C149.71 9.3 151.06 9.73 152.01 10.58C152.97 11.44 153.45 12.56 153.46 13.94C153.45 14.84 153.23 15.64 152.8 16.34C152.37 17.04 151.75 17.59 150.93 17.99C150.11 18.39 149.13 18.58 147.96 18.58L141.75 18.58L141.75 4.82L144.85 4.82L144.85 15.92L147.96 15.92C148.66 15.92 149.24 15.74 149.69 15.39C150.14 15.02 150.37 14.55 150.37 13.99C150.37 13.39 150.14 12.9 149.69 12.53C149.24 12.15 148.66 11.96 147.96 11.96L143.93 11.96L143.93 9.3ZM155.16 18.58L155.16 4.82L158.38 4.82L158.38 18.58L155.16 18.58Z" fill="#FFFFFF" fill-opacity="1.000000" fill-rule="evenodd"/>
		<path id="Vector" d="M128.72 7.48L128.72 4.82L140.68 4.82L140.68 7.48L136.26 7.48L136.26 18.58L133.14 18.58L133.14 7.48L128.72 7.48Z" fill="#FFFFFF" fill-opacity="1.000000" fill-rule="evenodd"/>
		<path id="Vector" d="M122.71 18.85C121.34 18.85 120.17 18.55 119.19 17.94C118.22 17.34 117.47 16.51 116.94 15.44C116.42 14.38 116.16 13.15 116.16 11.76C116.16 10.36 116.42 9.12 116.96 8.06C117.49 6.98 118.25 6.14 119.22 5.55C120.2 4.94 121.36 4.64 122.69 4.64C123.8 4.64 124.78 4.85 125.64 5.26C126.5 5.67 127.18 6.25 127.7 6.99C128.21 7.73 128.5 8.6 128.57 9.59L125.49 9.59C125.36 8.92 125.07 8.37 124.6 7.93C124.13 7.48 123.51 7.26 122.74 7.26C122.08 7.26 121.5 7.44 121 7.8C120.5 8.15 120.11 8.66 119.83 9.32C119.56 9.98 119.42 10.78 119.42 11.7C119.42 12.64 119.56 13.44 119.83 14.12C120.11 14.79 120.49 15.31 120.98 15.67C121.48 16.03 122.06 16.21 122.74 16.21C123.21 16.21 123.64 16.12 124.01 15.94C124.39 15.75 124.71 15.49 124.96 15.14C125.22 14.8 125.39 14.37 125.49 13.88L128.57 13.88C128.49 14.85 128.21 15.71 127.71 16.47C127.22 17.21 126.55 17.8 125.7 18.22C124.85 18.64 123.85 18.85 122.71 18.85Z" fill="#FFFFFF" fill-opacity="1.000000" fill-rule="evenodd"/>
		<path id="Vector" d="M106.15 14.19L111.62 4.82L114.94 4.82L114.94 18.58L111.82 18.58L111.82 9.2L106.36 18.58L103.04 18.58L103.04 4.82L106.15 4.82L106.15 14.19Z" fill="#FFFFFF" fill-opacity="1.000000" fill-rule="evenodd"/>
		<path id="Vector" d="M88.57 18.58L88.55 15.91L89.02 15.91C89.38 15.91 89.68 15.83 89.92 15.67C90.16 15.51 90.37 15.24 90.53 14.87C90.69 14.48 90.81 13.97 90.9 13.32C90.99 12.68 91.05 11.87 91.09 10.91L91.33 4.82L101.3 4.82L101.3 18.58L98.18 18.58L98.18 7.48L94.26 7.48L94.04 11.92C93.99 13.07 93.86 14.06 93.66 14.9C93.46 15.74 93.19 16.42 92.82 16.97C92.47 17.51 92.02 17.92 91.48 18.19C90.94 18.45 90.3 18.58 89.56 18.58L88.57 18.58Z" fill="#FFFFFF" fill-opacity="1.000000" fill-rule="evenodd"/>
		<path id="Vector" d="M80.55 18.86C79.69 18.86 78.91 18.7 78.21 18.39C77.52 18.08 76.98 17.61 76.57 17C76.18 16.38 75.98 15.62 75.98 14.72C75.98 13.94 76.12 13.3 76.4 12.8C76.69 12.29 77.08 11.88 77.57 11.58C78.06 11.27 78.62 11.04 79.24 10.89C79.86 10.73 80.5 10.61 81.17 10.54C81.97 10.45 82.62 10.38 83.12 10.32C83.62 10.24 83.98 10.14 84.2 9.99C84.44 9.84 84.55 9.61 84.55 9.3L84.55 9.25C84.55 8.57 84.35 8.05 83.95 7.68C83.56 7.31 82.98 7.12 82.24 7.12C81.45 7.12 80.82 7.3 80.36 7.64C79.9 7.99 79.59 8.4 79.43 8.87L76.42 8.44C76.66 7.6 77.05 6.91 77.6 6.35C78.14 5.78 78.81 5.35 79.6 5.07C80.39 4.79 81.26 4.64 82.22 4.64C82.88 4.64 83.53 4.72 84.19 4.88C84.84 5.03 85.44 5.29 85.98 5.65C86.52 6 86.95 6.48 87.28 7.09C87.61 7.7 87.77 8.46 87.77 9.37L87.77 18.58L84.68 18.58L84.68 16.69L84.57 16.69C84.37 17.07 84.1 17.43 83.74 17.76C83.39 18.09 82.95 18.36 82.41 18.56C81.89 18.76 81.27 18.86 80.55 18.86ZM81.39 16.48C82.04 16.48 82.6 16.35 83.07 16.09C83.55 15.83 83.91 15.48 84.17 15.05C84.43 14.62 84.56 14.16 84.56 13.65L84.56 12.03C84.46 12.11 84.29 12.19 84.04 12.26C83.81 12.33 83.54 12.39 83.24 12.44C82.95 12.5 82.65 12.55 82.36 12.59C82.07 12.63 81.82 12.67 81.6 12.7C81.12 12.76 80.69 12.87 80.31 13.02C79.93 13.17 79.63 13.38 79.41 13.65C79.19 13.91 79.08 14.25 79.08 14.67C79.08 15.26 79.3 15.71 79.73 16.02C80.17 16.32 80.72 16.48 81.39 16.48Z" fill="#FFFFFF" fill-opacity="1.000000" fill-rule="evenodd"/>
		<path id="Vector" d="M66.02 14.19L71.5 4.82L74.81 4.82L74.81 18.58L71.7 18.58L71.7 9.2L66.24 18.58L62.92 18.58L62.92 4.82L66.02 4.82L66.02 14.19Z" fill="#FFFFFF" fill-opacity="1.000000" fill-rule="evenodd"/>
		<path id="Vector" d="M59.69 4.82L59.69 16.16L61.78 16.16L61.78 23.01L58.63 23.01L58.63 18.58L48.14 18.58L48.14 4.82L51.24 4.82L51.24 15.92L56.6 15.92L56.6 4.82L59.69 4.82Z" fill="#FFFFFF" fill-opacity="1.000000" fill-rule="evenodd"/>
		<path id="Vector" d="M40.83 18.85C39.46 18.85 38.28 18.56 37.28 17.99C36.29 17.41 35.53 16.59 34.99 15.53C34.46 14.47 34.19 13.22 34.19 11.78C34.19 10.37 34.46 9.12 34.99 8.06C35.53 6.98 36.29 6.14 37.25 5.55C38.22 4.94 39.36 4.64 40.66 4.64C41.51 4.64 42.3 4.78 43.05 5.05C43.8 5.32 44.47 5.74 45.05 6.31C45.63 6.88 46.08 7.6 46.42 8.48C46.75 9.35 46.92 10.39 46.92 11.59L46.92 12.59L35.71 12.59L35.71 10.4L43.83 10.4C43.82 9.78 43.69 9.23 43.42 8.75C43.16 8.26 42.8 7.87 42.33 7.59C41.87 7.31 41.33 7.17 40.71 7.17C40.05 7.17 39.47 7.33 38.97 7.65C38.47 7.97 38.09 8.39 37.81 8.91C37.53 9.42 37.39 9.98 37.39 10.6L37.39 12.51C37.39 13.31 37.53 14 37.82 14.57C38.11 15.14 38.52 15.57 39.04 15.88C39.57 16.17 40.18 16.32 40.88 16.32C41.35 16.32 41.77 16.26 42.15 16.13C42.53 15.99 42.86 15.79 43.14 15.53C43.42 15.26 43.63 14.94 43.77 14.55L46.78 14.89C46.59 15.69 46.23 16.39 45.7 16.99C45.17 17.58 44.49 18.04 43.67 18.37C42.84 18.69 41.9 18.85 40.83 18.85Z" fill="#FFFFFF" fill-opacity="1.000000" fill-rule="evenodd"/>
		<path id="Vector" d="M21.42 18.58L21.42 4.82L32.97 4.82L32.97 18.58L29.86 18.58L29.86 7.48L24.5 7.48L24.5 18.58L21.42 18.58Z" fill="#FFFFFF" fill-opacity="1.000000" fill-rule="evenodd"/>
		<path id="Vector" d="M20.04 6.43L16.71 6.43C16.62 5.88 16.44 5.39 16.19 4.97C15.93 4.54 15.61 4.17 15.23 3.87C14.85 3.58 14.42 3.35 13.93 3.2C13.45 3.05 12.93 2.97 12.38 2.97C11.38 2.97 10.51 3.22 9.74 3.72C8.97 4.22 8.37 4.95 7.94 5.91C7.51 6.86 7.29 8.03 7.29 9.41C7.29 10.82 7.51 12 7.94 12.96C8.38 13.91 8.98 14.64 9.74 15.12C10.51 15.61 11.38 15.85 12.37 15.85C12.91 15.85 13.42 15.78 13.9 15.64C14.38 15.49 14.81 15.27 15.19 14.98C15.58 14.69 15.9 14.34 16.16 13.92C16.43 13.51 16.61 13.03 16.71 12.49L20.04 12.51C19.92 13.38 19.65 14.2 19.23 14.96C18.82 15.73 18.28 16.41 17.62 16.99C16.96 17.57 16.18 18.02 15.29 18.35C14.4 18.67 13.41 18.83 12.32 18.83C10.72 18.83 9.29 18.46 8.03 17.71C6.77 16.97 5.78 15.89 5.06 14.48C4.33 13.07 3.97 11.38 3.97 9.41C3.97 7.43 4.34 5.75 5.07 4.34C5.8 2.93 6.79 1.85 8.05 1.11C9.31 0.36 10.73 -0.01 12.32 -0.01C13.34 -0.01 14.28 0.13 15.15 0.42C16.03 0.7 16.8 1.12 17.49 1.68C18.17 2.23 18.73 2.91 19.17 3.71C19.61 4.5 19.91 5.41 20.04 6.43Z" fill="#FFFFFF" fill-opacity="1.000000" fill-rule="evenodd"/>
	</g>
</svg>
