<svg width="920" height="290" viewBox="0 0 920 290" fill="none" xmlns="http://www.w3.org/2000/svg">
<g clip-path="url(#clip0_28_12759)">
<g clip-path="url(#clip1_28_12759)">
<g clip-path="url(#clip2_28_12759)">
<path d="M524.83 289.091V256.416H443.052V234.211L526.274 159.113H548.478V232.586H566.712V256.416H548.478V289.091H524.83ZM479.88 232.586H524.83V195.037L479.88 232.586Z" fill="white"/>
<path d="M302.41 289.091V239.266C302.41 234.572 303.553 230.36 305.84 226.63C308.127 222.898 311.135 219.949 314.866 217.783C318.597 215.497 322.749 214.353 327.322 214.353H405.309C405.91 214.353 406.392 214.173 406.753 213.812C407.234 213.33 407.475 212.788 407.475 212.187V184.928C407.475 184.326 407.234 183.844 406.753 183.484C406.392 183.002 405.91 182.761 405.309 182.761H328.224C327.623 182.761 327.081 183.002 326.6 183.484C326.239 183.844 326.058 184.326 326.058 184.928V193.774H302.41V184.025C302.41 179.331 303.553 175.119 305.84 171.388C308.127 167.657 311.135 164.709 314.866 162.543C318.597 160.256 322.749 159.113 327.322 159.113H406.211C410.785 159.113 414.937 160.256 418.667 162.543C422.519 164.709 425.527 167.657 427.694 171.388C429.981 175.119 431.124 179.331 431.124 184.025V213.27C431.124 217.723 429.981 221.876 427.694 225.726C425.527 229.457 422.519 232.467 418.667 234.753C414.937 237.04 410.785 238.183 406.211 238.183H328.224C327.623 238.183 327.081 238.423 326.6 238.905C326.239 239.266 326.058 239.747 326.058 240.349V263.276C326.058 263.877 326.239 264.419 326.6 264.901C327.081 265.261 327.623 265.442 328.224 265.442H431.124V289.091H302.41Z" fill="white"/>
<path d="M176.766 289.091C172.193 289.091 168.041 287.887 164.31 285.48C160.579 282.953 157.571 279.704 155.284 275.732C152.998 271.761 151.855 267.548 151.855 263.095V184.567C151.855 179.873 152.998 175.661 155.284 171.93C157.571 168.079 160.579 165.01 164.31 162.724C168.041 160.317 172.193 159.113 176.766 159.113H255.656C260.229 159.113 264.381 160.317 268.112 162.724C271.843 165.01 274.851 168.079 277.138 171.93C279.424 175.661 280.568 179.873 280.568 184.567V263.095C280.568 267.548 279.424 271.761 277.138 275.732C274.851 279.704 271.843 282.953 268.112 285.48C264.381 287.887 260.229 289.091 255.656 289.091H176.766ZM186.334 264.178H254.753C255.355 264.178 255.837 263.997 256.197 263.637C256.679 263.155 256.92 262.613 256.92 262.012V205.327L186.334 264.178ZM175.503 242.154L246.088 183.303H177.669C177.068 183.303 176.525 183.544 176.045 184.025C175.683 184.386 175.503 184.868 175.503 185.469V242.154Z" fill="white"/>
<path d="M2.00485 289.091V239.266C2.00485 234.572 3.14819 230.36 5.43483 226.63C7.72148 222.898 10.7302 219.949 14.461 217.783C18.1919 215.497 22.344 214.353 26.9173 214.353H104.904C105.506 214.353 105.987 214.173 106.348 213.812C106.829 213.33 107.07 212.788 107.07 212.187V184.928C107.07 184.326 106.829 183.844 106.348 183.484C105.987 183.002 105.506 182.761 104.904 182.761H27.8199C27.2181 182.761 26.6766 183.002 26.1952 183.484C25.8341 183.844 25.6536 184.326 25.6536 184.928V193.774H2.00485V184.025C2.00485 179.331 3.14819 175.119 5.43483 171.388C7.72148 167.657 10.7302 164.709 14.461 162.543C18.1919 160.256 22.344 159.113 26.9173 159.113H105.806C110.38 159.113 114.532 160.256 118.263 162.543C122.114 164.709 125.123 167.657 127.289 171.388C129.576 175.119 130.719 179.331 130.719 184.025V213.27C130.719 217.723 129.576 221.876 127.289 225.726C125.123 229.457 122.114 232.467 118.263 234.753C114.532 237.04 110.38 238.183 105.806 238.183H27.8199C27.2181 238.183 26.6766 238.423 26.1952 238.905C25.8341 239.266 25.6536 239.747 25.6536 240.349V263.276C25.6536 263.877 25.8341 264.419 26.1952 264.901C26.6766 265.261 27.2181 265.442 27.8199 265.442H130.719V289.091H2.00485Z" fill="white"/>
<path d="M814.002 130.228C809.428 130.228 805.217 129.085 801.365 126.798C797.634 124.511 794.626 121.502 792.339 117.772C790.052 113.921 788.909 109.709 788.909 105.134V95.2061H812.738V104.051C812.738 104.654 812.919 105.195 813.28 105.676C813.761 106.038 814.303 106.218 814.904 106.218H892.71C893.313 106.218 893.793 106.038 894.155 105.676C894.637 105.195 894.876 104.654 894.876 104.051V79.3199C894.876 78.7181 894.637 78.2367 894.155 77.8756C893.793 77.5146 893.313 77.3341 892.71 77.3341H814.002C809.428 77.3341 805.217 76.1908 801.365 73.9041C797.634 71.6174 794.626 68.6087 792.339 64.8778C790.052 61.0267 788.909 56.7542 788.909 52.0606V25.3429C788.909 20.7697 790.052 16.6176 792.339 12.8867C794.626 9.03554 797.634 5.96662 801.365 3.67997C805.217 1.39332 809.428 0.25 814.002 0.25H893.793C898.367 0.25 902.519 1.39332 906.25 3.67997C910.101 5.96662 913.171 9.03554 915.457 12.8867C917.744 16.6176 918.887 20.7697 918.887 25.3429V35.2718H894.876V26.4261C894.876 25.8243 894.637 25.3429 894.155 24.9819C893.793 24.5005 893.313 24.2598 892.71 24.2598H814.904C814.303 24.2598 813.761 24.5005 813.28 24.9819C812.919 25.3429 812.738 25.8243 812.738 26.4261V51.158C812.738 51.7598 812.919 52.2411 813.28 52.6022C813.761 52.9632 814.303 53.1438 814.904 53.1438H893.793C898.367 53.1438 902.519 54.2871 906.25 56.5737C910.101 58.8604 913.171 61.9293 915.457 65.7805C917.744 69.5113 918.887 73.7236 918.887 78.4173V105.134C918.887 109.709 917.744 113.921 915.457 117.772C913.171 121.502 910.101 124.511 906.25 126.798C902.519 129.085 898.367 130.228 893.793 130.228H814.002Z" fill="white"/>
<path d="M696.494 130.228V81.4862L636.56 0.25H664.722L708.589 55.3101L751.915 0.25H780.619L720.504 81.6666V130.228H696.494Z" fill="white"/>
<path d="M498.75 130.228V25.3429C498.75 20.7697 499.893 16.6176 502.18 12.8867C504.466 9.03554 507.476 5.96662 511.207 3.67997C515.057 1.39332 519.27 0.25 523.843 0.25H603.455C608.028 0.25 612.24 1.39332 616.091 3.67997C619.943 5.96662 623.011 9.03554 625.298 12.8867C627.585 16.6176 628.728 20.7697 628.728 25.3429V130.228H604.718V86.5408H522.58V130.228H498.75ZM522.58 62.7116H604.718V26.4261C604.718 25.8243 604.477 25.3429 603.996 24.9819C603.515 24.5005 602.973 24.2598 602.371 24.2598H524.746C524.144 24.2598 523.603 24.5005 523.121 24.9819C522.76 25.3429 522.58 25.8243 522.58 26.4261V62.7116Z" fill="white"/>
<path d="M348.195 130.228V0.25H452.9C457.473 0.25 461.685 1.39332 465.537 3.67997C469.388 5.96662 472.457 9.03554 474.743 12.8867C477.03 16.6176 478.173 20.7697 478.173 25.3429V105.134C478.173 109.709 477.03 113.921 474.743 117.772C472.457 121.502 469.388 124.511 465.537 126.798C461.685 129.085 457.473 130.228 452.9 130.228H348.195ZM374.011 106.218H451.817C452.418 106.218 452.96 106.038 453.441 105.676C453.923 105.195 454.164 104.654 454.164 104.051V26.4261C454.164 25.8243 453.923 25.3429 453.441 24.9819C452.96 24.5005 452.418 24.2598 451.817 24.2598H374.011C373.408 24.2598 372.867 24.5005 372.385 24.9819C372.025 25.3429 371.844 25.8243 371.844 26.4261V104.051C371.844 104.654 372.025 105.195 372.385 105.676C372.867 106.038 373.408 106.218 374.011 106.218Z" fill="white"/>
<path d="M149.856 130.229V0.431396H254.561C259.134 0.431396 263.346 1.57472 267.198 3.86137C271.049 6.14801 274.118 9.21694 276.405 13.0682C278.691 16.7989 279.835 20.9511 279.835 25.5243V60.5462C279.835 65.1194 278.691 69.3317 276.405 73.1829C274.118 77.0341 271.049 80.103 267.198 82.3896C263.346 84.556 259.134 85.6391 254.561 85.6391L173.686 85.8197V130.229H149.856ZM175.853 61.6294H253.478C254.079 61.6294 254.621 61.4488 255.102 61.0877C255.584 60.7267 255.825 60.2453 255.825 59.6436V26.4269C255.825 25.8252 255.584 25.3439 255.102 24.9828C254.621 24.5014 254.079 24.2607 253.478 24.2607H175.853C175.25 24.2607 174.709 24.5014 174.227 24.9828C173.867 25.3439 173.686 25.8252 173.686 26.4269V59.6436C173.686 60.2453 173.867 60.7267 174.227 61.0877C174.709 61.4488 175.25 61.6294 175.853 61.6294Z" fill="white"/>
<path d="M25.0995 130.228C20.5263 130.228 16.314 129.085 12.4628 126.798C8.73192 124.511 5.72318 121.502 3.43653 117.772C1.14988 113.921 0.00656128 109.709 0.00656128 105.134V25.3429C0.00656128 20.7697 1.14988 16.6176 3.43653 12.8867C5.72318 9.03554 8.73192 5.96662 12.4628 3.67997C16.314 1.39332 20.5263 0.25 25.0995 0.25H104.711C109.284 0.25 113.497 1.39332 117.347 3.67997C121.199 5.96662 124.267 9.03554 126.554 12.8867C128.841 16.6176 129.984 20.7697 129.984 25.3429V35.4523H105.974V26.4261C105.974 25.8243 105.734 25.3429 105.253 24.9819C104.771 24.5005 104.23 24.2598 103.628 24.2598H26.0021C25.4003 24.2598 24.8588 24.5005 24.3774 24.9819C24.0163 25.3429 23.8358 25.8243 23.8358 26.4261V104.051C23.8358 104.654 24.0163 105.195 24.3774 105.676C24.8588 106.038 25.4003 106.218 26.0021 106.218H103.628C104.23 106.218 104.771 106.038 105.253 105.676C105.734 105.195 105.974 104.654 105.974 104.051V80.5836H76.5491V56.5737H129.984V105.134C129.984 109.709 128.841 113.921 126.554 117.772C124.267 121.502 121.199 124.511 117.347 126.798C113.497 129.085 109.284 130.228 104.711 130.228H25.0995Z" fill="white"/>
</g>
</g>
</g>
<defs>
<clipPath id="clip0_28_12759">
<rect width="919.22" height="289.75" fill="white" transform="translate(0 0.25)"/>
</clipPath>
<clipPath id="clip1_28_12759">
<rect width="919.22" height="289.75" fill="white" transform="translate(0 0.25)"/>
</clipPath>
<clipPath id="clip2_28_12759">
<rect width="919.207" height="289.75" fill="white" transform="translate(0.00656128 0.25)"/>
</clipPath>
</defs>
</svg>
