<svg width="534" height="786" viewBox="0 0 534 786" fill="none" xmlns="http://www.w3.org/2000/svg">
<path d="M484.369 730.142L481.264 712.707L475.062 716.677L458.596 732.206L449.985 736.1L483.25 798.637L482.975 815.665L503.368 821.069L516.792 811.672L484.369 730.142Z" fill="#337B1C"/>
<path d="M458.593 732.206L503.365 821.069" stroke="#6EFF40" stroke-width="1.4062" stroke-linecap="round" stroke-linejoin="round"/>
<path d="M516.788 811.673L507.649 802.721L480.252 740.121L475.057 716.677" stroke="#6EFF40" stroke-width="1.4062" stroke-linecap="round" stroke-linejoin="round"/>
<path d="M482.974 815.665L483.25 798.638L449.985 736.101" stroke="#4CC326" stroke-width="3.74988" stroke-linecap="round" stroke-linejoin="round"/>
<path d="M481.261 712.708L484.366 730.143L516.79 811.673" stroke="#4CC326" stroke-width="3.74988" stroke-linecap="round" stroke-linejoin="round"/>
<path d="M455.825 686.444L431.33 654.963L459.532 607.001L356.333 632.646L352.126 659.673L449.989 736.1L458.6 732.206L475.066 716.678L481.268 712.708L455.825 686.444Z" fill="#337B1C"/>
<path d="M377.916 679.881L431.322 654.962L442.873 685.869L458.591 732.206" stroke="#6EFF40" stroke-width="1.4062" stroke-linecap="round" stroke-linejoin="round"/>
<path d="M475.06 716.678L442.513 685.143L395.355 671.746L383.664 654.539L385.842 621.153" stroke="#6EFF40" stroke-width="1.4062" stroke-linecap="round" stroke-linejoin="round"/>
<path d="M458.593 732.206L475.058 716.677L481.261 712.707" stroke="#6EFF40" stroke-width="1.4062" stroke-linecap="round" stroke-linejoin="round"/>
<path d="M449.982 736.099L352.119 659.673L356.326 632.646" stroke="#4CC326" stroke-width="3.74988" stroke-linecap="round" stroke-linejoin="round"/>
<path d="M459.529 607.001L431.327 654.963L455.822 686.444L481.264 712.707" stroke="#4CC326" stroke-width="3.74988" stroke-linecap="round" stroke-linejoin="round"/>
<path d="M174.465 819.82L164.946 785.496L165.841 712.6L154.643 720.305L131.213 710.756L140.591 829.001L139.924 830.217L159.168 838.861L166.092 839.125L174.465 819.82Z" fill="#337B1C"/>
<path d="M159.169 838.861L156.194 800.853L154.644 720.305" stroke="#6EFF40" stroke-width="1.4062" stroke-linecap="round" stroke-linejoin="round"/>
<path d="M138.074 802.903L156.193 800.853L164.858 784.62" stroke="#6EFF40" stroke-width="1.4062" stroke-linecap="round" stroke-linejoin="round"/>
<path d="M165.876 839.62L174.464 819.82L164.858 784.62L165.605 712.597" stroke="#4CC326" stroke-width="3.74988" stroke-linecap="round" stroke-linejoin="round"/>
<path d="M131.128 711.598L140.656 829.695" stroke="#4CC326" stroke-width="3.74988" stroke-linecap="round" stroke-linejoin="round"/>
<path d="M181.334 611.343L215.285 606.363L150.517 578.641L122.981 575.409L98.1246 538.549L127.278 661.141L131.214 710.756L154.644 720.304L165.842 712.6L166.238 680.232L181.334 611.343Z" fill="#337B1C"/>
<path d="M154.643 720.305L153.955 684.504L170.98 587.495" stroke="#6EFF40" stroke-width="1.4062" stroke-linecap="round" stroke-linejoin="round"/>
<path d="M165.69 712.357L154.367 720.731L130.531 711.122" stroke="#6EFF40" stroke-width="1.4062" stroke-linecap="round" stroke-linejoin="round"/>
<path d="M170.974 587.496L165.947 679.273L153.949 684.505L123.517 575.22L126.99 660.328" stroke="#6EFF40" stroke-width="1.4062" stroke-linecap="round" stroke-linejoin="round"/>
<path d="M170.983 587.496L179.44 611.268" stroke="#6EFF40" stroke-width="1.4062" stroke-linecap="round" stroke-linejoin="round"/>
<path d="M98.5656 539.813L126.998 660.328L131.135 711.598" stroke="#4CC326" stroke-width="3.74988" stroke-linecap="round" stroke-linejoin="round"/>
<path d="M165.608 712.598L165.954 679.274L179.438 611.27L215.286 606.363" stroke="#4CC326" stroke-width="3.74988" stroke-linecap="round" stroke-linejoin="round"/>
<path d="M137.905 482.929L175.64 480.423L243.355 465.23L282.278 459.192L275.098 439.69L251.631 406.607L244.192 367.96L242.74 309.897L248.29 251.693L241.152 252.787L215.466 240.257L168.985 258.933L147.655 251.713L81.4347 426.567L92.7946 506.278L137.905 482.929Z" fill="#337B1C"/>
<path d="M136.693 482.324L147.124 395.62L169.764 325.904L168.861 258.596" stroke="#6EFF40" stroke-width="1.4062" stroke-linecap="round" stroke-linejoin="round"/>
<path d="M81.4413 426.566L147.124 395.619L214.714 378.699L243.895 366.992" stroke="#6EFF40" stroke-width="1.4062" stroke-linecap="round" stroke-linejoin="round"/>
<path d="M121.937 329.47L169.764 325.904L234.297 314.795L242.443 308.203" stroke="#6EFF40" stroke-width="1.4062" stroke-linecap="round" stroke-linejoin="round"/>
<path d="M118.823 329.251L168.865 258.596" stroke="#6EFF40" stroke-width="1.4062" stroke-linecap="round" stroke-linejoin="round"/>
<path d="M215.346 240.177L169.763 325.904L214.713 378.7L199.289 433.462L174.451 480.797" stroke="#6EFF40" stroke-width="1.4062" stroke-linecap="round" stroke-linejoin="round"/>
<path d="M215.351 240.177L234.302 314.796L214.718 378.7L242.71 463.989" stroke="#6EFF40" stroke-width="1.4062" stroke-linecap="round" stroke-linejoin="round"/>
<path d="M241.231 252.621L234.296 314.796L243.106 365.964L247.28 411.597" stroke="#6EFF40" stroke-width="1.4062" stroke-linecap="round" stroke-linejoin="round"/>
<path d="M147.127 395.62L199.292 433.462L242.709 463.989" stroke="#6EFF40" stroke-width="1.4062" stroke-linecap="round" stroke-linejoin="round"/>
<path d="M214.717 378.699L247.284 411.596L281.453 457.612" stroke="#6EFF40" stroke-width="1.4062" stroke-linecap="round" stroke-linejoin="round"/>
<path d="M147.997 251.434L81.4365 426.567L93.3591 508.227" stroke="#4CC326" stroke-width="3.74988" stroke-linecap="round" stroke-linejoin="round"/>
<path d="M248.351 251.618L242.205 309.171L243.747 367.868L251.277 407.333L273.865 437.75" stroke="#4CC326" stroke-width="3.74988" stroke-linecap="round" stroke-linejoin="round"/>
<path d="M456.842 565.866L450.947 513.117L401.083 487.003L321.867 463.622L273.794 437.695L281.713 457.662L241.791 463.7L177.886 480.016L138.876 479.781L92.8159 503.33L97.9462 540.945L123.566 575.574L150.681 578.891L213.073 605.49L230.798 612.852L302.683 630.165L355.642 632.246L453.691 607.432L459.511 606.537L456.842 565.866Z" fill="#337B1C"/>
<path d="M168.767 586.587L150.681 578.891" stroke="#6EFF40" stroke-width="1.4062" stroke-linecap="round" stroke-linejoin="round"/>
<path d="M96.5516 536.571L123.566 575.574L150.681 578.891" stroke="#6EFF40" stroke-width="1.4062" stroke-linecap="round" stroke-linejoin="round"/>
<path d="M213.074 605.491L168.768 586.587" stroke="#6EFF40" stroke-width="1.4062" stroke-linecap="round" stroke-linejoin="round"/>
<path d="M355.641 632.247L457.333 608.044" stroke="#6EFF40" stroke-width="1.4062" stroke-linecap="round" stroke-linejoin="round"/>
<path d="M150.681 578.891L121.697 519.237L137.202 480.485L137.236 480.223" stroke="#6EFF40" stroke-width="1.4062" stroke-linecap="round" stroke-linejoin="round"/>
<path d="M93.2075 506.009L122.128 518.759" stroke="#6EFF40" stroke-width="1.4062" stroke-linecap="round" stroke-linejoin="round"/>
<path d="M220.789 587.694L229.998 613.161" stroke="#6EFF40" stroke-width="1.4062" stroke-linecap="round" stroke-linejoin="round"/>
<path d="M318.586 618.658L220.793 587.694" stroke="#6EFF40" stroke-width="1.4062" stroke-linecap="round" stroke-linejoin="round"/>
<path d="M303.097 630.032L220.788 587.694" stroke="#6EFF40" stroke-width="1.4062" stroke-linecap="round" stroke-linejoin="round"/>
<path d="M216.274 507.04L242.7 463.893" stroke="#6EFF40" stroke-width="1.4062" stroke-linecap="round" stroke-linejoin="round"/>
<path d="M217.672 506.694L338.009 537.052" stroke="#6EFF40" stroke-width="1.4062" stroke-linecap="round" stroke-linejoin="round"/>
<path d="M242.701 463.893L338.007 537.052" stroke="#6EFF40" stroke-width="1.4062" stroke-linecap="round" stroke-linejoin="round"/>
<path d="M401.07 487.79L429.472 517.757" stroke="#6EFF40" stroke-width="1.4062" stroke-linecap="round" stroke-linejoin="round"/>
<path d="M429.473 517.757L450.684 512.271" stroke="#6EFF40" stroke-width="1.4062" stroke-linecap="round" stroke-linejoin="round"/>
<path d="M137.334 479.761L175.723 480.466L242.703 463.894L281.714 457.663L309.033 476.915L375.657 507.299" stroke="#6EFF40" stroke-width="1.4062" stroke-linecap="round" stroke-linejoin="round"/>
<path d="M321.861 463.623L309.026 476.914L338.003 537.052" stroke="#6EFF40" stroke-width="1.4062" stroke-linecap="round" stroke-linejoin="round"/>
<path d="M281.715 457.663L273.797 437.695" stroke="#6EFF40" stroke-width="1.4062" stroke-linecap="round" stroke-linejoin="round"/>
<path d="M273.794 437.695L321.866 463.622L400.633 486.725L450.684 512.271" stroke="#4CC326" stroke-width="3.74988" stroke-linecap="round" stroke-linejoin="round"/>
<path d="M93.2056 506.008L97.7887 539.128" stroke="#4CC326" stroke-width="3.74988" stroke-linecap="round" stroke-linejoin="round"/>
<path d="M213.075 605.491L230.005 613.161L303.106 630.032L355.645 632.246" stroke="#4CC326" stroke-width="3.74988" stroke-linecap="round" stroke-linejoin="round"/>
<path d="M486.931 482.371L468.308 507.651L451.056 511.939C451.007 514.911 455.901 560.112 456.086 563.067L478.547 552.663L494.782 526.067L486.931 482.371Z" fill="#337B1C"/>
<path d="M450.654 512.468L455.589 563.349" stroke="#6EFF40" stroke-width="1.4062" stroke-linecap="round" stroke-linejoin="round"/>
<path d="M486.666 481.877L478.924 530.614L455.585 563.349" stroke="#6EFF40" stroke-width="1.4062" stroke-linecap="round" stroke-linejoin="round"/>
<path d="M494.185 526.779L478.928 530.615" stroke="#6EFF40" stroke-width="1.4062" stroke-linecap="round" stroke-linejoin="round"/>
<path d="M450.65 512.467L468.509 507.394L486.666 481.877L494.18 526.779L478.517 552.583L455.584 563.349" stroke="#4CC326" stroke-width="3.74988" stroke-linecap="round" stroke-linejoin="round"/>
<path d="M430.992 743.622L400.171 759.741L380.465 747.516L371.68 828.528L363.659 835.331L381.414 855.016L393.138 858.53L395.699 849.442L430.992 743.622Z" fill="#337B1C"/>
<path d="M400.176 759.741L381.762 855.37" stroke="#6EFF40" stroke-width="1.4062" stroke-linecap="round" stroke-linejoin="round"/>
<path d="M363.661 835.331L372.222 827.757L380.514 747.087" stroke="#4CC326" stroke-width="3.74988" stroke-linecap="round" stroke-linejoin="round"/>
<path d="M430.864 742.918L395.404 848.48L392.975 858.489" stroke="#4CC326" stroke-width="3.74988" stroke-linecap="round" stroke-linejoin="round"/>
<path d="M430.99 743.622L431.279 742.757L419.106 735.329L379.704 666.826L343.434 659.251L306.082 670.025L380.509 747.089L380.462 747.516L400.169 759.741L430.99 743.622Z" fill="#337B1C"/>
<path d="M343.324 658.871L400.171 759.742" stroke="#6EFF40" stroke-width="1.4062" stroke-linecap="round" stroke-linejoin="round"/>
<path d="M380.512 747.087L400.172 759.74L430.862 742.919" stroke="#6EFF40" stroke-width="1.4062" stroke-linecap="round" stroke-linejoin="round"/>
<path d="M418.406 734.849L400.176 759.741" stroke="#6EFF40" stroke-width="1.4062" stroke-linecap="round" stroke-linejoin="round"/>
<path d="M380.514 747.087L306.689 669.888" stroke="#4CC326" stroke-width="3.74988" stroke-linecap="round" stroke-linejoin="round"/>
<path d="M379.712 666.826L418.405 734.849L430.866 742.918" stroke="#4CC326" stroke-width="3.74988" stroke-linecap="round" stroke-linejoin="round"/>
<path d="M379.704 666.826L459.611 608.22L455.93 562.956L428.957 517.544L375.714 507.107L337.587 535.571L318.138 618.657L306.683 669.888L343.434 659.251L379.704 666.826Z" fill="#337B1C"/>
<path d="M337.983 536.529L375.722 507.106" stroke="#6EFF40" stroke-width="1.4062" stroke-linecap="round" stroke-linejoin="round"/>
<path d="M429.45 517.612L459.624 607.486" stroke="#6EFF40" stroke-width="1.4062" stroke-linecap="round" stroke-linejoin="round"/>
<path d="M375.718 507.106L384.983 586.414L429.446 517.612L455.934 562.956" stroke="#6EFF40" stroke-width="1.4062" stroke-linecap="round" stroke-linejoin="round"/>
<path d="M375.717 507.106L429.446 517.611" stroke="#6EFF40" stroke-width="1.4062" stroke-linecap="round" stroke-linejoin="round"/>
<path d="M318.138 618.657L384.978 586.414L459.616 607.486" stroke="#6EFF40" stroke-width="1.4062" stroke-linecap="round" stroke-linejoin="round"/>
<path d="M306.685 669.888L343.324 658.87L379.706 666.825" stroke="#6EFF40" stroke-width="1.4062" stroke-linecap="round" stroke-linejoin="round"/>
<path d="M318.14 618.657L343.324 658.871" stroke="#6EFF40" stroke-width="1.4062" stroke-linecap="round" stroke-linejoin="round"/>
<path d="M384.984 586.413L343.328 658.871" stroke="#6EFF40" stroke-width="1.4062" stroke-linecap="round" stroke-linejoin="round"/>
<path d="M306.686 669.888L315.723 631.374L337.978 536.528" stroke="#4CC326" stroke-width="4.68735" stroke-linecap="round" stroke-linejoin="round"/>
<path d="M459.618 607.486L379.706 666.826" stroke="#4CC326" stroke-width="4.68735" stroke-linecap="round" stroke-linejoin="round"/>
<path d="M459.625 607.485L455.938 562.955" stroke="#4CC326" stroke-width="3.74988" stroke-linecap="round" stroke-linejoin="round"/>
<path d="M59.304 594.949L47.8565 584.673L43.2529 512.932L43.3062 488.893L40.8677 466.926L2.20256 490.498L35.8297 627.933L65.8988 653.263L75.2769 638.178L71.0057 618.703L59.304 594.949Z" fill="#337B1C"/>
<path d="M75.276 638.178L55.9842 615.356L45.0122 597.869L26.7388 514.327L40.7631 488.843" stroke="#6EFF40" stroke-width="1.4062" stroke-linecap="round" stroke-linejoin="round"/>
<path d="M59.1629 594.531L55.9814 615.356L35.8269 627.933" stroke="#6EFF40" stroke-width="1.4062" stroke-linecap="round" stroke-linejoin="round"/>
<path d="M47.8515 584.673L45.0075 597.868L28.7822 597.775" stroke="#6EFF40" stroke-width="1.4062" stroke-linecap="round" stroke-linejoin="round"/>
<path d="M42.787 513.095L26.7346 514.327L2.30573 490.162" stroke="#6EFF40" stroke-width="1.4062" stroke-linecap="round" stroke-linejoin="round"/>
<path d="M42.7908 513.095L47.8565 584.673L58.7385 594.427L71.0058 618.704" stroke="#4CC326" stroke-width="3.74988" stroke-linecap="round" stroke-linejoin="round"/>
<path d="M65.803 653.379L35.8316 627.933L2.3124 490.162L40.8697 466.926" stroke="#4CC326" stroke-width="3.74988" stroke-linecap="round" stroke-linejoin="round"/>
<path d="M111.274 651.753L96.7161 616.095L71.0029 618.704L75.2741 638.178L65.8969 653.262L111.475 691.784L116.047 687.973L111.274 651.753Z" fill="#337B1C"/>
<path d="M111.419 652.261L75.278 638.178" stroke="#6EFF40" stroke-width="1.4062" stroke-linecap="round" stroke-linejoin="round"/>
<path d="M71.0067 618.704L75.278 638.179L65.8998 653.263" stroke="#6EFF40" stroke-width="1.4062" stroke-linecap="round" stroke-linejoin="round"/>
<path d="M71.0076 618.704L97.0498 615.992L111.419 652.262L115.665 688.141L111.025 691.771L65.8029 653.379" stroke="#4CC326" stroke-width="3.74988" stroke-linecap="round" stroke-linejoin="round"/>
<path d="M42.7927 513.095L221.344 588.459L216.519 507.075L174.866 480.53L137.307 481.319L40.8687 466.926L39.9155 489.695L42.7927 513.095Z" fill="#337B1C"/>
<path d="M40.2109 489.533L146.686 516.906L216.518 507.076" stroke="#6EFF40" stroke-width="1.4062" stroke-linecap="round" stroke-linejoin="round"/>
<path d="M174.861 480.531L216.513 507.075L220.706 587.724" stroke="#6EFF40" stroke-width="1.4062" stroke-linecap="round" stroke-linejoin="round"/>
<path d="M137.305 481.319L146.684 516.906L220.71 587.723" stroke="#6EFF40" stroke-width="1.4062" stroke-linecap="round" stroke-linejoin="round"/>
<path d="M174.867 480.53L146.688 516.906" stroke="#6EFF40" stroke-width="1.4062" stroke-linecap="round" stroke-linejoin="round"/>
<path d="M220.712 587.723L42.7927 513.095" stroke="#4CC326" stroke-width="3.74988" stroke-linecap="round" stroke-linejoin="round"/>
<path d="M40.8649 466.927L137.304 481.32L174.862 480.531" stroke="#4CC326" stroke-width="3.74988" stroke-linecap="round" stroke-linejoin="round"/>
<path d="M211.506 191.151L235.15 167.784L226.802 150.911L221.307 141.073L193.58 123.121L206.586 124.79L201.848 113.469L210.139 78.0915L219.915 119.014L246.973 155.166L301.764 110.804L307.587 93.6512L303.462 61.3321L319.663 88.7594L331.397 88.112L339.472 88.0781L320.625 97.6527L312.068 123.61L294.698 146.188L338.061 159.738L357.709 139.375L352.09 162.844L377.772 168.914L408.328 165.862L440.801 131.601L457.769 93.631L460.239 121.516L445.873 150.885L424.256 171.418L457.68 166.21L467.872 160.337L491.726 139.067L517.428 109.473L531.616 76.915L531.2 110.179L501.308 152.299L464.936 179.412L411.766 192.74L333.22 179.78L276.12 166.152L239.915 203.926" fill="#337B1C"/>
<path d="M233.071 212.593L249.639 181.717L274.585 152.301L304.868 119.225L313.976 97.8842L332.215 87.9359" stroke="#6EFF40" stroke-width="1.4062" stroke-linecap="round" stroke-linejoin="round"/>
<path d="M303.891 63.9648L313.278 97.6271" stroke="#6EFF40" stroke-width="1.4062" stroke-linecap="round" stroke-linejoin="round"/>
<path d="M319.594 89.208L313.727 97.694" stroke="#6EFF40" stroke-width="1.4062" stroke-linecap="round" stroke-linejoin="round"/>
<path d="M301.765 110.804L304.868 119.225L311.55 123.808" stroke="#6EFF40" stroke-width="1.4062" stroke-linecap="round" stroke-linejoin="round"/>
<path d="M276.219 166.504L274.286 155.314L293.952 146.047" stroke="#6EFF40" stroke-width="1.4062" stroke-linecap="round" stroke-linejoin="round"/>
<path d="M209.9 79.707L210.428 120.53L225.321 138.199L238.472 160.307L238.061 174.298L273.54 154.193" stroke="#6EFF40" stroke-width="1.4062" stroke-linecap="round" stroke-linejoin="round"/>
<path d="M201.848 113.469L210.424 120.531L219.915 119.015" stroke="#6EFF40" stroke-width="1.4062" stroke-linecap="round" stroke-linejoin="round"/>
<path d="M206.582 124.79L225.316 138.199" stroke="#6EFF40" stroke-width="1.4062" stroke-linecap="round" stroke-linejoin="round"/>
<path d="M246.976 155.166L237.316 174.37L220.973 209.445" stroke="#6EFF40" stroke-width="1.4062" stroke-linecap="round" stroke-linejoin="round"/>
<path d="M274.148 154.435L336.163 169.945L376.611 176.977L410.027 175.981L459.77 171.794L498.042 142.133L523.014 108.511L531.621 76.9149" stroke="#6EFF40" stroke-width="1.4062" stroke-linecap="round" stroke-linejoin="round"/>
<path d="M531.204 110.178L523.014 108.511" stroke="#6EFF40" stroke-width="1.4062" stroke-linecap="round" stroke-linejoin="round"/>
<path d="M501.235 151.962L498.146 142.501L491.36 139.898" stroke="#6EFF40" stroke-width="1.4062" stroke-linecap="round" stroke-linejoin="round"/>
<path d="M464.575 179.335L459.635 172.031L467.516 160.837" stroke="#6EFF40" stroke-width="1.4062" stroke-linecap="round" stroke-linejoin="round"/>
<path d="M376.45 185.141L378.761 177.299L378.364 169.461" stroke="#6EFF40" stroke-width="1.4062" stroke-linecap="round" stroke-linejoin="round"/>
<path d="M411.768 192.741L410.437 175.675L441.352 143.72L452.751 124.345L457.318 95.4289" stroke="#6EFF40" stroke-width="1.4062" stroke-linecap="round" stroke-linejoin="round"/>
<path d="M460.243 121.517L452.806 123.986" stroke="#6EFF40" stroke-width="1.4062" stroke-linecap="round" stroke-linejoin="round"/>
<path d="M440.798 131.601L441.347 143.72L445.87 150.885" stroke="#6EFF40" stroke-width="1.4062" stroke-linecap="round" stroke-linejoin="round"/>
<path d="M211.506 191.151L235.15 167.784L226.802 150.911L221.307 141.073L193.58 123.121L206.586 124.79L201.848 113.469L210.139 78.0915L219.915 119.014L246.973 155.166L301.764 110.804L307.587 93.6512L303.462 61.3321L319.663 88.7594L331.397 88.112L339.472 88.0781L320.625 97.6527L312.068 123.61L294.698 146.188L338.061 159.738L357.709 139.375L352.09 162.844L377.772 168.914L408.328 165.862L440.801 131.601L457.769 93.631L460.239 121.516L445.873 150.885L424.256 171.418L457.68 166.21L467.872 160.337L491.726 139.067L517.428 109.473L531.616 76.915L531.2 110.179L501.308 152.299L464.936 179.412L411.766 192.74L333.22 179.78L276.12 166.152L239.915 203.926" stroke="#4CC326" stroke-width="3.74988" stroke-linecap="round" stroke-linejoin="round"/>
<path d="M132.319 231.002L147.305 251.012L168.705 258.388L215.608 241.105L241.096 253.818L248.196 252.698L247.223 236.367L239.952 203.092L203.701 183.609L169.737 171.643L151.927 177.733L92.9954 170.676L93.9381 205.743L132.319 231.002Z" fill="#337B1C"/>
<path d="M248.286 251.554L241.204 252.65L215.296 240.399L168.78 258.548L147.804 251.526" stroke="#6EFF40" stroke-width="1.4062" stroke-linecap="round" stroke-linejoin="round"/>
<path d="M93.2106 197.533L138.441 220.361L169.876 221.1L210.653 210.953" stroke="#6EFF40" stroke-width="1.4062" stroke-linecap="round" stroke-linejoin="round"/>
<path d="M93.8574 171.44L119.363 182.03L149.651 183.42L172.702 181.096L203.696 183.611" stroke="#6EFF40" stroke-width="1.4062" stroke-linecap="round" stroke-linejoin="round"/>
<path d="M119.364 182.03L117.915 210.019" stroke="#6EFF40" stroke-width="1.4062" stroke-linecap="round" stroke-linejoin="round"/>
<path d="M149.653 183.42L138.438 220.361L132.519 230.604" stroke="#6EFF40" stroke-width="1.4062" stroke-linecap="round" stroke-linejoin="round"/>
<path d="M203.698 183.61L174.003 201.39L138.437 220.361" stroke="#6EFF40" stroke-width="1.4062" stroke-linecap="round" stroke-linejoin="round"/>
<path d="M149.654 183.419L174.006 201.39L210.653 210.953" stroke="#6EFF40" stroke-width="1.4062" stroke-linecap="round" stroke-linejoin="round"/>
<path d="M172.707 181.096L174.007 201.39L169.876 221.1L168.788 258.549" stroke="#6EFF40" stroke-width="1.4062" stroke-linecap="round" stroke-linejoin="round"/>
<path d="M174.002 201.39L218.42 202.167" stroke="#6EFF40" stroke-width="1.4062" stroke-linecap="round" stroke-linejoin="round"/>
<path d="M138.437 220.361L168.783 258.549" stroke="#6EFF40" stroke-width="1.4062" stroke-linecap="round" stroke-linejoin="round"/>
<path d="M211.498 217.702L215.298 240.398L229.008 222.206L241.206 252.65" stroke="#6EFF40" stroke-width="1.4062" stroke-linecap="round" stroke-linejoin="round"/>
<path d="M247.218 236.367L248.288 251.555" stroke="#4CC326" stroke-width="3.74988" stroke-linecap="round" stroke-linejoin="round"/>
<path d="M203.701 183.611L169.738 171.643L150.847 178.034L93.224 171.275L93.9392 205.743L132.522 230.604L147.811 251.526" stroke="#4CC326" stroke-width="3.74988" stroke-linecap="round" stroke-linejoin="round"/>
<path d="M245.945 236.088L267.688 218.425L249.464 205.628L240.782 202.998L245.945 236.088Z" fill="#337B1C"/>
<path d="M245.945 236.088L267.688 218.425L249.464 205.628L240.782 202.998L245.945 236.088Z" stroke="#4CC326" stroke-width="3.74988" stroke-linecap="round" stroke-linejoin="round"/>
<path d="M205.859 181.259L237.955 192.614L215.266 202.494L203.844 192.615L205.859 181.259Z" fill="#337B1C"/>
<path d="M204.156 183.266L220.941 160.014L208.256 146.508L199.615 136.739L170.782 121.476L183.667 121.113L174.633 102.904L181.656 71.9253L193.577 105.396L233.03 143.951L276.989 90.3276L281.838 60.4474L278.431 16.2402L295.96 51.9278L303.637 43.9984L312.15 20.6512L316.834 50.9868L304.344 71.9406L294.611 104.423L282.451 125.913L322.848 129.153L339.431 106.226L337.174 130.252L360.508 133.427L388.534 120.939L426.096 64.0941L438.497 29.6154L444.822 58.9642L425.742 99.7219L405.562 125.051L437.973 114.844L453.605 106.699L481.927 78.9455L501.986 41.459L513.689 2.98355L515.775 41.6464L491.997 91.8087L453.912 127.296L396.174 148.271L320.348 153.42L264.854 151.191L236.113 195.504" fill="#337B1C"/>
<path d="M231.828 201.765L240.423 168.68L255.323 136.054L283.64 98.1322L291.171 67.4581L309.542 48.3346L312.272 21.3785" stroke="#6EFF40" stroke-width="1.4062" stroke-linecap="round" stroke-linejoin="round"/>
<path d="M279.231 18.7856L291.164 67.4583" stroke="#6EFF40" stroke-width="1.4062" stroke-linecap="round" stroke-linejoin="round"/>
<path d="M295.96 52.3815L291.166 67.4581" stroke="#6EFF40" stroke-width="1.4062" stroke-linecap="round" stroke-linejoin="round"/>
<path d="M276.991 90.3276L283.635 98.1323L294.128 104.693" stroke="#6EFF40" stroke-width="1.4062" stroke-linecap="round" stroke-linejoin="round"/>
<path d="M265.008 151.526L255.321 136.055L281.701 125.878" stroke="#6EFF40" stroke-width="1.4062" stroke-linecap="round" stroke-linejoin="round"/>
<path d="M181.646 73.5583L184.391 108.643L204.165 135.047L219.829 145.874L227.907 162.967L255.318 136.054" stroke="#6EFF40" stroke-width="1.4062" stroke-linecap="round" stroke-linejoin="round"/>
<path d="M175.185 102.818L184.398 108.644L193.579 106.213" stroke="#6EFF40" stroke-width="1.4062" stroke-linecap="round" stroke-linejoin="round"/>
<path d="M184.12 121.479L204.706 135.415" stroke="#6EFF40" stroke-width="1.4062" stroke-linecap="round" stroke-linejoin="round"/>
<path d="M233.761 143.593L227.181 163.143L215.943 200.171" stroke="#6EFF40" stroke-width="1.4062" stroke-linecap="round" stroke-linejoin="round"/>
<path d="M255.317 136.054L321.872 143.269L361.595 142.235L391.925 134.701L448.462 119.878L488.349 81.7732L507.529 40.2877L513.328 6.94179" stroke="#6EFF40" stroke-width="1.4062" stroke-linecap="round" stroke-linejoin="round"/>
<path d="M515.778 41.6464L507.532 40.2878" stroke="#6EFF40" stroke-width="1.4062" stroke-linecap="round" stroke-linejoin="round"/>
<path d="M491.912 91.4761L488.469 82.1378L481.591 79.7905" stroke="#6EFF40" stroke-width="1.4062" stroke-linecap="round" stroke-linejoin="round"/>
<path d="M453.558 127.233L448.346 120.12L453.276 107.211" stroke="#6EFF40" stroke-width="1.4062" stroke-linecap="round" stroke-linejoin="round"/>
<path d="M363.218 150.476L363.778 142.25L361.176 133.885" stroke="#6EFF40" stroke-width="1.4062" stroke-linecap="round" stroke-linejoin="round"/>
<path d="M396.182 148.272L392.297 134.342L414.719 98.8584L437.862 60.73L438.311 31.459" stroke="#6EFF40" stroke-width="1.4062" stroke-linecap="round" stroke-linejoin="round"/>
<path d="M445.008 58.6027L437.859 60.3662" stroke="#6EFF40" stroke-width="1.4062" stroke-linecap="round" stroke-linejoin="round"/>
<path d="M411.277 89.0354L414.716 98.8584L425.956 100.268" stroke="#6EFF40" stroke-width="1.4062" stroke-linecap="round" stroke-linejoin="round"/>
<path d="M204.156 183.266L220.941 160.014L208.256 146.508L199.615 136.739L170.782 121.476L183.667 121.113L174.633 102.904L181.656 71.9253L193.577 105.396L233.03 143.951L276.989 90.3276L281.838 60.4474L278.431 16.2402L295.96 51.9278L303.637 43.9984L312.15 20.6512L316.834 50.9868L304.344 71.9406L294.611 104.423L282.451 125.913L322.848 129.153L339.431 106.226L337.174 130.252L360.508 133.427L388.534 120.939L426.096 64.0941L438.497 29.6154L444.822 58.9642L425.742 99.7219L405.562 125.051L437.973 114.844L453.605 106.699L481.927 78.9455L501.986 41.459L513.689 2.98355L515.775 41.6464L491.997 91.8087L453.912 127.296L396.174 148.271L320.348 153.42L264.854 151.191L236.113 195.504" stroke="#4CC326" stroke-width="3.74988" stroke-linecap="round" stroke-linejoin="round"/>
<path d="M210.247 210.654L216.353 201.036L237.694 196.314L251.078 201.062L246.832 209.573L235.236 220.129L228.341 222.723L211.347 217.802L210.247 210.654Z" fill="#337B1C"/>
<path d="M210.247 210.654L216.353 201.036L237.694 196.314L251.078 201.062L246.832 209.573L235.236 220.129L228.341 222.723L211.347 217.802L210.247 210.654Z" stroke="#6EFF40" stroke-width="1.4062" stroke-linecap="round" stroke-linejoin="round"/>
<path d="M216.305 200.566L237.99 196.145L251.078 201.062L246.886 209.808L241.514 214.644L246.862 209.896L250.944 201.26L238.155 196.291L216.305 200.566Z" stroke="#4CC326" stroke-width="3.74988" stroke-linecap="round" stroke-linejoin="round"/>
<path d="M500.711 58.7654C500.718 57.778 499.923 56.972 498.936 56.965C497.949 56.958 497.143 57.7527 497.136 58.7401C497.129 59.7275 497.923 60.5335 498.911 60.5405C499.898 60.5475 500.704 59.7528 500.711 58.7654Z" fill="#A3FF92"/>
<g opacity="0.676622">
<path d="M217.707 197.187C217.711 196.636 217.268 196.187 216.718 196.183C216.167 196.179 215.718 196.622 215.714 197.172C215.71 197.723 216.153 198.172 216.703 198.176C217.254 198.18 217.703 197.737 217.707 197.187Z" fill="#A3FF92"/>
</g>
<path d="M277.846 137.962C277.851 137.231 277.262 136.633 276.53 136.628C275.799 136.623 275.201 137.212 275.196 137.944C275.191 138.675 275.78 139.273 276.512 139.278C277.243 139.283 277.841 138.694 277.846 137.962Z" fill="#A3FF92"/>
<path d="M293.462 67.9133C293.472 66.5639 292.386 65.4623 291.036 65.4528C289.687 65.4433 288.585 66.5293 288.576 67.8788C288.566 69.2283 289.652 70.3298 291.002 70.3393C292.351 70.3488 293.453 69.2628 293.462 67.9133Z" fill="#A3FF92"/>
<path d="M507.116 133.09C507.124 131.957 506.213 131.033 505.08 131.025C503.948 131.017 503.023 131.928 503.015 133.061C503.007 134.193 503.919 135.118 505.051 135.126C506.184 135.134 507.108 134.222 507.116 133.09Z" fill="#A3FF92"/>
<path d="M363.456 174.056C363.462 173.074 362.671 172.271 361.689 172.264C360.706 172.257 359.903 173.048 359.896 174.031C359.89 175.014 360.681 175.816 361.663 175.823C362.646 175.83 363.449 175.039 363.456 174.056Z" fill="#A3FF92"/>
<g opacity="0.275845">
<path d="M119.37 209.049C119.355 208.456 118.861 207.987 118.268 208.003C117.675 208.018 117.206 208.511 117.222 209.105C117.237 209.698 117.731 210.167 118.324 210.151C118.917 210.136 119.386 209.642 119.37 209.049Z" fill="#A3FF92"/>
</g>
<path d="M171.797 244.885C171.763 243.591 170.687 242.568 169.392 242.602C168.097 242.636 167.075 243.713 167.108 245.007C167.142 246.302 168.219 247.325 169.514 247.291C170.809 247.257 171.831 246.18 171.797 244.885Z" fill="#A3FF92"/>
<g opacity="0.877462">
<path d="M241.649 258.353C241.649 257.551 240.998 256.9 240.196 256.9C239.393 256.9 238.743 257.551 238.743 258.353C238.743 259.156 239.393 259.806 240.196 259.806C240.998 259.806 241.649 259.156 241.649 258.353Z" fill="#A3FF92"/>
</g>
<g opacity="0.733307">
<path d="M128.126 317.696C128.126 316.95 127.522 316.346 126.776 316.346C126.031 316.346 125.427 316.95 125.427 317.696C125.427 318.441 126.031 319.045 126.776 319.045C127.522 319.045 128.126 318.441 128.126 317.696Z" fill="#A3FF92"/>
</g>
<path d="M238.888 444.817C238.888 443.696 237.98 442.788 236.86 442.788C235.739 442.788 234.831 443.696 234.831 444.817C234.831 445.937 235.739 446.846 236.86 446.846C237.98 446.846 238.888 445.937 238.888 444.817Z" fill="#A3FF92"/>
<g opacity="0.251029">
<path d="M151.187 395.078C151.187 394.677 150.862 394.351 150.461 394.351C150.059 394.351 149.734 394.677 149.734 395.078C149.734 395.48 150.059 395.805 150.461 395.805C150.862 395.805 151.187 395.48 151.187 395.078Z" fill="#A3FF92"/>
</g>
<path d="M111.804 412.897C111.804 411.548 110.711 410.455 109.363 410.455C108.014 410.455 106.921 411.548 106.921 412.897C106.921 414.245 108.014 415.338 109.363 415.338C110.711 415.338 111.804 414.245 111.804 412.897Z" fill="#A3FF92"/>
<g opacity="0.915939">
<path d="M55.727 492.937C55.7015 492.284 55.1518 491.776 54.4991 491.801C53.8464 491.827 53.338 492.376 53.3635 493.029C53.389 493.682 53.9387 494.19 54.5914 494.164C55.2441 494.139 55.7525 493.589 55.727 492.937Z" fill="#A3FF92"/>
</g>
<path d="M166.196 496.114C166.142 494.736 164.982 493.663 163.604 493.717C162.226 493.77 161.153 494.931 161.207 496.309C161.26 497.687 162.421 498.76 163.799 498.706C165.177 498.652 166.25 497.492 166.196 496.114Z" fill="#A3FF92"/>
<g opacity="0.40617">
<path d="M57.4664 615.729C57.4486 615.275 57.0662 614.921 56.6121 614.939C56.158 614.957 55.8044 615.339 55.8221 615.793C55.8398 616.247 56.2222 616.601 56.6763 616.583C57.1304 616.566 57.4841 616.183 57.4664 615.729Z" fill="#A3FF92"/>
</g>
<path d="M132.562 605.522C132.549 604.514 131.722 603.708 130.714 603.721C129.707 603.734 128.901 604.562 128.914 605.569C128.927 606.577 129.754 607.383 130.762 607.37C131.769 607.356 132.575 606.529 132.562 605.522Z" fill="#A3FF92"/>
<path d="M362.387 687.823C362.358 686.716 361.437 685.842 360.33 685.871C359.223 685.899 358.349 686.82 358.378 687.927C358.406 689.035 359.327 689.909 360.434 689.88C361.542 689.851 362.416 688.93 362.387 687.823Z" fill="#A3FF92"/>
<path d="M457.653 722.13C457.653 721.231 456.925 720.503 456.026 720.503C455.127 720.503 454.399 721.231 454.399 722.13C454.399 723.029 455.127 723.757 456.026 723.757C456.925 723.757 457.653 723.029 457.653 722.13Z" fill="#A3FF92"/>
<path d="M465.783 552.673C465.848 551.902 465.276 551.224 464.505 551.158C463.734 551.093 463.056 551.665 462.991 552.436C462.926 553.207 463.498 553.885 464.269 553.95C465.04 554.016 465.718 553.444 465.783 552.673Z" fill="#A3FF92"/>
<g opacity="0.554692">
<path d="M391.068 587.592C391.055 587.086 390.634 586.687 390.128 586.7C389.622 586.713 389.222 587.134 389.236 587.64C389.249 588.146 389.669 588.545 390.175 588.532C390.681 588.519 391.081 588.098 391.068 587.592Z" fill="#A3FF92"/>
</g>
<g opacity="0.565469">
<path d="M421.975 514.592C421.957 513.905 421.386 513.362 420.699 513.38C420.012 513.398 419.469 513.97 419.487 514.657C419.505 515.344 420.076 515.886 420.763 515.868C421.451 515.851 421.993 515.279 421.975 514.592Z" fill="#A3FF92"/>
</g>
<path d="M318.596 639.596C318.576 638.822 317.933 638.211 317.16 638.232C316.386 638.252 315.775 638.895 315.795 639.669C315.816 640.442 316.459 641.053 317.232 641.033C318.006 641.012 318.617 640.369 318.596 639.596Z" fill="#A3FF92"/>
<g opacity="0.841286">
<path d="M227.829 509.764C227.837 509.147 227.344 508.641 226.727 508.633C226.11 508.625 225.604 509.118 225.596 509.735C225.587 510.352 226.081 510.858 226.698 510.866C227.315 510.874 227.821 510.381 227.829 509.764Z" fill="#A3FF92"/>
</g>
</svg>
